<?xml version="1.0" standalone="no"?>
<!DOCTYPE svg PUBLIC "-//W3C//DTD SVG 20010904//EN"
 "http://www.w3.org/TR/2001/REC-SVG-20010904/DTD/svg10.dtd">
<svg version="1.0" xmlns="http://www.w3.org/2000/svg"
 width="1920.000000pt" height="518.000000pt" viewBox="0 0 1920.000000 518.000000"
 preserveAspectRatio="xMidYMid meet">
<metadata>
Created by potrace 1.15, written by Peter Selinger 2001-2017
</metadata>
<g transform="translate(0.000000,518.000000) scale(0.100000,-0.100000)"
fill="#000000" stroke="none">
<path d="M12992 5175 c6 -7 6130 -7 6136 0 3 3 -1378 5 -3068 5 -1690 0 -3071
-2 -3068 -5z"/>
<path d="M19160 1437 l0 -33 -117 -13 c-65 -7 -149 -19 -188 -26 -77 -15 -247
-45 -395 -70 -52 -9 -140 -25 -195 -35 -154 -28 -378 -64 -640 -104 -1068
-163 -1696 -194 -2265 -111 -271 40 -337 52 -946 171 -651 127 -709 137 -1069
181 -179 22 -858 25 -1030 5 -200 -24 -364 -49 -590 -92 -82 -15 -177 -33
-210 -39 -33 -6 -133 -27 -222 -46 -632 -136 -717 -154 -788 -164 -33 -5 -112
-18 -175 -29 -488 -86 -902 -94 -1365 -28 -257 37 -384 60 -820 153 -538 114
-933 189 -1105 212 -256 34 -300 36 -660 36 -550 0 -723 -23 -1655 -221 -321
-68 -642 -133 -740 -148 -55 -9 -127 -21 -160 -26 -67 -11 -201 -27 -345 -40
-309 -29 -933 2 -1425 70 -82 12 -211 30 -285 40 -74 11 -169 26 -210 34 -41
8 -131 24 -200 36 -229 41 -746 146 -1100 224 -63 14 -140 31 -170 37 -30 6
-63 15 -72 20 -17 9 -18 -28 -18 -711 l0 -720 9600 0 9600 0 0 735 c0 728 0
735 -20 735 -16 0 -20 -7 -20 -33z"/>
</g>
</svg>
