<svg xmlns="http://www.w3.org/2000/svg" viewBox="0 0 800 800"><defs><style>.cls-1,.cls-3,.cls-4{fill:none;stroke:#000;stroke-width:5px;}.cls-1,.cls-3{stroke-miterlimit:10;}.cls-1,.cls-2{opacity:0.5;}.cls-4{stroke-linecap:round;stroke-linejoin:round;}</style></defs><title>wтуризм</title><g id="Слой_1" data-name="Слой 1"><path class="cls-1" d="M491.1,489.25l.72,5.78L402,526.19l30.77,39A69.78,69.78,0,0,1,442,580l37.78,2.6c2.39-.06,4.38,1.57,4.44,3.63l.1,3.75-36,8.54c1.75,4.1,3.27,7.72,4.3,10.2A1.07,1.07,0,0,1,451,610c-2.14-1.57-5.24-3.84-8.76-6.45L425.8,636.09l-3.62-1c-2-.53-3.12-2.85-2.5-5.16l6.17-36.84a71.38,71.38,0,0,1-12.46-12.65l-30.78-39.05-51.33,80.15-5.45-2.05c-3-1.13-4.36-5.38-3-9.52l33.58-101.81-19.63-24.91c-4.22-5.34-12.79-25.13-7.45-29.34s22.59,8.74,26.8,14.09l19.67,25,106.73-8.86C486.89,483.76,490.7,486.07,491.1,489.25Z"/></g><g id="Слой_2" data-name="Слой 2"><g class="cls-2"><rect class="cls-3" x="400.57" y="182.82" width="213.08" height="139.07" rx="9.65" transform="translate(107.34 -148.92) rotate(18.65)"/><path class="cls-3" d="M501.5,154.15h65.31a4.47,4.47,0,0,1,4.47,4.47v28.56a0,0,0,0,1,0,0H497a0,0,0,0,1,0,0V158.62A4.47,4.47,0,0,1,501.5,154.15Z" transform="translate(82.63 -161.86) rotate(18.65)"/><path class="cls-3" d="M510.76,165H554a3,3,0,0,1,3,3v18.9a0,0,0,0,1,0,0H507.81a0,0,0,0,1,0,0V168A3,3,0,0,1,510.76,165Z" transform="translate(84.23 -161.02) rotate(18.65)"/><rect class="cls-3" x="450.28" y="167.41" width="22.35" height="139.07" transform="translate(100.01 -135.13) rotate(18.65)"/><circle class="cls-3" cx="474.96" cy="196.95" r="11.18"/><circle class="cls-3" cx="447.96" cy="276.95" r="11.18"/><circle class="cls-3" cx="461.46" cy="236.95" r="11.18"/><rect class="cls-3" x="541.11" y="198.07" width="22.35" height="139.07" transform="translate(114.59 -162.57) rotate(18.65)"/><circle class="cls-3" cx="565.79" cy="227.61" r="11.18"/><circle class="cls-3" cx="538.78" cy="307.61" r="11.18"/><circle class="cls-3" cx="552.29" cy="267.61" r="11.18"/><path class="cls-3" d="M412.62,296.63h14.9a0,0,0,0,1,0,0v5a4.47,4.47,0,0,1-4.47,4.47h-6a4.47,4.47,0,0,1-4.47-4.47v-5A0,0,0,0,1,412.62,296.63Z" transform="translate(118.43 -118.51) rotate(18.65)"/><path class="cls-3" d="M538.74,339.2h14.9a0,0,0,0,1,0,0v5a4.47,4.47,0,0,1-4.47,4.47h-6a4.47,4.47,0,0,1-4.47-4.47v-5A0,0,0,0,1,538.74,339.2Z" transform="translate(138.67 -156.61) rotate(18.65)"/></g></g><g id="Слой_3" data-name="Слой 3"><g class="cls-2"><path class="cls-4" d="M816,364.42l-10.09-54.33a29.8,29.8,0,0,0-11.74,30.16A30.33,30.33,0,0,0,816,364.42Z"/><path class="cls-4" d="M759.84,343,806,310.21s-14.4-7.88-31.53,4.3S759.84,343,759.84,343Z"/><path class="cls-4" d="M764.38,298.18l41.5,12.09s-1.12-15.71-16.53-20.2S764.38,298.18,764.38,298.18Z"/><path class="cls-3" d="M775.84,460.66s13.36,7.41,22.09,3.76,12.83-18.36,12.83-18.36,13.36,7.41,22.09,3.76a11.85,11.85,0,0,0,1.73-.9c7.54-4.69,11.1-17.45,11.1-17.45a44.64,44.64,0,0,0,4.39,2"/><path d="M786.07,243.1a21.6,21.6,0,0,1,4.71-7.53l.82-.82c.29-.25.61-.48.91-.72l.93-.72c.31-.23.66-.41,1-.62l1-.58c.35-.18.72-.32,1.09-.48l1.1-.46,1.16-.33c.38-.11.77-.24,1.16-.33l1.19-.22a15.21,15.21,0,0,1,2.44-.3,11.29,11.29,0,0,1,4.81.8,11.94,11.94,0,0,1,6.84,6.45.27.27,0,0,1-.15.36.31.31,0,0,1-.19,0,61,61,0,0,0-7.93-2l-3.62-.64a10.52,10.52,0,0,0-1.86-.24l-1,0c-.31,0-.62.07-.94.1l-1,.11-.93.23c-.31.08-.63.14-.93.23l-.91.35c-.3.11-.62.2-.92.34l-.88.45c-.29.15-.6.28-.88.46l-.83.56a23.45,23.45,0,0,0-5.88,5.84h0a.25.25,0,0,1-.35.06A.26.26,0,0,1,786.07,243.1Z"/></g><g class="cls-2"><path class="cls-4" d="M106.11,298.84a1.06,1.06,0,0,1,0,.19h0c-.83,2.93-10.65,39.32,2.58,84.27.3,1,.6,2,.92,3.05.6,1.86,1.22,3.76,1.9,5.66a30.62,30.62,0,0,1-8.5,3.38,32.73,32.73,0,0,1-8.95.32s-.57-2.06-1.28-5.7c-.2-1-.41-2.15-.63-3.39-3-17.28-6.44-56,13.81-87.47h0C106,299.05,106.05,299,106.11,298.84Z"/><path class="cls-4" d="M106.28,298.84l-38.9,32.59s-4.35-15.2,10.09-27.3S106.28,298.84,106.28,298.84Z"/><path class="cls-4" d="M126.73,337.55,106.2,298.63a23.71,23.71,0,0,1,22.23,13A24.15,24.15,0,0,1,126.73,337.55Z"/><path class="cls-4" d="M151.22,296.47l-45,2.28s5.11-12,21.82-12.88S151.22,296.47,151.22,296.47Z"/><path class="cls-4" d="M126.24,270.69l-20,28.06s-7.06-10.37.35-20.79S126.24,270.69,126.24,270.69Z"/><path class="cls-4" d="M106.11,298.77,64.27,287s8.37-9.39,23.9-5S106.11,298.77,106.11,298.77Z"/><path class="cls-4" d="M93.46,396.24a41,41,0,0,1-9.06,6.63,37.88,37.88,0,0,1-11,3.29c-.53-1.57-1.08-3.13-1.65-4.66-.18-.51-.37-1-.57-1.52-21.63-57.6-61.68-87.31-64.85-89.6l-.2-.15.44.15h0c46,15.78,73,58.94,82.73,77.35.54,1,1,2,1.47,2.83C92.57,394.13,93.46,396.24,93.46,396.24Z"/><path class="cls-4" d="M6,310.37l63.69,1.8s-7.55-18.35-31.19-19S6,310.37,6,310.37Z"/><path class="cls-4" d="M16,364.42,5.86,310.09A29.8,29.8,0,0,0-5.88,340.25,30.33,30.33,0,0,0,16,364.42Z"/><path class="cls-4" d="M-40.16,343,6,310.21s-14.4-7.88-31.53,4.3S-40.16,343-40.16,343Z"/><path class="cls-4" d="M-35.62,298.18l41.5,12.09s-1.12-15.71-16.53-20.2S-35.62,298.18-35.62,298.18Z"/><path class="cls-4" d="M6.06,310.16l32-44.21s-15.57-2.74-27.45,13.67S6.06,310.16,6.06,310.16Z"/><path class="cls-3" d="M-24.16,460.66s13.36,7.41,22.09,3.76,12.83-18.36,12.83-18.36,13.36,7.41,22.09,3.76a11.85,11.85,0,0,0,1.73-.9c7.54-4.69,11.1-17.45,11.1-17.45a44.64,44.64,0,0,0,4.39,2"/><path class="cls-3" d="M148.92,392a45.43,45.43,0,0,0,1.53-4.3s13.35,7.41,22.08,3.76,12.84-18.36,12.84-18.36,13.35,7.41,22.08,3.76,12.84-18.36,12.84-18.36"/><path class="cls-3" d="M1.73,473.66s13.35,7.42,22.08,3.77,12.84-18.36,12.84-18.36,13.35,7.41,22.08,3.76,12.84-18.36,12.84-18.36,13.35,7.41,22.08,3.76,12.84-18.36,12.84-18.36,13.35,7.42,22.08,3.77,12.84-18.36,12.84-18.36,13.35,7.41,22.08,3.76,12.84-18.36,12.84-18.36,13.36,7.41,22.09,3.76,12.84-18.36,12.84-18.36"/><path class="cls-3" d="M27.72,486.62S41.07,494,49.8,490.39,62.64,472,62.64,472s13.35,7.41,22.08,3.76,12.84-18.36,12.84-18.36,13.35,7.41,22.08,3.76,12.84-18.36,12.84-18.36,13.35,7.42,22.08,3.77,12.84-18.36,12.84-18.36,13.35,7.41,22.09,3.76,12.83-18.36,12.83-18.36"/><path class="cls-4" d="M148.92,392a43.18,43.18,0,0,1-3.42,6.66c-2,3.12-4.62,6-7.89,7.4-8.73,3.65-22.08-3.77-22.08-3.77s-4.11,14.71-12.84,18.36-22.09-3.76-22.09-3.76-4.1,14.71-12.83,18.36c-5.58,2.33-13,.15-17.7-1.74,3.5-9.22,10.06-22.79,21.1-33.51.2.5.39,1,.57,1.52.57,1.53,1.12,3.09,1.65,4.66a37.88,37.88,0,0,0,11-3.29,41,41,0,0,0,9.06-6.63s-.89-2.11-2.69-5.68c-.44-.86-.93-1.81-1.47-2.83.92-.39,1.85-.76,2.8-1.11.22,1.24.43,2.38.63,3.39.71,3.64,1.28,5.7,1.28,5.7a32.73,32.73,0,0,0,8.95-.32,30.62,30.62,0,0,0,8.5-3.38c-.68-1.9-1.3-3.8-1.9-5.66-.32-1-.62-2-.92-3.05C120,382.68,133.36,385.09,148.92,392Z"/><circle class="cls-4" cx="112.25" cy="203.52" r="34.91"/><path d="M-13.93,243.1a21.45,21.45,0,0,1,4.71-7.53l.82-.82c.29-.25.61-.48.91-.72l.93-.72c.31-.23.66-.41,1-.62l1-.58c.35-.18.72-.32,1.09-.48l1.1-.46,1.15-.33c.39-.11.78-.24,1.17-.33l1.19-.22a15.21,15.21,0,0,1,2.44-.3,11.29,11.29,0,0,1,4.81.8,11.94,11.94,0,0,1,6.84,6.45.27.27,0,0,1-.15.36.31.31,0,0,1-.19,0,61,61,0,0,0-7.93-2l-3.62-.64a10.52,10.52,0,0,0-1.86-.24l-.95,0c-.31,0-.62.07-.94.1l-.95.11-.93.23c-.31.08-.63.14-.93.23l-.91.35c-.3.11-.62.2-.92.34l-.88.45c-.29.15-.6.28-.88.46l-.83.56a23.45,23.45,0,0,0-5.88,5.84h0a.25.25,0,0,1-.35.06A.26.26,0,0,1-13.93,243.1Z"/><path d="M14.84,237.43a12,12,0,0,1,0-9.78q.25-.59.54-1.17c.21-.38.47-.73.71-1.08s.51-.7.8-1l.94-.9A20.87,20.87,0,0,1,22,220.67a21.65,21.65,0,0,1,2.27-1c.77-.29,1.58-.46,2.36-.69s1.6-.23,2.38-.35,1.6-.06,2.38-.09a28.78,28.78,0,0,1,9,1.81.25.25,0,0,1,.14.33.24.24,0,0,1-.26.16h0a31.17,31.17,0,0,0-8.7.19c-.69.16-1.39.24-2.05.46s-1.33.41-2,.68-1.25.52-1.84.85-1.16.65-1.68,1.06a11.85,11.85,0,0,0-2.69,2.79,18.41,18.41,0,0,0-1.09,1.53l-.55.76c-.16.27-.34.53-.51.79a45.11,45.11,0,0,0-3.92,7.46.27.27,0,0,1-.36.14A.25.25,0,0,1,14.84,237.43Z"/><path d="M16.52,246.58a16.39,16.39,0,0,1,3.5-6l.63-.65c.22-.21.46-.39.7-.59l.71-.58c.25-.19.52-.34.78-.51l.81-.48c.27-.15.57-.26.85-.39l.87-.38.91-.28a13.15,13.15,0,0,1,1.87-.48,11.35,11.35,0,0,1,1.94-.29,8.13,8.13,0,0,1,3.84.62,8.67,8.67,0,0,1,5.13,5.48.29.29,0,0,1-.2.36h-.14c-2.52-.45-4.38-.83-6.22-1-.91-.11-1.76-.29-2.65-.48a7.74,7.74,0,0,0-1.36-.24l-.7-.06c-.24,0-.47,0-.7,0l-.71.06-.69.15c-.23.05-.47.09-.7.16l-.68.23c-.23.08-.48.14-.7.24l-.67.31c-.23.11-.46.2-.68.32l-.64.4a18.29,18.29,0,0,0-4.65,4.3h0a.24.24,0,0,1-.35,0A.26.26,0,0,1,16.52,246.58Z"/><path d="M38.64,242.25a8.74,8.74,0,0,1-.47-7.79c.13-.31.27-.63.42-.94a7.16,7.16,0,0,1,.56-.87,8.53,8.53,0,0,1,.65-.81l.76-.71A17.51,17.51,0,0,1,44,229c.58-.31,1.22-.5,1.82-.75s1.25-.34,1.87-.51,1.26-.16,1.88-.23,1.25,0,1.87,0a20.85,20.85,0,0,1,7,1.63.25.25,0,0,1,.14.33.26.26,0,0,1-.25.16h0a24.36,24.36,0,0,0-6.65.38,15.77,15.77,0,0,0-1.54.39c-.49.2-1,.34-1.45.56s-.92.42-1.35.67-.85.51-1.23.83a8.47,8.47,0,0,0-1.89,2.13c-.26.38-.52.76-.76,1.14-.12.19-.27.36-.4.54s-.26.38-.4.57a54.74,54.74,0,0,0-3.46,5.47h0a.29.29,0,0,1-.4.11Z"/></g></g><g id="Слой_4" data-name="Слой 4"><g class="cls-2"><path class="cls-4" d="M197.06-24.18s-13.77-4.44-20.24.57-5.6,19.42-5.6,19.42S157.43-8.6,151-3.6s-5.64,19.45-5.64,19.45-13.76-4.44-20.23.57-5.63,19.44-5.63,19.44S85.13-8.31,124-38.42,197.06-24.18,197.06-24.18Z"/><path class="cls-4" d="M145.32,15.85C127.05-7.75,117.1-33,124-38.42"/><line class="cls-4" x1="150.96" y1="-3.6" x2="206.8" y2="68.58"/><path class="cls-4" d="M292.29,138,234,161.58a3.75,3.75,0,0,1-4.53-1.61L153.21,26.6c-2.28-4-2-8.18.63-9.25l95.72-38.73c2.65-1.07,5.76,1.77,6.89,6.21l38,148.84A3.76,3.76,0,0,1,292.29,138Z"/><path class="cls-4" d="M280.39,125.36l-46.67,18.89a3.25,3.25,0,0,1-3.8-1.74L160.41,14.69,243-18.72l38.92,140.19A3.24,3.24,0,0,1,280.39,125.36Z"/><path class="cls-4" d="M251.05-96.62,231.85-34.2l41.53,157.54a2.17,2.17,0,0,1-1.54,2.64l-7.94,2.09a2.17,2.17,0,0,1-2.64-1.54l-42.18-160a1.55,1.55,0,0,1,0-.21h0A2.08,2.08,0,0,1,219-35l20.07-65.25a2.17,2.17,0,0,1,2.7-1.43l7.85,2.41A2.17,2.17,0,0,1,251.05-96.62Z"/><path class="cls-4" d="M177.05,43.61c6.21-2.51,8.48,3.1,14.68.59s3.94-8.12,10.15-10.63,8.48,3.09,14.69.58,3.94-8.12,10.14-10.63,8.48,3.1,14.69.59,3.94-8.12,10.15-10.64"/><circle class="cls-4" cx="226.29" cy="58.18" r="6.91"/><circle class="cls-4" cx="220.53" cy="42.8" r="2.59"/><circle class="cls-4" cx="211.16" cy="87.61" r="2.59"/><circle class="cls-4" cx="243.39" cy="112.55" r="6.26"/><circle class="cls-4" cx="232.32" cy="101.89" r="2.16"/><circle class="cls-4" cx="238.65" cy="89.3" r="4.1"/><circle class="cls-4" cx="209.78" cy="72.09" r="4.1"/></g><g class="cls-2"><path class="cls-4" d="M197.06,775.82s-13.77-4.44-20.24.57-5.6,19.42-5.6,19.42-13.79-4.41-20.26.59-5.64,19.45-5.64,19.45-13.76-4.44-20.23.57-5.63,19.44-5.63,19.44S85.13,791.69,124,761.58,197.06,775.82,197.06,775.82Z"/><path class="cls-4" d="M145.32,815.85C127.05,792.25,117.1,767,124,761.58"/><path class="cls-4" d="M171.22,795.81C153,772.2,131,756.2,124,761.58"/><line class="cls-4" x1="150.96" y1="796.4" x2="206.8" y2="868.58"/><line class="cls-4" x1="116.24" y1="751.54" x2="123.91" y2="761.45"/><path class="cls-4" d="M292.29,938,234,961.58a3.75,3.75,0,0,1-4.53-1.61L153.21,826.6c-2.28-4-2-8.18.63-9.25l95.72-38.73c2.65-1.07,5.76,1.77,6.89,6.21l38,148.84A3.76,3.76,0,0,1,292.29,938Z"/><path class="cls-4" d="M280.39,925.36l-46.67,18.89a3.25,3.25,0,0,1-3.8-1.74L160.41,814.69,243,781.28l38.92,140.19A3.24,3.24,0,0,1,280.39,925.36Z"/><path class="cls-4" d="M251.05,703.38l-19.2,62.42,41.53,157.54a2.17,2.17,0,0,1-1.54,2.64l-7.94,2.09a2.17,2.17,0,0,1-2.64-1.54l-42.18-160a1.55,1.55,0,0,1,0-.21h0a2.08,2.08,0,0,1,0-1.35l20.07-65.25a2.17,2.17,0,0,1,2.7-1.43l7.85,2.41A2.17,2.17,0,0,1,251.05,703.38Z"/></g></g><g id="Слой_6" data-name="Слой 6"><g class="cls-2"><path class="cls-4" d="M651.39,865.3,511.1,756.47c-2.34-1.81-4-5.28-3.59-7.75l7.1-47.83c.59-4,3.6-5.35,6.67-3l184.29,143c3.07,2.38,2.47,5.64-1.22,7.19l-44.56,18.77C657.48,867.82,653.73,867.11,651.39,865.3Z"/><circle class="cls-4" cx="538.53" cy="744.53" r="12.68"/><circle class="cls-4" cx="569.59" cy="768.63" r="12.68"/><polygon class="cls-4" points="732.54 615.86 610.53 767.16 616.32 771.65 732.54 615.86"/><polygon class="cls-4" points="689.51 602.71 717.12 635.36 727.99 621.34 689.51 602.71"/><polygon class="cls-4" points="711.37 643.15 540.77 695.59 702.98 821.42 711.37 643.15"/></g><g class="cls-2"><path class="cls-4" d="M651.39,65.3,511.1-43.53c-2.34-1.81-4-5.28-3.59-7.75l7.1-47.83c.59-4,3.6-5.35,6.67-3l184.29,143c3.07,2.38,2.47,5.64-1.22,7.19L659.79,66.85C657.48,67.82,653.73,67.11,651.39,65.3Z"/><polygon class="cls-4" points="711.37 -156.85 540.77 -104.41 702.98 21.42 711.37 -156.85"/></g></g></svg>