<svg xmlns="http://www.w3.org/2000/svg" viewBox="0 0 800 800"><defs><style>.cls-1,.cls-3,.cls-4{fill:none;}.cls-1,.cls-3,.cls-4,.cls-6{stroke:#fff;stroke-width:3px;}.cls-1,.cls-3,.cls-6{stroke-miterlimit:10;}.cls-1,.cls-2,.cls-6{opacity:0.5;}.cls-4{stroke-linecap:round;stroke-linejoin:round;}.cls-5,.cls-6{fill:#fff;}</style></defs><title>2wтуризм</title><g id="Слой_1" data-name="Слой 1"><path class="cls-1" d="M243.38,334.24,244,338l-57.5,21.94,20.68,24.65a44.53,44.53,0,0,1,6.27,9.37l24.5.93a2.64,2.64,0,0,1,2.94,2.26l.14,2.43-23.1,6.23c1.21,2.62,2.26,4.93,3,6.52a.69.69,0,0,1-1,.85c-1.41-1-3.46-2.38-5.79-4l-10,21.4-2.37-.56a2.65,2.65,0,0,1-1.71-3.29l3.26-24a46,46,0,0,1-8.31-7.93l-20.69-24.66L142.6,423,139,421.8c-2-.67-2.93-3.4-2.13-6.1l19.72-66.54-13.2-15.73c-2.83-3.37-8.77-16-5.4-18.83s14.78,5.21,17.62,8.58l13.22,15.76,68.88-7.85C240.55,330.77,243.07,332.19,243.38,334.24Z"/><path class="cls-1" d="M662.79,334.24l.58,3.72-57.5,21.94,20.67,24.65a44.44,44.44,0,0,1,6.28,9.37l24.5.93a2.65,2.65,0,0,1,2.94,2.26l.14,2.43-23.11,6.23c1.22,2.62,2.27,4.93,3,6.52a.69.69,0,0,1-1,.85c-1.42-1-3.47-2.38-5.8-4l-10,21.4-2.36-.56a2.65,2.65,0,0,1-1.72-3.29l3.26-24a46.35,46.35,0,0,1-8.31-7.93l-20.68-24.66L562,423l-3.57-1.21c-2-.67-2.92-3.4-2.12-6.1L576,349.16l-13.2-15.73c-2.83-3.37-8.77-16-5.39-18.83s14.78,5.21,17.61,8.58l13.22,15.76,68.88-7.85C660,330.77,662.47,332.19,662.79,334.24Z"/><path class="cls-1" d="M451.26,819.39l-3.57,1.21L416.1,767.78l-20.68,24.64a44.48,44.48,0,0,1-8.14,7.81l3.34,24.29a2.65,2.65,0,0,1-1.72,3.29l-2.36.56L376.38,806.7c-2.37,1.65-4.46,3.08-5.89,4.07a.69.69,0,0,1-1-.86c.71-1.56,1.74-3.82,2.93-6.4l-22.81-6.14.14-2.43a2.65,2.65,0,0,1,2.94-2.26l24.16-.95a46.9,46.9,0,0,1,6.37-9.56l20.69-24.65-57.56-22,.58-3.72c.32-2.05,2.84-3.47,5.64-3.15l68.95,7.86,13.19-15.73c2.84-3.38,14.24-11.42,17.62-8.59s-2.57,15.47-5.4,18.84l-13.22,15.76,19.69,66.47C454.19,816,453.22,818.72,451.26,819.39Z"/><path class="cls-1" d="M451.26,19.39l-3.57,1.21L416.1-32.22,395.42-7.58A44.48,44.48,0,0,1,387.28.23l3.34,24.29a2.64,2.64,0,0,1-1.72,3.29l-2.36.56L376.38,6.7c-2.37,1.65-4.46,3.08-5.89,4.07a.69.69,0,0,1-1-.86c.71-1.56,1.74-3.82,2.93-6.4L349.59-2.63l.14-2.43a2.65,2.65,0,0,1,2.94-2.26l24.16-.95a46.9,46.9,0,0,1,6.37-9.56l20.69-24.65-57.56-22,.58-3.72c.32-2,2.84-3.47,5.64-3.15l68.95,7.86,13.19-15.73c2.84-3.38,14.24-11.42,17.62-8.59s-2.57,15.47-5.4,18.84L433.69-53.18l19.69,66.47C454.19,16,453.22,18.72,451.26,19.39Z"/></g><g id="Слой_2" data-name="Слой 2"><g class="cls-2"><rect class="cls-3" x="-68.96" y="523.43" width="137.92" height="90.02" rx="6.24" transform="translate(181.79 29.85) rotate(18.65)"/><path class="cls-3" d="M-3.63,504.88H38.65a2.89,2.89,0,0,1,2.89,2.89v18.49a0,0,0,0,1,0,0H-6.52a0,0,0,0,1,0,0V507.77A2.89,2.89,0,0,1-3.63,504.88Z" transform="translate(165.8 21.48) rotate(18.65)"/><path class="cls-3" d="M2.37,511.92h28a1.91,1.91,0,0,1,1.91,1.91v12.23a0,0,0,0,1,0,0H.45a0,0,0,0,1,0,0V513.83a1.91,1.91,0,0,1,1.91-1.91Z" transform="translate(166.84 22.03) rotate(18.65)"/><rect class="cls-3" x="22.01" y="533.3" width="14.47" height="90.02" transform="translate(186.48 21.02) rotate(18.65)"/><circle class="cls-3" cx="37.98" cy="552.42" r="7.23"/><circle class="cls-3" cx="20.5" cy="604.21" r="7.23"/><circle class="cls-3" cx="29.24" cy="578.31" r="7.23"/><path class="cls-3" d="M20.47,624.66h9.65a0,0,0,0,1,0,0v3.22a2.89,2.89,0,0,1-2.89,2.89H23.37a2.89,2.89,0,0,1-2.89-2.89v-3.22a0,0,0,0,1,0,0Z" transform="translate(202.07 24.88) rotate(18.65)"/></g><g class="cls-2"><rect class="cls-3" x="731.04" y="523.43" width="137.92" height="90.02" rx="6.24" transform="matrix(0.95, 0.32, -0.32, 0.95, 223.81, -225.99)"/><path class="cls-3" d="M796.37,504.88h42.28a2.89,2.89,0,0,1,2.89,2.89v18.49a0,0,0,0,1,0,0H793.48a0,0,0,0,1,0,0V507.77A2.89,2.89,0,0,1,796.37,504.88Z" transform="translate(207.82 -234.37) rotate(18.65)"/><path class="cls-3" d="M802.37,511.92h28a1.91,1.91,0,0,1,1.91,1.91v12.23a0,0,0,0,1,0,0h-31.8a0,0,0,0,1,0,0V513.83a1.91,1.91,0,0,1,1.91-1.91Z" transform="translate(208.85 -233.82) rotate(18.65)"/><rect class="cls-3" x="763.22" y="513.46" width="14.47" height="90.02" transform="translate(219.06 -217.07) rotate(18.65)"/><circle class="cls-3" cx="779.19" cy="532.58" r="7.23"/><circle class="cls-3" cx="761.71" cy="584.36" r="7.23"/><circle class="cls-3" cx="770.45" cy="558.47" r="7.23"/><path class="cls-3" d="M738.83,597.1h9.65a0,0,0,0,1,0,0v3.22a2.89,2.89,0,0,1-2.89,2.89h-3.86a2.89,2.89,0,0,1-2.89-2.89V597.1A0,0,0,0,1,738.83,597.1Z" transform="translate(230.99 -206.31) rotate(18.65)"/></g><g class="cls-2"><rect class="cls-3" x="465.86" y="128.17" width="137.92" height="90.02" rx="6.24" transform="translate(87.19 -166.89) rotate(19.28)"/><path class="cls-3" d="M531.78,109.81h42.28a2.89,2.89,0,0,1,2.89,2.89v18.49a0,0,0,0,1,0,0H528.88a0,0,0,0,1,0,0V112.71A2.89,2.89,0,0,1,531.78,109.81Z" transform="translate(70.81 -175.82) rotate(19.28)"/><path class="cls-3" d="M537.74,116.84h28a1.91,1.91,0,0,1,1.91,1.91V131a0,0,0,0,1,0,0h-31.8a0,0,0,0,1,0,0V118.76A1.91,1.91,0,0,1,537.74,116.84Z" transform="translate(71.87 -175.23) rotate(19.28)"/><rect class="cls-3" x="498.16" y="117.88" width="14.47" height="90.02" transform="translate(82.14 -157.75) rotate(19.28)"/><circle class="cls-3" cx="514.41" cy="137.09" r="7.23"/><circle class="cls-3" cx="496.37" cy="188.68" r="7.23"/><circle class="cls-3" cx="505.39" cy="162.89" r="7.23"/><rect class="cls-3" x="556.73" y="138.37" width="14.47" height="90.02" transform="translate(92.19 -175.94) rotate(19.28)"/><circle class="cls-3" cx="572.98" cy="157.58" r="7.23"/><circle class="cls-3" cx="554.94" cy="209.17" r="7.23"/><circle class="cls-3" cx="563.96" cy="183.38" r="7.23"/><path class="cls-3" d="M473.32,201.22H483a0,0,0,0,1,0,0v3.22a2.89,2.89,0,0,1-2.89,2.89h-3.86a2.89,2.89,0,0,1-2.89-2.89v-3.22a0,0,0,0,1,0,0Z" transform="translate(94.27 -146.43) rotate(19.28)"/><path class="cls-3" d="M554.65,229.67h9.65a0,0,0,0,1,0,0v3.22a2.89,2.89,0,0,1-2.89,2.89h-3.86a2.89,2.89,0,0,1-2.89-2.89v-3.22A0,0,0,0,1,554.65,229.67Z" transform="translate(108.23 -171.69) rotate(19.28)"/></g></g><g id="Слой_3" data-name="Слой 3"><g class="cls-2"><path class="cls-4" d="M10.43,149.83s0,.06,0,.12h0c-.54,1.89-6.9,25.44,1.66,54.54.2.66.39,1.31.6,2,.39,1.21.79,2.44,1.23,3.67a19.6,19.6,0,0,1-5.5,2.18,21.12,21.12,0,0,1-5.79.22s-.37-1.34-.83-3.7c-.13-.65-.27-1.39-.41-2.19C-.56,195.46-2.81,170.41,10.3,150h0Z"/><path class="cls-4" d="M10.54,149.83l-25.18,21.09s-2.81-9.83,6.53-17.66S10.54,149.83,10.54,149.83Z"/><path class="cls-4" d="M23.77,174.89l-13.28-25.2a15.36,15.36,0,0,1,14.39,8.44A15.64,15.64,0,0,1,23.77,174.89Z"/><path class="cls-4" d="M39.63,148.3l-29.15,1.47s3.31-7.79,14.13-8.34S39.63,148.3,39.63,148.3Z"/><path class="cls-4" d="M23.46,131.61,10.54,149.77s-4.57-6.71.22-13.45S23.46,131.61,23.46,131.61Z"/><path class="cls-4" d="M10.43,149.78l-27.09-7.64s5.43-6.09,15.48-3.25S10.43,149.78,10.43,149.78Z"/><path class="cls-4" d="M2.24,212.87a26.52,26.52,0,0,1-5.87,4.3,24.54,24.54,0,0,1-7.12,2.13c-.35-1-.7-2-1.07-3-.12-.33-.24-.66-.37-1-14-37.29-39.92-56.52-42-58l-.13-.1.29.1h0c29.78,10.22,47.25,38.15,53.55,50.07.35.66.66,1.27,1,1.83C1.66,211.51,2.24,212.87,2.24,212.87Z"/><path class="cls-3" d="M38.14,210.12a29.29,29.29,0,0,0,1-2.79s8.64,4.8,14.29,2.44,8.31-11.89,8.31-11.89,8.65,4.8,14.3,2.44,8.31-11.88,8.31-11.88"/><path class="cls-3" d="M-57.14,263s8.64,4.8,14.3,2.44,8.3-11.89,8.3-11.89,8.65,4.8,14.3,2.44,8.31-11.88,8.31-11.88,8.64,4.79,14.29,2.43,8.31-11.88,8.31-11.88,8.65,4.8,14.3,2.43,8.31-11.88,8.31-11.88,8.64,4.8,14.29,2.44,8.31-11.89,8.31-11.89,8.65,4.8,14.3,2.44,8.31-11.89,8.31-11.89"/><path class="cls-3" d="M-40.31,271.38s8.64,4.8,14.29,2.44,8.31-11.89,8.31-11.89,8.64,4.8,14.29,2.44,8.31-11.89,8.31-11.89,8.65,4.8,14.3,2.44S27.5,243,27.5,243s8.64,4.8,14.29,2.43,8.31-11.88,8.31-11.88,8.64,4.8,14.3,2.44,8.31-11.89,8.31-11.89"/><path class="cls-4" d="M38.14,210.12a28.22,28.22,0,0,1-2.22,4.31,12,12,0,0,1-5.1,4.79c-5.65,2.36-14.3-2.44-14.3-2.44s-2.65,9.52-8.31,11.89-14.29-2.44-14.29-2.44-2.66,9.52-8.31,11.88c-3.61,1.51-8.44.1-11.46-1.12,2.27-6,6.52-14.75,13.66-21.69.13.32.25.65.37,1,.37,1,.72,2,1.07,3a24.54,24.54,0,0,0,7.12-2.13,26.52,26.52,0,0,0,5.87-4.3S1.66,211.51.5,209.2c-.29-.56-.6-1.17-.95-1.83.59-.26,1.2-.49,1.81-.72.14.8.28,1.54.41,2.19.46,2.36.83,3.7.83,3.7a21.12,21.12,0,0,0,5.79-.22,19.6,19.6,0,0,0,5.5-2.18c-.44-1.23-.84-2.46-1.23-3.67-.21-.66-.4-1.31-.6-2C19.43,204.1,28.07,205.66,38.14,210.12Z"/><circle class="cls-4" cx="14.4" cy="88.13" r="22.6"/></g><g class="cls-2"><path class="cls-4" d="M810.43,149.83s0,.06,0,.12h0c-.54,1.89-6.9,25.44,1.66,54.54.2.66.39,1.31.6,2,.39,1.21.79,2.44,1.23,3.67a19.6,19.6,0,0,1-5.5,2.18,21.12,21.12,0,0,1-5.79.22s-.37-1.34-.83-3.7c-.13-.65-.27-1.39-.41-2.19-1.92-11.19-4.17-36.24,8.94-56.62h0Z"/><path class="cls-4" d="M810.54,149.83l-25.18,21.09s-2.81-9.83,6.53-17.66S810.54,149.83,810.54,149.83Z"/><path class="cls-4" d="M810.43,149.78l-27.09-7.64s5.43-6.09,15.48-3.25S810.43,149.78,810.43,149.78Z"/><path class="cls-4" d="M802.24,212.87a26.52,26.52,0,0,1-5.87,4.3,24.54,24.54,0,0,1-7.12,2.13c-.35-1-.7-2-1.07-3-.12-.33-.24-.66-.37-1-14-37.29-39.92-56.52-42-58l-.13-.1.29.1h0c29.78,10.22,47.25,38.15,53.55,50.07.35.66.66,1.27,1,1.83C801.66,211.51,802.24,212.87,802.24,212.87Z"/><path class="cls-4" d="M745.6,157.29l41.22,1.17s-4.89-11.88-20.19-12.31S745.6,157.29,745.6,157.29Z"/><path class="cls-4" d="M752.07,192.28l-6.53-35.17a19.27,19.27,0,0,0-7.6,19.52A19.62,19.62,0,0,0,752.07,192.28Z"/><path class="cls-4" d="M715.75,178.43l29.86-21.24s-9.33-5.1-20.41,2.78S715.75,178.43,715.75,178.43Z"/><path class="cls-4" d="M718.69,149.4l26.86,7.83s-.73-10.17-10.7-13.07S718.69,149.4,718.69,149.4Z"/><path class="cls-4" d="M745.67,157.16l20.72-28.62s-10.08-1.77-17.77,8.85S745.67,157.16,745.67,157.16Z"/><path class="cls-3" d="M726.11,254.57s8.64,4.8,14.29,2.44,8.31-11.88,8.31-11.88,8.64,4.79,14.3,2.43a7.44,7.44,0,0,0,1.12-.58c4.88-3,7.18-11.3,7.18-11.3a27.87,27.87,0,0,0,2.84,1.31"/><path class="cls-3" d="M742.86,263s8.64,4.8,14.3,2.44,8.3-11.89,8.3-11.89,8.65,4.8,14.3,2.44,8.31-11.88,8.31-11.88,8.64,4.79,14.29,2.43,8.31-11.88,8.31-11.88,8.65,4.8,14.3,2.43,8.31-11.88,8.31-11.88,8.64,4.8,14.29,2.44,8.31-11.89,8.31-11.89,8.65,4.8,14.3,2.44,8.31-11.89,8.31-11.89"/><path class="cls-3" d="M759.69,271.38s8.64,4.8,14.29,2.44,8.31-11.89,8.31-11.89,8.64,4.8,14.29,2.44,8.31-11.89,8.31-11.89,8.65,4.8,14.3,2.44S827.5,243,827.5,243s8.64,4.8,14.29,2.43,8.31-11.88,8.31-11.88,8.64,4.8,14.3,2.44,8.31-11.89,8.31-11.89"/><path class="cls-4" d="M838.14,210.12a28.22,28.22,0,0,1-2.22,4.31,12,12,0,0,1-5.1,4.79c-5.65,2.36-14.3-2.44-14.3-2.44s-2.65,9.52-8.31,11.89-14.29-2.44-14.29-2.44-2.66,9.52-8.31,11.88c-3.61,1.51-8.44.1-11.46-1.12,2.27-6,6.52-14.75,13.66-21.69.13.32.25.65.37,1,.37,1,.72,2,1.07,3a24.54,24.54,0,0,0,7.12-2.13,26.52,26.52,0,0,0,5.87-4.3s-.58-1.36-1.74-3.67c-.29-.56-.6-1.17-1-1.83.59-.26,1.2-.49,1.81-.72.14.8.28,1.54.41,2.19.46,2.36.83,3.7.83,3.7a21.12,21.12,0,0,0,5.79-.22,19.6,19.6,0,0,0,5.5-2.18c-.44-1.23-.84-2.46-1.23-3.67-.21-.66-.4-1.31-.6-2C819.43,204.1,828.07,205.66,838.14,210.12Z"/><circle class="cls-4" cx="814.4" cy="88.13" r="22.6"/><path class="cls-5" d="M732.73,113.76a14.36,14.36,0,0,1,3.09-4.84,11.5,11.5,0,0,1,5.18-3,11,11,0,0,1,1.51-.35,10.07,10.07,0,0,1,1.56-.18,7.59,7.59,0,0,1,3.09.51,8,8,0,0,1,4.46,4.08.17.17,0,0,1-.21.22,34.44,34.44,0,0,0-5.11-1.42c-.8-.14-1.57-.3-2.37-.42a6.25,6.25,0,0,0-1.22-.14l-.62,0c-.2,0-.4,0-.61.07a10.72,10.72,0,0,0-4.7,1.81A14.81,14.81,0,0,0,733,113.9a.16.16,0,0,1-.21,0A.16.16,0,0,1,732.73,113.76Z"/><path class="cls-5" d="M751.36,110.08a7.9,7.9,0,0,1,.08-6.27l.35-.75c.13-.25.31-.46.46-.7a7.65,7.65,0,0,1,.51-.65l.6-.58a13.47,13.47,0,0,1,2.7-1.82,12.46,12.46,0,0,1,6-1.39,18.24,18.24,0,0,1,5.83,1.13.14.14,0,0,1,.09.19.17.17,0,0,1-.16.1h0a20.06,20.06,0,0,0-5.64.07,11.9,11.9,0,0,0-4.91,2,7.79,7.79,0,0,0-1.78,1.8,9.69,9.69,0,0,0-.72,1,12.24,12.24,0,0,0-.7,1,26.1,26.1,0,0,0-2.44,4.88.16.16,0,0,1-.21.1A.2.2,0,0,1,751.36,110.08Z"/><path class="cls-5" d="M752.45,116a10.84,10.84,0,0,1,2.29-3.84,8.9,8.9,0,0,1,4-2.45,7.67,7.67,0,0,1,1.19-.3,8.62,8.62,0,0,1,1.24-.18,5.44,5.44,0,0,1,2.46.41,5.72,5.72,0,0,1,3.35,3.44.16.16,0,0,1-.11.21.17.17,0,0,1-.1,0c-1.58-.34-2.79-.62-4-.78-.59-.08-1.15-.2-1.74-.31a4.46,4.46,0,0,0-.89-.14,3.15,3.15,0,0,0-.92,0,8.11,8.11,0,0,0-3.56,1.25,11.24,11.24,0,0,0-3,2.83.15.15,0,0,1-.27-.14Z"/><path class="cls-5" d="M766.77,113.2a5.77,5.77,0,0,1-.22-5l.28-.6a6.49,6.49,0,0,1,.36-.55,4.87,4.87,0,0,1,.89-1,11.12,11.12,0,0,1,2.19-1.4,9.72,9.72,0,0,1,4.77-1,14,14,0,0,1,4.5,1,.15.15,0,0,1,.08.2.13.13,0,0,1-.15.09h0a15.85,15.85,0,0,0-4.32.2,8.87,8.87,0,0,0-3.64,1.57,5.15,5.15,0,0,0-1.26,1.38c-.18.25-.36.49-.51.74a7.57,7.57,0,0,0-.52.74,28.51,28.51,0,0,0-2.15,3.59.18.18,0,0,1-.23.08A.23.23,0,0,1,766.77,113.2Z"/></g><g class="cls-2"><path class="cls-4" d="M263.89,545.19s0,.06,0,.12h0c-.54,1.9-6.9,25.45,1.66,54.55l.6,2c.39,1.21.79,2.44,1.23,3.67a19.6,19.6,0,0,1-5.5,2.18,21.12,21.12,0,0,1-5.79.22s-.37-1.34-.83-3.7c-.13-.65-.27-1.39-.41-2.19-1.92-11.19-4.17-36.24,8.94-56.62h0Z"/><path class="cls-4" d="M264,545.19l-25.18,21.09s-2.81-9.83,6.53-17.66S264,545.19,264,545.19Z"/><path class="cls-4" d="M277.24,570.25,264,545.05a15.35,15.35,0,0,1,14.39,8.44A15.65,15.65,0,0,1,277.24,570.25Z"/><path class="cls-4" d="M293.09,543.65l-29.15,1.48s3.31-7.79,14.13-8.34S293.09,543.65,293.09,543.65Z"/><path class="cls-4" d="M276.92,527,264,545.13s-4.57-6.71.22-13.45S276.92,527,276.92,527Z"/><path class="cls-4" d="M263.89,545.14l-27.08-7.64s5.42-6.09,15.47-3.25S263.89,545.14,263.89,545.14Z"/><path class="cls-4" d="M255.7,608.23a26.52,26.52,0,0,1-5.87,4.3,24.54,24.54,0,0,1-7.12,2.13c-.35-1-.7-2-1.07-3-.12-.33-.24-.66-.37-1-14-37.28-39.92-56.51-42-58l-.13-.1.29.1h0c29.78,10.22,47.25,38.15,53.55,50.07.35.66.67,1.27,1,1.83C255.13,606.87,255.7,608.23,255.7,608.23Z"/><path class="cls-4" d="M199.06,552.65l41.22,1.17s-4.89-11.88-20.19-12.31S199.06,552.65,199.06,552.65Z"/><path class="cls-4" d="M205.53,587.64,199,552.47A19.27,19.27,0,0,0,191.4,572,19.62,19.62,0,0,0,205.53,587.64Z"/><path class="cls-4" d="M169.21,573.79l29.86-21.24s-9.32-5.11-20.41,2.78S169.21,573.79,169.21,573.79Z"/><path class="cls-4" d="M172.15,544.76,199,552.59s-.73-10.17-10.7-13.08S172.15,544.76,172.15,544.76Z"/><path class="cls-4" d="M199.13,552.52l20.72-28.62s-10.07-1.77-17.77,8.85S199.13,552.52,199.13,552.52Z"/><path class="cls-3" d="M179.57,649.93s8.64,4.8,14.29,2.44,8.31-11.89,8.31-11.89,8.65,4.8,14.3,2.44a8.5,8.5,0,0,0,1.12-.58c4.88-3,7.19-11.3,7.19-11.3a29.72,29.72,0,0,0,2.83,1.31"/><path class="cls-3" d="M291.6,605.48a29.29,29.29,0,0,0,1-2.79s8.64,4.8,14.29,2.44,8.31-11.89,8.31-11.89,8.65,4.8,14.3,2.44,8.31-11.88,8.31-11.88"/><path class="cls-3" d="M196.32,658.35s8.65,4.8,14.3,2.44,8.3-11.89,8.3-11.89,8.65,4.8,14.3,2.44,8.31-11.89,8.31-11.89,8.64,4.8,14.29,2.44S264.13,630,264.13,630s8.65,4.8,14.3,2.43,8.31-11.88,8.31-11.88,8.64,4.8,14.29,2.44,8.31-11.89,8.31-11.89,8.65,4.8,14.3,2.44S332,601.66,332,601.66"/><path class="cls-3" d="M213.15,666.74s8.64,4.8,14.29,2.44,8.31-11.89,8.31-11.89,8.64,4.8,14.29,2.44,8.31-11.89,8.31-11.89,8.65,4.8,14.3,2.44S281,638.4,281,638.4s8.64,4.79,14.29,2.43S303.56,629,303.56,629s8.65,4.8,14.3,2.43,8.31-11.88,8.31-11.88"/><path class="cls-4" d="M291.6,605.48a28.09,28.09,0,0,1-2.21,4.31,12.12,12.12,0,0,1-5.11,4.79c-5.65,2.36-14.3-2.44-14.3-2.44s-2.65,9.52-8.3,11.88-14.3-2.43-14.3-2.43-2.66,9.52-8.31,11.88c-3.61,1.51-8.44.1-11.46-1.12,2.27-6,6.52-14.76,13.66-21.7.13.33.25.66.37,1,.37,1,.72,2,1.07,3a24.54,24.54,0,0,0,7.12-2.13,26.52,26.52,0,0,0,5.87-4.3s-.57-1.36-1.74-3.67c-.28-.56-.6-1.17-1-1.83.59-.26,1.2-.5,1.81-.72.14.8.28,1.54.41,2.19.46,2.36.83,3.7.83,3.7a21.12,21.12,0,0,0,5.79-.22,19.6,19.6,0,0,0,5.5-2.18c-.44-1.23-.84-2.46-1.23-3.67l-.6-2C272.9,599.46,281.53,601,291.6,605.48Z"/><circle class="cls-4" cx="267.86" cy="483.49" r="22.6"/><path class="cls-5" d="M186.2,509.12a14.18,14.18,0,0,1,3.08-4.84,11.61,11.61,0,0,1,5.18-3,11,11,0,0,1,1.51-.34,9.09,9.09,0,0,1,1.56-.18,7.53,7.53,0,0,1,3.09.51,7.93,7.93,0,0,1,4.46,4.08.17.17,0,0,1-.21.22,33.48,33.48,0,0,0-5.1-1.42c-.81-.14-1.58-.3-2.38-.42a6.25,6.25,0,0,0-1.22-.14l-.61,0c-.21,0-.41.05-.62.07a10.72,10.72,0,0,0-4.7,1.81,14.66,14.66,0,0,0-3.78,3.83.17.17,0,0,1-.21,0A.14.14,0,0,1,186.2,509.12Z"/><path class="cls-5" d="M204.82,505.44a7.9,7.9,0,0,1,.08-6.27l.35-.75c.14-.25.31-.47.46-.7a6.34,6.34,0,0,1,.51-.65l.6-.58a13.47,13.47,0,0,1,2.7-1.82,12.46,12.46,0,0,1,6-1.39,18.51,18.51,0,0,1,5.83,1.12.16.16,0,0,1,.09.2.16.16,0,0,1-.15.1h0a20.06,20.06,0,0,0-5.64.07,11.76,11.76,0,0,0-4.91,2,7.6,7.6,0,0,0-1.78,1.8,9.69,9.69,0,0,0-.72,1,10.78,10.78,0,0,0-.7,1,26.1,26.1,0,0,0-2.44,4.88.15.15,0,0,1-.21.09A.14.14,0,0,1,204.82,505.44Z"/><path class="cls-5" d="M205.91,511.37a10.84,10.84,0,0,1,2.29-3.84,8.9,8.9,0,0,1,4-2.45,8.29,8.29,0,0,1,1.19-.3,7.41,7.41,0,0,1,1.24-.18,5.57,5.57,0,0,1,2.46.4,5.75,5.75,0,0,1,3.35,3.44.17.17,0,0,1-.11.22h-.09c-1.59-.34-2.8-.62-4-.78-.59-.08-1.15-.2-1.74-.31a4.46,4.46,0,0,0-.89-.14,3.15,3.15,0,0,0-.92,0,8.11,8.11,0,0,0-3.56,1.25,11.24,11.24,0,0,0-3,2.83.17.17,0,0,1-.22,0A.16.16,0,0,1,205.91,511.37Z"/><path class="cls-5" d="M220.23,508.56a5.77,5.77,0,0,1-.22-5l.28-.6a6.49,6.49,0,0,1,.36-.55,4.87,4.87,0,0,1,.89-1,11.12,11.12,0,0,1,2.19-1.4,9.74,9.74,0,0,1,4.77-1,14,14,0,0,1,4.5,1,.14.14,0,0,1,.08.2.15.15,0,0,1-.15.09h0a15.39,15.39,0,0,0-4.31.2A8.86,8.86,0,0,0,225,502.1a5.32,5.32,0,0,0-1.26,1.38c-.18.25-.36.49-.51.74a7.57,7.57,0,0,0-.52.74,28.51,28.51,0,0,0-2.15,3.59.17.17,0,0,1-.23.07A.14.14,0,0,1,220.23,508.56Z"/></g></g><g id="Слой_4" data-name="Слой 4"><g class="cls-2"><path class="cls-4" d="M250,39.9,212.27,55.17a2.42,2.42,0,0,1-2.93-1L160-32.2c-1.47-2.58-1.3-5.3.41-6l62-25.07c1.71-.69,3.72,1.15,4.46,4L251.41,37.1A2.44,2.44,0,0,1,250,39.9Z"/><path class="cls-4" d="M242.34,31.73,212.12,44a2.09,2.09,0,0,1-2.46-1.13l-45-82.73,53.46-21.63,25.19,90.75A2.1,2.1,0,0,1,242.34,31.73Z"/><path class="cls-4" d="M223.34-112,210.91-71.55l26.88,102a1.4,1.4,0,0,1-1,1.71l-5.14,1.35a1.4,1.4,0,0,1-1.71-1L202.65-71.09l0-.14h0a1.39,1.39,0,0,1,0-.88l13-42.23a1.41,1.41,0,0,1,1.75-.93l5.07,1.56A1.4,1.4,0,0,1,223.34-112Z"/><circle class="cls-4" cx="197.52" cy="7.29" r="1.68"/><circle class="cls-4" cx="218.39" cy="23.44" r="4.06"/><circle class="cls-4" cx="211.22" cy="16.53" r="1.4"/><circle class="cls-4" cx="215.31" cy="8.39" r="2.66"/><circle class="cls-4" cx="196.63" cy="-2.76" r="2.66"/></g><g class="cls-2"><path class="cls-4" d="M669.44,39.9,631.68,55.17a2.44,2.44,0,0,1-2.94-1L579.41-32.2c-1.47-2.58-1.3-5.3.41-6l62-25.07c1.71-.69,3.72,1.15,4.45,4L670.82,37.1A2.45,2.45,0,0,1,669.44,39.9Z"/><path class="cls-4" d="M661.74,31.73,631.53,44a2.09,2.09,0,0,1-2.46-1.13l-45-82.73,53.47-21.63,25.19,90.75A2.1,2.1,0,0,1,661.74,31.73Z"/><path class="cls-4" d="M642.75-112,630.32-71.55l26.88,102a1.41,1.41,0,0,1-1,1.71l-5.14,1.35a1.39,1.39,0,0,1-1.7-1L622.05-71.09a.68.68,0,0,1,0-.14h0a1.39,1.39,0,0,1,0-.88l13-42.23a1.41,1.41,0,0,1,1.75-.93l5.08,1.56A1.41,1.41,0,0,1,642.75-112Z"/><circle class="cls-4" cx="616.93" cy="7.29" r="1.68"/><circle class="cls-4" cx="637.79" cy="23.44" r="4.06"/><circle class="cls-4" cx="630.62" cy="16.53" r="1.4"/><circle class="cls-4" cx="634.72" cy="8.39" r="2.66"/><circle class="cls-4" cx="616.03" cy="-2.76" r="2.66"/></g><g class="cls-2"><path class="cls-4" d="M188.39,734.93s-8.91-2.87-13.09.37-3.63,12.57-3.63,12.57-8.93-2.86-13.12.38-3.65,12.59-3.65,12.59-8.9-2.87-13.09.37-3.65,12.58-3.65,12.58-22.22-28.59,3-48.08S188.39,734.93,188.39,734.93Z"/><path class="cls-4" d="M154.9,760.84c-11.82-15.28-18.26-31.65-13.77-35.13"/><path class="cls-4" d="M171.67,747.87c-11.82-15.28-26-25.64-30.54-22.16"/><line class="cls-4" x1="158.55" y1="748.25" x2="194.7" y2="794.97"/><line class="cls-4" x1="136.08" y1="719.21" x2="141.05" y2="725.63"/><path class="cls-4" d="M250,839.9l-37.76,15.27a2.42,2.42,0,0,1-2.93-1L160,767.8c-1.47-2.58-1.3-5.3.41-6l62-25.07c1.71-.69,3.72,1.15,4.46,4l24.57,96.34A2.44,2.44,0,0,1,250,839.9Z"/><path class="cls-4" d="M242.34,831.73,212.12,844a2.09,2.09,0,0,1-2.46-1.13l-45-82.73,53.46-21.63,25.19,90.75A2.1,2.1,0,0,1,242.34,831.73Z"/><path class="cls-4" d="M223.34,688l-12.43,40.41,26.88,102a1.4,1.4,0,0,1-1,1.71l-5.14,1.35a1.4,1.4,0,0,1-1.71-1l-27.3-103.57,0-.14h0a1.39,1.39,0,0,1,0-.88l13-42.23a1.41,1.41,0,0,1,1.75-.93l5.07,1.56A1.4,1.4,0,0,1,223.34,688Z"/><path class="cls-4" d="M175.44,778.81c4-1.62,5.49,2,9.51.38s2.55-5.25,6.57-6.88,5.48,2,9.5.38,2.55-5.26,6.57-6.88,5.49,2,9.5.37,2.55-5.25,6.57-6.88"/><circle class="cls-4" cx="207.32" cy="788.24" r="4.47"/><circle class="cls-4" cx="203.59" cy="778.29" r="1.68"/><circle class="cls-4" cx="196.63" cy="797.24" r="2.66"/></g><g class="cls-2"><path class="cls-4" d="M607.8,734.93s-8.91-2.87-13.1.37-3.63,12.57-3.63,12.57-8.93-2.86-13.11.38-3.65,12.59-3.65,12.59-8.91-2.87-13.09.37-3.65,12.58-3.65,12.58-22.22-28.59,3-48.08S607.8,734.93,607.8,734.93Z"/><path class="cls-4" d="M574.31,760.84c-11.83-15.28-18.27-31.65-13.77-35.13"/><path class="cls-4" d="M591.07,747.87c-11.82-15.28-26-25.64-30.53-22.16"/><line class="cls-4" x1="577.96" y1="748.25" x2="614.11" y2="794.97"/><line class="cls-4" x1="555.49" y1="719.21" x2="560.45" y2="725.63"/><path class="cls-4" d="M669.44,839.9l-37.76,15.27a2.44,2.44,0,0,1-2.94-1L579.41,767.8c-1.47-2.58-1.3-5.3.41-6l62-25.07c1.71-.69,3.72,1.15,4.45,4l24.58,96.34A2.45,2.45,0,0,1,669.44,839.9Z"/><path class="cls-4" d="M661.74,831.73,631.53,844a2.09,2.09,0,0,1-2.46-1.13l-45-82.73,53.47-21.63,25.19,90.75A2.1,2.1,0,0,1,661.74,831.73Z"/><path class="cls-4" d="M642.75,688l-12.43,40.41,26.88,102a1.41,1.41,0,0,1-1,1.71l-5.14,1.35a1.39,1.39,0,0,1-1.7-1L622.05,728.91a.68.68,0,0,1,0-.14h0a1.39,1.39,0,0,1,0-.88l13-42.23a1.41,1.41,0,0,1,1.75-.93l5.08,1.56A1.41,1.41,0,0,1,642.75,688Z"/><path class="cls-4" d="M594.85,778.81c4-1.62,5.48,2,9.5.38s2.55-5.25,6.57-6.88,5.49,2,9.51.38,2.55-5.26,6.56-6.88,5.49,2,9.51.37,2.55-5.25,6.57-6.88"/><circle class="cls-4" cx="626.72" cy="788.24" r="4.47"/><circle class="cls-4" cx="622.99" cy="778.29" r="1.68"/><circle class="cls-4" cx="616.03" cy="797.24" r="2.66"/></g><g class="cls-2"><path class="cls-4" d="M407.11,338.37s-4-8.48-9.18-9.34-11.68,5.9-11.68,5.9-4-8.49-9.21-9.35-11.71,5.9-11.71,5.9-4-8.48-9.18-9.34-11.7,5.9-11.7,5.9,5.81-35.74,37.24-30.56S407.11,338.37,407.11,338.37Z"/><path class="cls-4" d="M365.33,331.48c3.14-19.06,10.75-34.93,16.36-34"/><path class="cls-4" d="M386.25,334.93c3.14-19.06,1-36.53-4.56-37.45"/><line class="cls-4" x1="377.04" y1="325.58" x2="367.43" y2="383.87"/><line class="cls-4" x1="383.01" y1="289.36" x2="381.69" y2="297.36"/><path class="cls-4" d="M372.2,455l-36.9-17.26a2.42,2.42,0,0,1-1.23-2.86L363.71,340c.89-2.83,3-4.56,4.67-3.78l60.54,28.32c1.67.78,1.7,3.5.09,6l-53.83,83.59A2.43,2.43,0,0,1,372.2,455Z"/><path class="cls-4" d="M372.94,443.78,343.42,430a2.12,2.12,0,0,1-.86-2.57l30-89.29,52.24,24.44-49.31,80.23A2.11,2.11,0,0,1,372.94,443.78Z"/><path class="cls-4" d="M465.25,332.05l-38.06,18.4-56.38,89.11a1.41,1.41,0,0,1-1.93.44l-4.49-2.84a1.41,1.41,0,0,1-.44-1.93l57.28-90.52a.76.76,0,0,1,.08-.11h0a1.4,1.4,0,0,1,.63-.62l39.78-19.24a1.41,1.41,0,0,1,1.87.65l2.31,4.79A1.41,1.41,0,0,1,465.25,332.05Z"/><path class="cls-4" d="M366.15,358.76c3.93,1.84,2.27,5.38,6.2,7.22s5.58-1.71,9.51.13,2.27,5.38,6.19,7.22,5.59-1.72,9.51.12,2.27,5.38,6.2,7.22,5.59-1.71,9.51.13"/><circle class="cls-4" cx="380.95" cy="388.53" r="4.47"/><circle class="cls-4" cx="385.7" cy="379.02" r="1.68"/><circle class="cls-4" cx="360.33" cy="394.32" r="1.68"/><circle class="cls-4" cx="362.71" cy="420.6" r="4.06"/><circle class="cls-4" cx="362.88" cy="410.64" r="1.4"/><circle class="cls-4" cx="371.64" cy="408.1" r="2.66"/><circle class="cls-4" cx="367.08" cy="386.82" r="2.66"/></g></g><g id="Слой_6" data-name="Слой 6"><g class="cls-2"><path class="cls-4" d="M607.69,590.19l-99.1,58.19a6.12,6.12,0,0,1-5.53.3l-27-15.76c-2.24-1.3-2.35-3.44-.18-4.72L606,551.77c2.17-1.28,4-.14,4,2.45l.57,31.3A6,6,0,0,1,607.69,590.19Z"/><circle class="cls-4" cx="508" cy="629.03" r="8.21"/><circle class="cls-4" cx="529.94" cy="616.14" r="8.21"/><polygon class="cls-4" points="477.25 481.51 538.89 591.19 542.98 588.79 477.25 481.51"/><polygon class="cls-4" points="459.01 504.22 485.26 495.46 479.45 485.56 459.01 504.22"/><polygon class="cls-4" points="488.57 500.79 479.12 615.92 593.71 548.64 488.57 500.79"/></g><g class="cls-2"><path class="cls-4" d="M288.88,255.5l-101-54.87a6.09,6.09,0,0,1-3.1-4.58l-.46-31.3c0-2.59,1.74-3.79,3.95-2.59l132.65,72.09c2.21,1.2,2.17,3.35,0,4.72l-26.51,16.64A6,6,0,0,1,288.88,255.5Z"/><circle class="cls-4" cx="204.18" cy="190.14" r="8.21"/><circle class="cls-4" cx="226.54" cy="202.29" r="8.21"/><polygon class="cls-4" points="314.68 87.68 252.53 197.08 256.7 199.34 314.68 87.68"/><polygon class="cls-4" points="285.82 83.78 306.86 101.75 312.35 91.66 285.82 83.78"/><polygon class="cls-4" points="304 107.32 200.5 158.63 317.26 222.09 304 107.32"/></g></g><g id="Слой_8" data-name="Слой 8"><path class="cls-1" d="M825,358.1c0,13.79-25,53.29-25,53.29s-25-39.5-25-53.29a25,25,0,1,1,49.92,0Z"/><circle class="cls-6" cx="800" cy="358.1" r="8.74"/><path class="cls-1" d="M825-44.16c0,13.78-25,53.29-25,53.29s-25-39.51-25-53.29a25,25,0,0,1,25-25A25,25,0,0,1,825-44.16Z"/><path class="cls-1" d="M25-44.16C25-30.38,0,9.13,0,9.13S-25-30.38-25-44.16a25,25,0,0,1,25-25A25,25,0,0,1,25-44.16Z"/><path class="cls-1" d="M25,755.84c0,13.78-25,53.29-25,53.29s-25-39.51-25-53.29a25,25,0,0,1,25-25A25,25,0,0,1,25,755.84Z"/><circle class="cls-6" cy="755.84" r="8.74"/><path class="cls-1" d="M825,755.84c0,13.78-25,53.29-25,53.29s-25-39.51-25-53.29a25,25,0,0,1,49.92,0Z"/><circle class="cls-6" cx="800" cy="755.84" r="8.74"/><path class="cls-1" d="M25,358.1c0,13.79-25,53.29-25,53.29s-25-39.5-25-53.29a25,25,0,0,1,25-25A25,25,0,0,1,25,358.1Z"/><circle class="cls-6" cy="358.1" r="8.74"/></g></svg>