<svg xmlns="http://www.w3.org/2000/svg" viewBox="0 0 800 800"><defs><style>.cls-1,.cls-3,.cls-4{fill:none;}.cls-1,.cls-3,.cls-4,.cls-6{stroke:#fff;stroke-width:3px;}.cls-1,.cls-3,.cls-6{stroke-miterlimit:10;}.cls-1,.cls-2,.cls-6{opacity:0.5;}.cls-4{stroke-linecap:round;stroke-linejoin:round;}.cls-5,.cls-6{fill:#fff;}</style></defs><title>3wтуризм</title><g id="Слой_1" data-name="Слой 1"><path class="cls-1" d="M53.09,334.24l.58,3.72L-3.84,359.9l20.68,24.65a44.84,44.84,0,0,1,6.28,9.37l24.5.93a2.65,2.65,0,0,1,2.94,2.26l.14,2.43-23.11,6.23c1.21,2.62,2.26,4.93,3,6.52a.69.69,0,0,1-1,.85c-1.42-1-3.47-2.38-5.8-4l-10,21.4L11.39,430a2.65,2.65,0,0,1-1.72-3.29l3.26-24a46,46,0,0,1-8.31-7.93l-20.69-24.66L-47.69,423l-3.57-1.21c-2-.67-2.93-3.4-2.12-6.1l19.71-66.54-13.2-15.73c-2.83-3.37-8.77-16-5.4-18.83s14.79,5.21,17.62,8.58l13.22,15.76,68.88-7.85C50.26,330.77,52.77,332.19,53.09,334.24Z"/><path class="cls-1" d="M853.09,334.24l.58,3.72L796.16,359.9l20.68,24.65a44.84,44.84,0,0,1,6.28,9.37l24.5.93a2.65,2.65,0,0,1,2.94,2.26l.14,2.43-23.11,6.23c1.21,2.62,2.26,4.93,3,6.52a.69.69,0,0,1-1,.85c-1.42-1-3.47-2.38-5.8-4l-10,21.4-2.36-.56a2.65,2.65,0,0,1-1.72-3.29l3.26-24a46,46,0,0,1-8.31-7.93l-20.69-24.66L752.31,423l-3.57-1.21c-2-.67-2.93-3.4-2.12-6.1l19.71-66.54-13.2-15.73c-2.83-3.37-8.77-16-5.4-18.83s14.79,5.21,17.62,8.58l13.22,15.76,68.88-7.85C850.26,330.77,852.77,332.19,853.09,334.24Z"/><path class="cls-1" d="M362.82,762.6l2.39-1,24.09,34.8,13.07-17.85a30.56,30.56,0,0,1,5.23-5.73l-3.4-16.52a1.82,1.82,0,0,1,1-2.33l1.59-.5,8,14.41c1.55-1.24,2.92-2.32,3.86-3.06a.48.48,0,0,1,.74.54c-.42,1.11-1,2.71-1.72,4.53l15.93,3.17,0,1.67a1.83,1.83,0,0,1-1.92,1.69l-16.53,1.75a31.68,31.68,0,0,1-3.94,6.85L398.15,802.9l40.5,12.44-.23,2.58c-.12,1.43-1.78,2.52-3.72,2.42L387,818.1l-8.34,11.39c-1.79,2.45-9.25,8.49-11.7,6.7s1.06-10.73,2.85-13.17l8.35-11.42-16.55-44.71C361,765.06,361.5,763.15,362.82,762.6Z"/><path class="cls-1" d="M362.82-37.4l2.39-1L389.3-3.59l13.07-17.85a30.56,30.56,0,0,1,5.23-5.73l-3.4-16.52a1.82,1.82,0,0,1,1-2.33l1.59-.5,8,14.41c1.55-1.24,2.92-2.32,3.86-3.06a.48.48,0,0,1,.74.54c-.42,1.11-1,2.71-1.72,4.53l15.93,3.17,0,1.67a1.83,1.83,0,0,1-1.92,1.69l-16.53,1.75A31.68,31.68,0,0,1,411.22-15L398.15,2.9l40.5,12.44-.23,2.58c-.12,1.43-1.78,2.52-3.72,2.42L387,18.1l-8.34,11.39c-1.79,2.45-9.25,8.49-11.7,6.7s1.06-10.73,2.85-13.17l8.35-11.42L361.64-33.11C361-34.94,361.5-36.85,362.82-37.4Z"/></g><g id="Слой_2" data-name="Слой 2"><g class="cls-2"><rect class="cls-3" x="526.04" y="513.43" width="137.92" height="90.02" rx="6.24" transform="translate(1337.35 897.27) rotate(161.35)"/><path class="cls-3" d="M553.46,494.88h48.06a0,0,0,0,1,0,0v18.49a2.89,2.89,0,0,1-2.89,2.89H556.35a2.89,2.89,0,0,1-2.89-2.89V494.88a0,0,0,0,1,0,0Z" transform="translate(1286.34 799.89) rotate(161.35)"/><path class="cls-3" d="M562.75,501.92h31.8a0,0,0,0,1,0,0v12.23a1.91,1.91,0,0,1-1.91,1.91h-28a1.91,1.91,0,0,1-1.91-1.91V501.92a0,0,0,0,1,0,0Z" transform="translate(1289.69 806.2) rotate(161.35)"/><rect class="cls-3" x="617.31" y="503.46" width="14.47" height="90.02" transform="translate(1391.7 868.4) rotate(161.35)"/><circle class="cls-3" cx="615.81" cy="522.58" r="7.23"/><circle class="cls-3" cx="633.29" cy="574.36" r="7.23"/><circle class="cls-3" cx="624.55" cy="548.47" r="7.23"/><rect class="cls-3" x="558.52" y="523.3" width="14.47" height="90.02" transform="translate(1283.55 925.85) rotate(161.35)"/><circle class="cls-3" cx="557.02" cy="542.42" r="7.23"/><circle class="cls-3" cx="574.5" cy="594.21" r="7.23"/><circle class="cls-3" cx="565.76" cy="568.31" r="7.23"/><path class="cls-3" d="M649.41,587.1h3.86a2.89,2.89,0,0,1,2.89,2.89v3.22a0,0,0,0,1,0,0h-9.65a0,0,0,0,1,0,0V590A2.89,2.89,0,0,1,649.41,587.1Z" transform="translate(1457.21 941.01) rotate(161.35)"/><path class="cls-3" d="M567.78,614.66h3.86a2.89,2.89,0,0,1,2.89,2.89v3.22a0,0,0,0,1,0,0h-9.65a0,0,0,0,1,0,0v-3.22A2.89,2.89,0,0,1,567.78,614.66Z" transform="translate(1307.04 1020.78) rotate(161.35)"/></g><g class="cls-2"><rect class="cls-3" x="108.04" y="183.93" width="137.92" height="90.02" rx="6.24" transform="translate(417.92 389.26) rotate(161.35)"/><path class="cls-3" d="M135.46,165.38h48.06a0,0,0,0,1,0,0v18.49a2.89,2.89,0,0,1-2.89,2.89H138.35a2.89,2.89,0,0,1-2.89-2.89V165.38A0,0,0,0,1,135.46,165.38Z" transform="translate(366.91 291.88) rotate(161.35)"/><path class="cls-3" d="M144.75,172.42h31.8a0,0,0,0,1,0,0v12.23a1.91,1.91,0,0,1-1.91,1.91h-28a1.91,1.91,0,0,1-1.91-1.91V172.42a0,0,0,0,1,0,0Z" transform="translate(370.26 298.18) rotate(161.35)"/><rect class="cls-3" x="199.31" y="173.96" width="14.47" height="90.02" transform="translate(472.28 360.39) rotate(161.35)"/><circle class="cls-3" cx="197.81" cy="193.08" r="7.23"/><circle class="cls-3" cx="215.29" cy="244.86" r="7.23"/><circle class="cls-3" cx="206.55" cy="218.97" r="7.23"/><rect class="cls-3" x="140.52" y="193.8" width="14.47" height="90.02" transform="translate(364.13 417.83) rotate(161.35)"/><circle class="cls-3" cx="139.02" cy="212.92" r="7.23"/><circle class="cls-3" cx="156.5" cy="264.71" r="7.23"/><circle class="cls-3" cx="147.76" cy="238.81" r="7.23"/><path class="cls-3" d="M231.41,257.6h3.86a2.89,2.89,0,0,1,2.89,2.89v3.22a0,0,0,0,1,0,0h-9.65a0,0,0,0,1,0,0v-3.22A2.89,2.89,0,0,1,231.41,257.6Z" transform="translate(537.79 433) rotate(161.35)"/><path class="cls-3" d="M149.78,285.16h3.86a2.89,2.89,0,0,1,2.89,2.89v3.22a0,0,0,0,1,0,0h-9.65a0,0,0,0,1,0,0V288a2.89,2.89,0,0,1,2.89-2.89Z" transform="translate(387.61 512.77) rotate(161.35)"/></g><g class="cls-2"><rect class="cls-3" x="533.39" y="187.86" width="124.13" height="81.02" rx="5.62" transform="translate(108.81 -183.81) rotate(19.28)"/><path class="cls-3" d="M592.71,171.33h38a2.6,2.6,0,0,1,2.6,2.6v16.64a0,0,0,0,1,0,0H590.11a0,0,0,0,1,0,0V173.94a2.6,2.6,0,0,1,2.6-2.6Z" transform="translate(94.07 -191.85) rotate(19.28)"/><path class="cls-3" d="M598.07,177.66h25.18a1.72,1.72,0,0,1,1.72,1.72v11a0,0,0,0,1,0,0H596.35a0,0,0,0,1,0,0v-11A1.72,1.72,0,0,1,598.07,177.66Z" transform="matrix(0.94, 0.33, -0.33, 0.94, 95.02, -191.32)"/><rect class="cls-3" x="562.45" y="178.59" width="13.02" height="81.02" transform="translate(104.26 -175.59) rotate(19.28)"/><circle class="cls-3" cx="577.08" cy="195.88" r="6.51"/><circle class="cls-3" cx="560.84" cy="242.31" r="6.51"/><circle class="cls-3" cx="568.96" cy="219.1" r="6.51"/><rect class="cls-3" x="615.16" y="197.03" width="13.02" height="81.02" transform="translate(113.31 -191.96) rotate(19.28)"/><circle class="cls-3" cx="629.8" cy="214.32" r="6.51"/><circle class="cls-3" cx="613.55" cy="260.75" r="6.51"/><circle class="cls-3" cx="621.67" cy="237.54" r="6.51"/><path class="cls-3" d="M540.09,253.6h8.68a0,0,0,0,1,0,0v2.89a2.6,2.6,0,0,1-2.6,2.6H542.7a2.6,2.6,0,0,1-2.6-2.6V253.6a0,0,0,0,1,0,0Z" transform="translate(115.19 -165.4) rotate(19.28)"/><path class="cls-3" d="M613.29,279.2H622a0,0,0,0,1,0,0v2.89a2.6,2.6,0,0,1-2.6,2.6H615.9a2.6,2.6,0,0,1-2.6-2.6V279.2A0,0,0,0,1,613.29,279.2Z" transform="translate(127.75 -188.13) rotate(19.28)"/></g><g class="cls-2"><rect class="cls-3" x="116.39" y="521.36" width="124.13" height="81.02" rx="5.62" transform="translate(195.54 -27.41) rotate(19.28)"/><path class="cls-3" d="M175.71,504.83h38a2.6,2.6,0,0,1,2.6,2.6v16.64a0,0,0,0,1,0,0H173.11a0,0,0,0,1,0,0V507.44A2.6,2.6,0,0,1,175.71,504.83Z" transform="translate(180.8 -35.45) rotate(19.28)"/><path class="cls-3" d="M181.07,511.16h25.18a1.72,1.72,0,0,1,1.72,1.72v11a0,0,0,0,1,0,0H179.35a0,0,0,0,1,0,0v-11a1.72,1.72,0,0,1,1.72-1.72Z" transform="matrix(0.94, 0.33, -0.33, 0.94, 181.75, -34.92)"/><rect class="cls-3" x="145.45" y="512.09" width="13.02" height="81.02" transform="translate(191 -19.18) rotate(19.28)"/><circle class="cls-3" cx="160.08" cy="529.38" r="6.51"/><circle class="cls-3" cx="143.84" cy="575.81" r="6.51"/><circle class="cls-3" cx="151.96" cy="552.6" r="6.51"/><rect class="cls-3" x="198.16" y="530.53" width="13.02" height="81.02" transform="translate(200.04 -35.55) rotate(19.28)"/><circle class="cls-3" cx="212.8" cy="547.82" r="6.51"/><circle class="cls-3" cx="196.55" cy="594.25" r="6.51"/><circle class="cls-3" cx="204.67" cy="571.04" r="6.51"/><path class="cls-3" d="M123.09,587.1h8.68a0,0,0,0,1,0,0V590a2.6,2.6,0,0,1-2.6,2.6H125.7a2.6,2.6,0,0,1-2.6-2.6V587.1a0,0,0,0,1,0,0Z" transform="translate(201.92 -8.99) rotate(19.28)"/><path class="cls-3" d="M196.29,612.7H205a0,0,0,0,1,0,0v2.89a2.6,2.6,0,0,1-2.6,2.6H198.9a2.6,2.6,0,0,1-2.6-2.6V612.7A0,0,0,0,1,196.29,612.7Z" transform="translate(214.48 -31.73) rotate(19.28)"/></g></g><g id="Слой_3" data-name="Слой 3"><g class="cls-2"><path class="cls-4" d="M657.51-54.2a.7.7,0,0,1,0,.14h0c-.64,2.27-8.27,30.54,2,65.45.23.79.46,1.58.72,2.37.46,1.45.94,2.92,1.47,4.39a23.53,23.53,0,0,1-6.61,2.63,25.17,25.17,0,0,1-6.94.25s-.44-1.6-1-4.43c-.16-.78-.32-1.67-.49-2.63C644.32.55,641.63-29.5,657.36-54h0C657.41-54,657.47-54.12,657.51-54.2Z"/><path class="cls-4" d="M647.69,21.45a32.36,32.36,0,0,1-7,5.16,29.74,29.74,0,0,1-8.55,2.55c-.42-1.22-.84-2.43-1.28-3.62-.15-.4-.29-.79-.45-1.18-16.8-44.75-47.91-67.82-50.37-69.6a1,1,0,0,0-.16-.11l.34.11h0C615.94-33,636.9.54,644.46,14.84c.42.8.8,1.53,1.13,2.2C647,19.81,647.69,21.45,647.69,21.45Z"/><path class="cls-3" d="M556.33,71.49s10.37,5.76,17.15,2.92,10-14.26,10-14.26,10.38,5.76,17.16,2.92a8.15,8.15,0,0,0,1.34-.7c5.86-3.64,8.63-13.56,8.63-13.56a31.41,31.41,0,0,0,3.4,1.58"/><path class="cls-3" d="M690.76,18.14A32.88,32.88,0,0,0,692,14.8s10.37,5.76,17.16,2.92,10-14.26,10-14.26,10.37,5.76,17.15,2.93,10-14.27,10-14.27"/><path class="cls-3" d="M576.43,81.59s10.38,5.76,17.16,2.92,10-14.26,10-14.26,10.37,5.76,17.15,2.93,10-14.26,10-14.26,10.37,5.75,17.16,2.92,10-14.26,10-14.26S668.18,53.34,675,50.5s10-14.26,10-14.26S695.3,42,702.09,39.16s10-14.26,10-14.26,10.37,5.76,17.15,2.93,10-14.27,10-14.27"/><path class="cls-3" d="M596.62,91.66s10.37,5.75,17.16,2.92,10-14.26,10-14.26,10.37,5.76,17.15,2.92,10-14.26,10-14.26,10.37,5.76,17.16,2.93,10-14.27,10-14.27,10.37,5.76,17.15,2.93,10-14.26,10-14.26,10.37,5.75,17.16,2.92,10-14.26,10-14.26"/><path class="cls-4" d="M690.76,18.14a33.12,33.12,0,0,1-2.65,5.18A14.39,14.39,0,0,1,682,29.06c-6.78,2.84-17.15-2.92-17.15-2.92s-3.19,11.42-10,14.26-17.16-2.92-17.16-2.92-3.19,11.42-10,14.26c-4.33,1.81-10.13.11-13.75-1.35,2.72-7.17,7.82-17.71,16.39-26,.16.39.3.78.45,1.18.44,1.19.86,2.4,1.28,3.62a29.74,29.74,0,0,0,8.55-2.55,32.36,32.36,0,0,0,7-5.16s-.69-1.64-2.1-4.41c-.33-.67-.71-1.4-1.13-2.2.71-.3,1.44-.59,2.17-.86.17,1,.33,1.85.49,2.63.56,2.83,1,4.43,1,4.43a25.17,25.17,0,0,0,6.94-.25,23.53,23.53,0,0,0,6.61-2.63c-.53-1.47-1-2.94-1.47-4.39-.26-.79-.49-1.58-.72-2.37C668.32,10.92,678.68,12.79,690.76,18.14Z"/></g><g class="cls-2"><path class="cls-4" d="M657.51,745.8a.7.7,0,0,1,0,.14h0c-.64,2.27-8.27,30.54,2,65.45.23.79.46,1.58.72,2.37.46,1.45.94,2.92,1.47,4.39a23.53,23.53,0,0,1-6.61,2.63,25.17,25.17,0,0,1-6.94.25s-.44-1.6-1-4.43c-.16-.78-.32-1.67-.49-2.63-2.31-13.43-5-43.48,10.73-67.94h0C657.41,746,657.47,745.88,657.51,745.8Z"/><path class="cls-4" d="M657.65,745.8l-30.22,25.31s-3.38-11.81,7.84-21.2S657.65,745.8,657.65,745.8Z"/><path class="cls-4" d="M673.53,775.87l-15.95-30.24a18.43,18.43,0,0,1,17.27,10.13A18.77,18.77,0,0,1,673.53,775.87Z"/><path class="cls-4" d="M692.56,744l-35,1.78s4-9.35,16.95-10S692.56,744,692.56,744Z"/><path class="cls-4" d="M673.15,723.93l-15.5,21.8s-5.49-8.06.27-16.15S673.15,723.93,673.15,723.93Z"/><path class="cls-4" d="M657.51,745.74,625,736.56s6.51-7.3,18.57-3.89S657.51,745.74,657.51,745.74Z"/><path class="cls-4" d="M647.69,821.45a32.36,32.36,0,0,1-7,5.16,29.74,29.74,0,0,1-8.55,2.55c-.42-1.22-.84-2.43-1.28-3.62-.15-.4-.29-.79-.45-1.18-16.8-44.75-47.91-67.82-50.37-69.6a1,1,0,0,0-.16-.11l.34.11h0c35.74,12.26,56.7,45.78,64.26,60.08.42.8.8,1.53,1.13,2.2C647,819.81,647.69,821.45,647.69,821.45Z"/><path class="cls-4" d="M579.72,754.75l49.46,1.4S623.32,741.9,605,741.38,579.72,754.75,579.72,754.75Z"/><path class="cls-4" d="M587.48,796.73l-7.83-42.19A23.13,23.13,0,0,0,570.53,778,23.54,23.54,0,0,0,587.48,796.73Z"/><path class="cls-4" d="M543.89,780.12l35.84-25.49s-11.19-6.13-24.49,3.33S543.89,780.12,543.89,780.12Z"/><path class="cls-4" d="M547.42,745.29l32.24,9.39s-.87-12.21-12.84-15.69S547.42,745.29,547.42,745.29Z"/><path class="cls-4" d="M579.8,754.59l24.87-34.34s-12.09-2.13-21.32,10.62S579.8,754.59,579.8,754.59Z"/><path class="cls-3" d="M690.76,818.14A32.88,32.88,0,0,0,692,814.8s10.37,5.76,17.16,2.92,10-14.26,10-14.26,10.37,5.76,17.15,2.93,10-14.27,10-14.27"/><circle class="cls-4" cx="662.28" cy="671.76" r="27.12"/><path class="cls-5" d="M564.31,702.52a17.07,17.07,0,0,1,3.77-5.7,13.82,13.82,0,0,1,6.16-3.5c.3-.08.59-.17.89-.24l.9-.14a10.34,10.34,0,0,1,1.84-.18,9.23,9.23,0,0,1,3.64.6,10,10,0,0,1,5.41,4.62.16.16,0,0,1-.07.22.17.17,0,0,1-.14,0,32,32,0,0,0-6.06-2c-1-.19-1.94-.38-2.92-.51a8.25,8.25,0,0,0-1.49-.13h-.76c-.25,0-.5.06-.75.08A13,13,0,0,0,569,698a17.71,17.71,0,0,0-4.47,4.69.15.15,0,0,1-.26-.14Z"/><path class="cls-5" d="M586.67,698.1a9.88,9.88,0,0,1,.32-7.39l.42-.88c.16-.28.36-.54.54-.81a9.29,9.29,0,0,1,.6-.77l.69-.69a15.17,15.17,0,0,1,3.15-2.18,15,15,0,0,1,7.13-1.73,22.6,22.6,0,0,1,7,1.23.15.15,0,0,1,.09.19.16.16,0,0,1-.16.11h0a23.77,23.77,0,0,0-6.79,0,14.42,14.42,0,0,0-6,2.28,10.44,10.44,0,0,0-2.23,2.17,13.21,13.21,0,0,0-.9,1.22,12.13,12.13,0,0,0-.84,1.27,25.53,25.53,0,0,0-2.69,6,.16.16,0,0,1-.2.1A.13.13,0,0,1,586.67,698.1Z"/><path class="cls-5" d="M588,705.22a13,13,0,0,1,2.81-4.5,10.76,10.76,0,0,1,4.8-2.83,9.6,9.6,0,0,1,1.41-.32,7.77,7.77,0,0,1,1.45-.18,6.9,6.9,0,0,1,2.88.47,7.18,7.18,0,0,1,4.08,3.86.17.17,0,0,1-.09.22h-.11a37.45,37.45,0,0,0-4.74-1.2l-2.16-.39a6,6,0,0,0-1.11-.13l-.57,0-.56.06a9.85,9.85,0,0,0-4.32,1.62,13.69,13.69,0,0,0-3.51,3.49.15.15,0,0,1-.21,0A.14.14,0,0,1,588,705.22Z"/><path class="cls-5" d="M605.15,701.84a7.16,7.16,0,0,1,0-5.84l.33-.7a7.22,7.22,0,0,1,.42-.65,5.59,5.59,0,0,1,.48-.61l.56-.54a12.57,12.57,0,0,1,2.52-1.68,11.6,11.6,0,0,1,5.62-1.26,16.68,16.68,0,0,1,5.38,1.09.14.14,0,0,1,.09.19.16.16,0,0,1-.16.1h0a18.41,18.41,0,0,0-5.2.11,11,11,0,0,0-4.49,1.83,7,7,0,0,0-1.6,1.66c-.23.3-.45.6-.65.91s-.44.61-.64.93a26.89,26.89,0,0,0-2.34,4.45.17.17,0,0,1-.22.09Z"/></g></g><g id="Слой_4" data-name="Слой 4"><g class="cls-2"><path class="cls-4" d="M409.39,327.52s-5.24-11.2-12.13-12.33S381.85,323,381.85,323s-5.27-11.2-12.16-12.34-15.45,7.79-15.45,7.79S349,307.24,342.12,306.1s-15.45,7.78-15.45,7.78,7.67-47.18,49.16-40.34S409.39,327.52,409.39,327.52Z"/><path class="cls-4" d="M354.24,318.43c4.14-25.16,14.19-46.11,21.59-44.89"/><path class="cls-4" d="M381.85,323c4.15-25.16,1.38-48.22-6-49.44"/><line class="cls-4" x1="369.69" y1="310.64" x2="357.01" y2="387.58"/><line class="cls-4" x1="377.57" y1="262.82" x2="375.83" y2="273.39"/><path class="cls-4" d="M363.3,481.45l-48.71-22.78a3.22,3.22,0,0,1-1.62-3.78L352.1,329.62c1.17-3.74,3.95-6,6.16-5L438.18,362c2.2,1,2.24,4.63.12,7.92L367.24,480.27A3.21,3.21,0,0,1,363.3,481.45Z"/><path class="cls-4" d="M364.28,466.67l-39-18.23a2.76,2.76,0,0,1-1.12-3.39L363.74,327.2l69,32.25-65.1,105.9A2.77,2.77,0,0,1,364.28,466.67Z"/><path class="cls-4" d="M486.13,319.17l-50.23,24.3L361.46,461.1a1.85,1.85,0,0,1-2.54.57L353,457.92a1.85,1.85,0,0,1-.57-2.55L428,335.89a.76.76,0,0,1,.11-.14s0,0,0,0a1.81,1.81,0,0,1,.83-.81l52.51-25.39a1.84,1.84,0,0,1,2.46.85l3.05,6.32A1.84,1.84,0,0,1,486.13,319.17Z"/><path class="cls-4" d="M355.32,354.44c5.18,2.42,3,7.1,8.18,9.53s7.37-2.26,12.55.16,3,7.11,8.18,9.53,7.37-2.25,12.56.17,3,7.11,8.17,9.53,7.38-2.26,12.56.17"/><circle class="cls-4" cx="374.85" cy="393.73" r="5.91"/><circle class="cls-4" cx="381.12" cy="381.18" r="2.21"/><circle class="cls-4" cx="347.63" cy="401.38" r="2.21"/><circle class="cls-4" cx="350.77" cy="436.06" r="5.35"/><circle class="cls-4" cx="351.01" cy="422.92" r="1.85"/><circle class="cls-4" cx="362.56" cy="419.57" r="3.51"/><circle class="cls-4" cx="356.54" cy="391.48" r="3.51"/></g></g><g id="Слой_6" data-name="Слой 6"><g class="cls-2"><path class="cls-4" d="M178.2,92.34,69.2,33A6.56,6.56,0,0,1,65.85,28l-.47-33.8c0-2.8,1.89-4.09,4.27-2.79l143.2,78c2.38,1.3,2.34,3.62,0,5.1l-28.65,18A6.56,6.56,0,0,1,178.2,92.34Z"/><circle class="cls-4" cx="86.79" cy="21.66" r="8.86"/><circle class="cls-4" cx="110.92" cy="34.81" r="8.86"/><polygon class="cls-4" points="206.22 -88.88 139 29.21 143.5 31.66 206.22 -88.88"/><polygon class="cls-4" points="194.68 -67.68 82.84 -12.36 208.88 56.28 194.68 -67.68"/></g><g class="cls-2"><path class="cls-4" d="M178.2,892.34,69.2,833a6.56,6.56,0,0,1-3.35-5l-.47-33.8c0-2.8,1.89-4.09,4.27-2.79l143.2,78c2.38,1.3,2.34,3.62,0,5.1l-28.65,18A6.56,6.56,0,0,1,178.2,892.34Z"/><polygon class="cls-4" points="206.22 711.12 139 829.21 143.5 831.65 206.22 711.12"/><polygon class="cls-4" points="175.06 706.87 197.77 726.3 203.7 715.41 175.06 706.87"/><polygon class="cls-4" points="194.68 732.32 82.84 787.64 208.88 856.28 194.68 732.32"/></g></g><g id="Слой_8" data-name="Слой 8"><path class="cls-1" d="M615.48,392.24c-11,0-42.63-20-42.63-20s31.6-20,42.63-20a20,20,0,1,1,0,39.94Z"/><circle class="cls-6" cx="615.48" cy="372.27" r="6.99"/><path class="cls-1" d="M806.2,105.54c11,8.29,27.57,52,27.57,52s-46.57-3.8-57.59-12.09a25,25,0,1,1,30-39.89Z"/><circle class="cls-6" cx="791.19" cy="125.48" r="8.74"/><path class="cls-1" d="M6.2,105.54c11,8.29,27.57,52,27.57,52s-46.57-3.8-57.59-12.09a25,25,0,0,1-4.94-34.95A25,25,0,0,1,6.2,105.54Z"/><circle class="cls-6" cx="-8.81" cy="125.48" r="8.74"/><path class="cls-1" d="M24,657.31C14.36,667.17-31.1,678-31.1,678s9.76-45.7,19.39-55.56A25,25,0,0,1,24,657.31Z"/><circle class="cls-6" cx="6.14" cy="639.87" r="8.74"/><path class="cls-1" d="M824,657.31C814.36,667.17,768.9,678,768.9,678s9.76-45.7,19.39-55.56A25,25,0,0,1,824,657.31Z"/><circle class="cls-6" cx="806.14" cy="639.87" r="8.74"/><path class="cls-1" d="M172.87,352.3c11,0,42.63,20,42.63,20s-31.6,20-42.63,20a20,20,0,0,1,0-39.94Z"/><circle class="cls-6" cx="172.87" cy="372.27" r="6.99"/><path class="cls-1" d="M420,163.17c0,11-20,42.63-20,42.63s-20-31.6-20-42.63a20,20,0,0,1,39.94,0Z"/><circle class="cls-6" cx="400" cy="163.17" r="6.99"/><path class="cls-1" d="M420,598.4c0-11-20-42.63-20-42.63s-20,31.6-20,42.63a20,20,0,0,0,39.94,0Z"/><circle class="cls-6" cx="400" cy="598.4" r="6.99"/></g></svg>