<?xml version="1.0" encoding="utf-8"?>
<!-- Generator: Adobe Illustrator 22.1.0, SVG Export Plug-In . SVG Version: 6.00 Build 0)  -->
<svg version="1.1" id="Слой_1" xmlns="http://www.w3.org/2000/svg" xmlns:xlink="http://www.w3.org/1999/xlink" x="0px" y="0px"
	 viewBox="0 0 250 50" style="enable-background:new 0 0 250 50;" xml:space="preserve">
<style type="text/css">
	.st0{fill:#D6E8FE;}
	.st1{fill:#E6F1FE;}
	.st2{fill:#EDF5FE;}
	.st3{fill:#E9F3FE;}
	.st4{fill:#E2EFFE;}
	.st5{fill:#EAF3FE;}
</style>
<g>
	<path class="st0" d="M150.9,39.3c-0.6,0-1.2,0-1.8,0c-1.6-2.7-3.8-2.8-6.9-2.7c-3.8,0.2-7.5,1.1-11.4,0.7c-4-0.4-7.8-1.5-11.9-1.3
		c-1,0-2-0.5-2.9-0.3c-5,1.1-10,0.3-15,0.2c-3.7-0.1-7.4-0.3-10.8,1.7c-0.8,0.5-1.5,0-2.1-0.5c-1-0.9-2.3-1.4-3.6-1
		c-2.3,0.7-4.7,0.4-7,0.4c-2.9,0-5.6,0.5-8.3,1.8c-2.1,1.1-4.4,1.5-5.8-1.3c-0.5-1-1.6-1.1-2.6-1c-3.7,0.2-7.4,0.1-11.1-0.2
		c-3.7,1-7.5,0.1-11.2,1.1c-0.4,0.1-0.9,0-0.9-0.4c0-0.3,0.2-0.7,0.4-1c1.3-1.8,3.5-2.2,5.2-2.3c1.8-0.1,3.3-0.8,5.1-0.8
		c-0.1-1.6-1-2-2.3-1.9c-1.3,0.1-2.5,0.1-3.8,0.2c-0.8,0.1-1.3-0.4-1.6-1c-0.3-0.9,0.5-0.9,1-1.1c0.5-0.2,0.9-0.5,0.8-1.1
		c-0.1-0.6-0.7-0.6-1.2-0.6c-2.1-0.1-4.2-1.2-6.4-0.3c-0.9,0.4-1.7-0.4-1.5-1.2c0.3-1-0.3-2.2,0.8-2.9c0.1-0.1,0.7,0.2,0.7,0.3
		c-0.1,3.3,2.2,1.8,3.6,1.8c1.6,0,3.3,0.6,4.8-0.5c0.4-0.7,0.6-1.4,0.1-2.1c-1.2-1.5-0.2-2.2,1.1-2.7c1.5-2.1,4.3-3.5,3.8-7.1
		c3.7,2.5,7.4,0.2,11,0.4c1.3,0.1,2.2-1.5,2.1-2.8c-0.1-1.5-1.6-1.1-2.7-1.1c-4.2,0-8.4,0-13.1,0c1-1.6,2.4-1.5,3.3-1.7
		c2.7-0.4,5.7,0.4,8.1-1.7c0.5-0.4,1.7-0.1,2.6,0.1c2.2,0.5,4.2,0.4,6.4-0.2c2.7-0.7,5.5,0.5,8.3,0.1c4-0.6,8.1,0.7,11.9-1.6
		c0.6-0.3,1.7,0.3,2.6,0.3c6.6,0.2,13.1-0.4,19.7-1c1.1-0.1,2-0.2,1.1,1.3c-0.7,1-0.2,1.7,0.8,1.4c3.2-1,6.1,1.3,9.2,0.7
		c2-0.4,4.2,0.4,5.9-1.1c0.1-0.1,0.4-0.2,0.6-0.1c3.9,1.3,8,0.6,12,1.2c2.3,0.4,4.4,1.1,6.3-0.7c0.2-0.2,0.5-0.4,0.8-0.4
		c4,0.8,7.9-0.2,11.8-0.3c6.2-0.2,12.4,0.7,18.7-0.6c2.7-0.6,5.8-0.3,8.7-0.4c4.8-0.1,9.9-0.8,14.4-0.1c6.1,0.9,12.1,0.2,18.1,0.7
		c1.2,0.1,2.4,0,3.5,0c0.7,0,1.7-0.8,2,0.4c0.2,0.8-0.8,0.9-1.3,1.4c-0.2,0.2-0.4,0.4-0.5,0.6c3.2,1.6,3.3,2.1,0.7,4.2
		c-0.1,0.1-0.5,0.2-0.5,0.3c1.1,4.2-2.6,2-3.9,3c-0.3,0.2-0.6,0.4-1.3,0.9c2.3,0.7,4.4,0.7,6.1,2.1c1.1,0.9,1.1,1.3,0.1,1.8
		c-3,1.4-4.9,5-8.9,4.3c-0.5-0.1-1,0.1-1.1,0.7c-0.1,0.8,0.5,0.9,1.2,1c3.3,0.2,6.6,2.3,10,0.3c0.4-0.3,1-0.1,1.2,0.5
		c0.2,0.5-0.2,0.8-0.6,0.9c-2.2,0.2-3.4,2.2-5.5,2.6c-0.6,1-1.4,1.3-2.4,0.6c-2-0.6-2.7,0.7-2.6,2.3c0.1,1.4-0.4,1.7-1.5,1.9
		c-1.9-2.4-3.8-2.4-6.4-0.8c-4.6,2.7-9.8,2.5-14.9,2.9c-2.7,0.2-5.3,0.6-7.7,1.7c-2.8,1.2-5.7,1.5-8.6,1.9c-0.8,0.1-1.5,0.2-2.2-0.4
		c-0.8-0.6,0.4-2.5-1-2.3c-3.3,0.4-6.7-2-9.8,0.5c-2.4,1.9-5.3,2-8.1,2.2C152,39.8,151.4,39.8,150.9,39.3z"/>
	<path class="st1" d="M61,35.2c1.5-0.1,2.8-0.1,3.4,1.9c0.8,2.6,2.9,1.3,4.1,0.7c4-2,8.1-2.7,12.4-1.7c0.5,0.1,1.1-0.2,1.6-0.5
		c1.4-0.7,3.2-1,4.3-0.2c3,2.6,5.6,0.5,8-0.5c2.2-0.8,4,0.3,5.9,0.4c6.7,0.4,13.3-0.5,20.1,0c4.2,0.3,8.3,1.7,12.6,1.4
		c1.8-0.1,3.6-0.9,5.5-1c2.3,0,4.7,0.5,7.1-0.6c0.9-0.4,2.4-0.4,2.2,1.6c-0.1,0.8,0.6,1.6,1,2.4c-3.7,1.6-7.9,0.5-11.7,1.8
		c-0.4,0.1-1.2-0.2-1.4,0.1c-2.6,2.6-5.7,0.8-8.6,0.9c-0.1,0-0.3,0-0.3,0c-2.3-2.9-5.6-1.7-8.5-2.1c-2.8-0.4-5.4-0.8-6.9,2.4
		c-0.4,0.9-1.3,1-1.4,0.1c-0.4-2.7-2.6-2.4-4.3-2.5c-1.9-0.2-3.9-0.2-5.9,0.3c-2.5,0.7-3.2-0.2-2.4-2.6c0.2-0.6,0.1-1-0.4-1.2
		c-0.9-0.4-1.8,0.1-1.8,0.9c-0.2,3.6-2.2,3.3-5,3.2C83.2,40.4,76,40,68.9,42.4c-1.7,0.6-3.5,0.5-5.2,0.5c-0.6,0-1.6,0.3-1.8-0.6
		c-0.2-1,0.9-1.2,1.5-1.5c0.3-0.2,0.8-0.2,1.1-0.2c0.7,0,1.8,1,2-0.1c0.3-1.4-1.1-0.8-1.9-0.9c-2.9-0.7-5.7-0.3-8.5,0.6
		c-2.2,0.7-2.7,0.1-2.3-2.1C56.2,37.2,58.9,37,61,35.2z"/>
	<path class="st2" d="M150.9,39.3c2.4-0.4,5-0.3,7.1-1.3c1.9-0.9,3.8-1.8,5.8-2.5c1.4-0.4,2.8-0.8,4,0.7c1.1,1.3,2.1,0,3-0.6
		c0.5-0.3,1.1-0.7,1.6-0.1c0.4,0.5-0.1,0.9-0.3,1.3c-1,1.8-0.7,2.4,1.6,2c3.4-0.5,6.6-1.3,9.9-2.4c4.3-1.4,8.8-1.3,13.3-1.7
		c3-0.3,5.8-1,8.3-2.6c3.5-2.1,4.5-1.9,6.1,1.9c-2.6-0.3-5.1-0.7-5.5,3.1c-0.1,1-1.3,0.9-2.2,1.1c-4.4,0.8-8.9,0.8-13.3,2.1
		c-1.4,0.4-2.7,0.4-2.2-1.7c0.1-0.7,0.5-1.8-0.7-1.9c-0.9,0-1.2,1-0.8,1.8c0.8,1.7-0.4,2-1.6,2.4c-3.8,1-7.7,1-11.6,1.4
		c-0.5,0-1.3,0-1.4-0.3c-1.1-3.2-3.9-0.9-5.7-1.9c-0.8-0.4-1.4,0.3-1.4,1c-0.1,2.9-1.2,2.2-2.8,1c-0.9-0.7-2.2-0.7-3.1,0
		c-2.5,2-5.3,1.1-7.9,0.7C147.7,42.2,151.7,40.5,150.9,39.3z"/>
	<path class="st3" d="M215.5,29.9c0.9,0.1,1.6-0.2,2.4-0.6c1.6,2.3,3.8,1.1,5.8,0.8c1-0.2,1.8-1.2,2.9-0.1c1.3,1.4-0.6,1.8-0.8,2.6
		c-0.2,0.6-0.2,1.4-1,1.7c-2.5-2.6-4.6-2.7-7.4,0.1c-1.3,1.2-2.6,1.8-5,1.5C215,34.3,218.3,33.4,215.5,29.9z"/>
	<path class="st1" d="M40.6,39.9c1.7-2.3,5.6,1.9,7.6-2c0.4-0.8,2-0.4,3,0.1c0.6,0.3,0.9,0.8,0.7,1.4c-0.3,1-1.3,1.1-2.1,1.3
		c-3.6,0.7-7.2,0.1-10.8,0.9c-0.7,0.2-1.9,0.2-1.8-0.9c0-1,1.2-0.8,1.9-0.8C39.4,39.9,39.7,39.9,40.6,39.9z"/>
	<path class="st4" d="M44.4,19.2c-0.4,0.7-1.8,1.1-0.6,2.3c1,1,0.1,1.7-0.5,2.4c0.3-2.8-2.1-2.2-3.6-2.8c-0.9-0.4-2.4,0.2-2.3-1.5
		c0.1-1.6,1.7-2.1,2.9-2.6c0.9-0.4,2.4-0.8,2.9,0.8C43.4,18.6,43.5,19.2,44.4,19.2z"/>
	<path class="st5" d="M61,35.2c0.1,0.5,0.7,1.5,0.1,1.5c-2.6-0.1-4.5,2.7-7.2,1.5c-0.8-1.8-2.8-1.4-4.1-2.4
		C53.4,34.6,57.2,35.6,61,35.2z"/>
</g>
</svg>
