<svg xmlns="http://www.w3.org/2000/svg" viewBox="0 0 1920.89 637"><defs><style>.a{fill:#ffd05e;}.b{fill:#f6c053;}.c{fill:#3b3b3b;}</style></defs><title>day</title><path class="a" d="M1917,278.5c0,3.4-.1,3.5-3.7,3.5-4.5.1-18.1,2-34.8,5-6.6,1.1-17.2,3-23.5,4.1s-13.1,2.3-15,2.6-8,1.3-13.5,2.3c-21.2,3.9-38.7,6.7-71,11.5-6,.8-13.5,2-16.5,2.5-7.7,1.3-33.8,4.6-51,6.5-35.8,3.8-47.3,4.6-75.5,5.2-42,.8-57.6-.6-116.5-10.8-3.6-.6-29-5.5-56.5-10.9-55.9-10.9-58.5-11.4-77.5-14.1-35.8-5.1-39-5.3-80.5-5.3-39.4,0-53.4.8-73,4.3-2.7.5-8.6,1.5-13,2.1-6.9,1-26.7,4.6-43,7.8-6,1.2-34.1,7.1-55.5,11.8C1030.2,321,993.9,326,956.5,326c-21.5,0-37-1.3-63.5-5.1-30.7-4.5-31.5-4.6-44.5-7.4-43.7-9.5-115.7-24.2-125-25.6-40-6-44.2-6.3-84.5-6.4-43.3,0-53.9.8-91,7.2-12.6,2.1-53.3,10.3-74,14.7-79.4,17.2-108.2,21.5-150,22.3-35.9.7-76.8-1.9-118-7.7-7.4-1-18.7-2.6-25-3.5s-16-2.4-21.5-3.4-15.8-2.9-23-4.1c-25.2-4.3-111.4-22.2-129.3-26.8L0,278.4V816H1920V545.5c0-239.8-.2-270.5-1.5-270.5C1917.5,275,1917,276.1,1917,278.5Z" transform="translate(0 -275)"/><path class="b" d="M1917,374.5c0,3.4-.1,3.5-3.7,3.5-4.5.1-18.1,2-34.8,5-6.6,1.1-17.2,3-23.5,4.1s-13.1,2.3-15,2.6-8,1.3-13.5,2.3c-21.2,3.9-38.7,6.7-71,11.5-6,.8-13.5,2-16.5,2.5-7.7,1.3-33.8,4.6-51,6.5-35.8,3.8-47.3,4.6-75.5,5.2-42,.8-57.6-.6-116.5-10.8-3.6-.6-29-5.5-56.5-10.9-55.9-10.9-58.5-11.4-77.5-14.1-35.8-5.1-39-5.3-80.5-5.3-39.4,0-53.4.8-73,4.3-2.7.5-8.6,1.5-13,2.1-6.9,1-26.7,4.6-43,7.8-6,1.2-34.1,7.1-55.5,11.8C1030.2,417,993.9,422,956.5,422c-21.5,0-37-1.3-63.5-5.1-30.7-4.5-31.5-4.6-44.5-7.4-43.7-9.5-115.7-24.2-125-25.6-40-6-44.2-6.3-84.5-6.4-43.3,0-53.9.8-91,7.2-12.6,2.1-53.3,10.3-74,14.7-79.4,17.2-108.2,21.5-150,22.3-35.9.7-76.8-1.9-118-7.7-7.4-1-18.7-2.6-25-3.5s-16-2.4-21.5-3.4-15.8-2.9-23-4.1c-25.2-4.3-111.4-22.2-129.3-26.8L0,374.4V912H1920V641.5c0-239.8-.2-270.5-1.5-270.5C1917.5,371,1917,372.1,1917,374.5Z" transform="translate(0 -275)"/><path class="c" d="M1920,771.61h-4l-11.7,1.3c-6.5.7-14.9,1.9-18.8,2.6-7.7,1.5-24.7,4.5-39.5,7-5.2.9-14,2.5-19.5,3.5-15.4,2.8-37.8,6.4-64,10.4-106.8,16.3-169.6,19.4-226.5,11.1-27.1-4-33.7-5.2-94.6-17.1-65.1-12.7-70.9-13.7-106.9-18.1-17.9-2.2-85.8-2.5-103-.5-20,2.4-36.4,4.9-59,9.2-8.2,1.5-17.7,3.3-21,3.9s-13.3,2.7-22.2,4.6c-63.2,13.6-71.7,15.4-78.8,16.4-3.3.5-11.2,1.8-17.5,2.9-48.8,8.6-90.2,9.4-136.5,2.8-25.7-3.7-38.4-6-82-15.3-53.8-11.4-93.3-18.9-110.5-21.2-25.6-3.4-30-3.6-66-3.6-55,0-72.3,2.3-165.5,22.1-32.1,6.8-64.2,13.3-74,14.8-5.5.9-12.7,2.1-16,2.6-6.7,1.1-20.1,2.7-34.5,4-30.9,2.9-93.3-.2-142.5-7-8.2-1.2-21.1-3-28.5-4s-16.9-2.6-21-3.4-13.1-2.4-20-3.6c-22.9-4.1-74.6-14.6-110-22.4-6.3-1.4-14-3.1-17-3.7a38.37,38.37,0,0,1-7.2-2C.1,768,0,771.7,0,840v72H1920V838.5c0-72.8,2-56.25,0-56.25C1920,782.25,1921.5,778,1920,771.61Z" transform="translate(0 -275)"/></svg>