<svg xmlns="http://www.w3.org/2000/svg" xmlns:xlink="http://www.w3.org/1999/xlink" viewBox="0 0 782.5 366.7"><defs><linearGradient id="a" x1="-15.65" y1="530.82" x2="816.74" y2="142.68" gradientUnits="userSpaceOnUse"><stop offset="0.19" stop-color="#dd0024"/><stop offset="0.33" stop-color="#e00a24"/><stop offset="0.57" stop-color="#e82325"/><stop offset="0.87" stop-color="#f54d27"/><stop offset="1" stop-color="#fb6228"/></linearGradient><linearGradient id="b" x1="-196.18" y1="870.09" x2="888.6" y2="364.25" xlink:href="#a"/><linearGradient id="c" x1="-299.61" y1="936.79" x2="907.67" y2="373.83" xlink:href="#a"/><linearGradient id="d" x1="-313.3" y1="644.64" x2="1117.42" y2="-22.51" xlink:href="#a"/><linearGradient id="e" x1="18.8" y1="609.06" x2="801.83" y2="243.92" xlink:href="#a"/><linearGradient id="f" x1="-81.32" y1="768.18" x2="869.42" y2="324.84" xlink:href="#a"/><linearGradient id="g" x1="-19.87" y1="817.33" x2="800.76" y2="434.67" xlink:href="#a"/><linearGradient id="h" x1="-392.11" y1="940.61" x2="1029.69" y2="277.61" xlink:href="#a"/><linearGradient id="i" x1="-335.25" y1="1021.56" x2="830.16" y2="478.12" xlink:href="#a"/><linearGradient id="j" x1="-670.74" y1="975.27" x2="1078.66" y2="159.51" xlink:href="#a"/><linearGradient id="k" x1="-310.78" y1="987.62" x2="852.3" y2="445.27" xlink:href="#a"/><linearGradient id="l" x1="-620.95" y1="843.59" x2="932.77" y2="119.08" xlink:href="#a"/><linearGradient id="m" x1="-290.92" y1="952.66" x2="867.19" y2="412.63" xlink:href="#a"/><linearGradient id="n" x1="-96.78" y1="742.01" x2="798.66" y2="324.46" xlink:href="#a"/><linearGradient id="o" x1="-160.79" y1="656.84" x2="1026.83" y2="103.04" xlink:href="#a"/><linearGradient id="p" x1="-41.64" y1="581.36" x2="1227.44" y2="-10.42" xlink:href="#a"/><linearGradient id="q" x1="7.97" y1="463.67" x2="711.54" y2="135.59" xlink:href="#a"/><linearGradient id="r" x1="-14.18" y1="542.85" x2="1258.01" y2="-50.38" xlink:href="#a"/><linearGradient id="s" x1="-95.28" y1="525.91" x2="883.53" y2="69.48" xlink:href="#a"/><linearGradient id="t" x1="143.18" y1="498.7" x2="788.12" y2="197.96" xlink:href="#a"/><linearGradient id="u" x1="-55.77" y1="605.49" x2="1119.99" y2="57.22" xlink:href="#a"/><linearGradient id="v" x1="9.89" y1="587.36" x2="805.52" y2="216.36" xlink:href="#a"/><linearGradient id="w" x1="-25.29" y1="342.26" x2="1003.93" y2="-137.68" xlink:href="#a"/><linearGradient id="x" x1="-77.66" y1="585.66" x2="974.45" y2="95.06" xlink:href="#a"/><linearGradient id="y" x1="-158.71" y1="510.17" x2="1119.33" y2="-85.79" xlink:href="#a"/><linearGradient id="z" x1="-137.35" y1="725.01" x2="1034.25" y2="178.68" xlink:href="#a"/><linearGradient id="aa" x1="-182.29" y1="562.19" x2="1027.65" y2="-2.02" xlink:href="#a"/><linearGradient id="ab" x1="-115.17" y1="481.02" x2="994.66" y2="-36.51" xlink:href="#a"/><linearGradient id="ac" x1="-76.36" y1="636.68" x2="1061.68" y2="106.01" xlink:href="#a"/></defs><title>logo</title><path d="M550.7,239.4H520.1v-.3c0-.4-.1-.8-.1-1.2V211.6a1.3,1.3,0,0,1,1.6-1.6h87.3a2.6,2.6,0,0,1,1.5.3c.2.2.3.7.3,1.6-.1,6.3-.1,12.8-.1,19.1v8.3H580.1v82.6c0,1.6-.4,2.2-2,2.7l-18.4,5.3-8,2.4-.9.2h-.1Z" transform="translate(-9.4 -199.8)" style="fill:url(#a)"/><path d="M608.9,209.5v1c.8,0,1,.1,1.1.2s.2.3.2,1.2c-.1,6.3-.1,12.8-.1,19.1,0,2.3.1,4.5.1,6.8v.9H579.6v83.1c0,1.4-.3,1.8-1.6,2.2-6.2,1.7-12.4,3.6-18.4,5.4l-8,2.3h-.4v-93H520.6c0-.3-.1-.7-.1-1V211.6a2.8,2.8,0,0,1,.1-1h88.3v-1m0,0H521.6c-1.7,0-2.1.4-2.1,2.1.1,8.8,0,17.6,0,26.3a16.8,16.8,0,0,0,.2,2h30.5v93.2l1.7-.3,26.3-7.8c1.8-.4,2.4-1.2,2.4-3.1-.1-26.5,0-53,0-79.5v-2.6h30.6v-2c0-8.6-.1-17.3,0-25.9,0-1.8-.4-2.4-2.3-2.4Z" transform="translate(-9.4 -199.8)" style="fill:#fff"/><path d="M548.7,565.9c-6.8,0-11.4-1.8-15-5.8a16.9,16.9,0,0,1-4.6-11.5c-.1-18.8-.1-35.5,0-51.1,0-9.4,7.9-17.2,17.6-17.5h1c8.3,0,14.1,3.2,17.8,10,1.7,3.1,2.4,8.2,1.7,12.6H558a7.6,7.6,0,0,1-.1-1.5,31.5,31.5,0,0,0-.3-4.4c-.6-3.9-3-6.4-6.8-6.9h-2.5a18.4,18.4,0,0,0-4.1.4,7.7,7.7,0,0,0-5.6,7.7c-.1,18.3-.1,34.7,0,50.2a8.1,8.1,0,0,0,8.4,8.3h4c4.3-.9,6.8-4.2,6.8-8.8s.1-10.7.1-16.1v-6.6l9.4-1h0c0,.3.1.6.1.8,0,2.6-.1,5.2-.1,7.8-.1,5.4-.1,10.9,0,16.4.1,8.4-7.8,16.6-16.4,17Z" transform="translate(-9.4 -199.8)" style="fill:url(#b)"/><path d="M547.7,480.5c8.1,0,13.8,3.2,17.4,9.7,1.5,2.9,2.2,7.7,1.7,11.9h-8.4V501a33.7,33.7,0,0,0-.3-4.4,8.1,8.1,0,0,0-7.2-7.3h-2.6a19.3,19.3,0,0,0-4.2.4,8.3,8.3,0,0,0-6,8.2c-.1,18.4-.1,34.8,0,50.2a8.7,8.7,0,0,0,8.9,8.8h1.8a9,9,0,0,0,2.2-.2c4.5-.8,7.3-4.4,7.3-9.2s.1-10.6.1-16.1v-6.1l7.3-.8h1.1a.4.4,0,0,1,.1.3c0,2.6-.1,5.2-.1,7.8-.1,5.4-.1,10.9,0,16.4.1,8-7.7,16.1-15.9,16.5h-2.2c-6.6,0-11.2-1.8-14.6-5.7a16.3,16.3,0,0,1-4.5-11.1c-.1-18.8-.1-35.5,0-51.1,0-9.1,7.7-16.7,17.1-17h1m0-1h-1c-10.2.3-18.1,8.7-18.1,18-.1,17-.1,34,0,51.1a17.4,17.4,0,0,0,4.7,11.8c4.2,4.7,9.6,6,15.4,6h2.2c9-.4,17-9.1,16.9-17.5s0-16.1.1-24.2c0-.4-.2-.9-.2-1.4l-10.3,1.1c0,7.9,0,15.5-.1,23.1,0,4.4-2.4,7.5-6.4,8.3H547a7.6,7.6,0,0,1-7.9-7.8c-.1-16.7-.1-33.5,0-50.2a7.3,7.3,0,0,1,5.2-7.2,18.1,18.1,0,0,1,4-.4h2.5c3.6.5,5.8,2.8,6.3,6.5a62.6,62.6,0,0,1,.4,6.3h10.2c.7-4.5.1-10-1.8-13.4-3.9-7.3-10.2-10.2-18.2-10.2Z" transform="translate(-9.4 -199.8)" style="fill:#fff"/><path d="M588.1,563.7V491.6H577.5v-1.7c0-2.6,0-5,.1-7.4a2.6,2.6,0,0,1,1.2-.5h29v9.4H597.6v72.3Z" transform="translate(-9.4 -199.8)" style="fill:url(#c)"/><path d="M589.3,482.5h18v8.4H597.1v72.3h-8.5V491.1H578v-1.2c0-2.5,0-4.8.1-7.1a1.3,1.3,0,0,1,.7-.3h10.5m0-1H578.8c-.6,0-1.7.5-1.7.9-.1,3.1-.1,6.3-.1,9.7h10.6v72.1h10.5V491.9h10.2V481.5h-19Z" transform="translate(-9.4 -199.8)" style="fill:#fff"/><polygon points="361.3 363.8 361.3 282.3 391.4 282.3 391.4 291.6 370.8 291.6 370.8 326.7 389.4 324.9 389.4 334.4 370.8 336.2 370.8 354.6 391.4 354.6 391.4 363.8 361.3 363.8" style="fill:url(#d)"/><path d="M400.3,482.6v8.3H379.6v36.2h1.1l7.2-.7,10.3-1v8.5l-7.2.7-10.5,1h-.9v19.3h20.7v8.3H371.1V482.6h29.2m1-1H370.1v82.6h31.2V553.9H380.6V536.5l18.6-1.8V524.2L380.6,526V491.9h20.7V481.6Z" transform="translate(-9.4 -199.8)" style="fill:#fff"/><path d="M432.9,456.9c-9.7,0-17.6-1.7-24.6-5.4-16.2-8.5-26-21.3-28.9-38a88.9,88.9,0,0,1-1.1-14.8c-.1-2.1-.1-4.3-.2-6.6l29.8-3.1v.4a4.9,4.9,0,0,0,0,1.7c.1,1.6.1,3.3.1,4.9a60.6,60.6,0,0,0,1,11.2c2.1,9.8,11.4,18.1,22.1,19.6a24.2,24.2,0,0,0,4.5.4,27.1,27.1,0,0,0,19.3-8,24.6,24.6,0,0,0,7.6-17.1c.2-9.1.1-18.3.1-27.2v-2.2c0-1.3.4-1.7,1.6-2l21.1-5.2,6.5-1.6v.2a6.2,6.2,0,0,1,.1,1.3v11c.1,9,.1,18.3,0,27.5a51.5,51.5,0,0,1-13.1,34.8c-8.9,10-19.1,15.8-30.5,17.1a132.1,132.1,0,0,1-15.3,1.1Z" transform="translate(-9.4 -199.8)" style="fill:url(#e)"/><path d="M491.3,364.6v11.8c.1,9,.1,18.3,0,27.5a51.1,51.1,0,0,1-13,34.5c-8.7,9.9-18.9,15.6-30.2,16.9a130.3,130.3,0,0,1-15.2,1.1c-9.6,0-17.4-1.7-24.4-5.4-16.1-8.3-25.7-21-28.6-37.6a87.6,87.6,0,0,1-1.1-14.7c-.1-2-.1-4-.2-6.1l15.7-1.6,13.1-1.4a3.8,3.8,0,0,0,0,1.5c.1,1.6.1,3.3.1,4.9a61.7,61.7,0,0,0,1,11.3c2.2,10.1,11.6,18.5,22.6,20a22.8,22.8,0,0,0,4.5.4,27.6,27.6,0,0,0,19.7-8.2,24.8,24.8,0,0,0,7.7-17.4c.2-9.1.1-18.3.1-27.1v-2.3c0-1.1.2-1.3,1.2-1.5l21.2-5.2,5.9-1.4m.9-1.3L464,370.2a2.1,2.1,0,0,0-2,2.5c.1,9.8.2,19.6,0,29.4a23.9,23.9,0,0,1-7.4,16.7,26.7,26.7,0,0,1-19,7.9,22.5,22.5,0,0,1-4.4-.4c-10.2-1.4-19.6-9.2-21.7-19.2-1.1-5.2-.8-10.7-1.1-16a22.5,22.5,0,0,1,0-2.6l-30.9,3.2c.4,7.5.1,14.8,1.4,21.9,3.1,17.6,13.5,30.2,29.1,38.3,8,4.2,16.4,5.5,24.9,5.5a131.2,131.2,0,0,0,15.3-1.1c12.5-1.4,22.6-7.8,30.9-17.2s13.1-21.9,13.2-35.2,0-25.6,0-38.5c0-.6-.1-1.3-.1-2.1Z" transform="translate(-9.4 -199.8)" style="fill:#fff"/><path d="M466.5,563.8h-6.9a46,46,0,0,1-6.4-.5l-2.8-.3h-.3l-.5.3a2.1,2.1,0,0,1-1,.4H427.3c-7.4,0-15.1-7.1-15.9-14.5a60.8,60.8,0,0,1-.3-6.1V483.9a7.2,7.2,0,0,1,.1-1.8h8.4q.8,0,.9.3a1.9,1.9,0,0,1,.3,1.3v61.9c0,5.3,2.9,8.5,8.1,8.9h11V483.9a7.7,7.7,0,0,1,.1-1.9,4.5,4.5,0,0,1,2-.2h5.6a3.7,3.7,0,0,1,1.8.2,7.7,7.7,0,0,1,.1,1.9V534c0,1.2.1,2.4.1,3.6s0,5.3-.1,7.9a8.2,8.2,0,0,0,2.1,6.1,9.1,9.1,0,0,0,6.4,2.8h10.6V481.9h9.3v81.9H466.5Z" transform="translate(-9.4 -199.8)" style="fill:url(#f)"/><path d="M445,482.3h4V534c0,1.2.1,2.4.1,3.6s0,5.3-.1,7.9a9.2,9.2,0,0,0,2.2,6.5,9.7,9.7,0,0,0,6.8,2.9h11.1V482.4h8.3v80.9H459.6a44.6,44.6,0,0,1-6.3-.5l-2.9-.3h-.5l-.6.4-.7.3H427.3c-7.1,0-14.6-6.9-15.4-14.1a57.4,57.4,0,0,1-.3-6V482.5h8.6a2.8,2.8,0,0,1,.1,1v61.9c0,5.6,3.1,9,8.6,9.4h11.5V482.4H445m0-1h-3c-2.6,0-2.6,0-2.6,2.6v70H429c-5-.3-7.7-3.4-7.7-8.4V521.5c0-12.7-.1-25.3,0-38,0-1.5-.4-2.1-1.7-2.1h-6.5c-2.5,0-2.5,0-2.5,2.4v59.2c0,2.1.1,4.1.3,6.2.9,7.6,8.7,14.9,16.4,14.9h21.3a3.4,3.4,0,0,0,1.7-.8c3.1.3,6.2.8,9.3.8h18.8V481.4H468.1v72.5h-10c-5.3-.2-8.3-4-8.1-8.3s0-7.7,0-11.6V483.9c0-2.6,0-2.6-2.4-2.6Z" transform="translate(-9.4 -199.8)" style="fill:#fff"/><path d="M727.6,469.1l1.5-1.5a23.3,23.3,0,0,0,3.7-4.6,24.3,24.3,0,0,0,1.6-5.6,15.5,15.5,0,0,1,.4-2.1l1.7.2,6.8.9c.2.1.6.5.6.7s-.1,1.4-.2,2.1c-.4,3.2-.8,6.6-2.9,9.2a48.1,48.1,0,0,1-5.4,5.7l-2.1,2.2Z" transform="translate(-9.4 -199.8)" style="fill:url(#g)"/><path d="M735.2,455.9h1.3l6.7.9c0,.1.2.2.2.3s-.1,1.3-.2,1.9c-.4,3.4-.7,6.5-2.7,9a71.8,71.8,0,0,1-5.4,5.7l-1.8,1.7-4.2-5.2-.9-1.1,1.2-1.3a19.1,19.1,0,0,0,3.8-4.7,21,21,0,0,0,1.7-5.7l.3-1.6m-.8-1.1c-.7,2.8-.9,5.6-2.1,8s-3.5,4.2-5.4,6.3l6.3,7.9a102.3,102.3,0,0,0,8-8.2c2.7-3.4,2.7-7.7,3.2-11.7.1-.3-.6-1.1-1-1.2l-9-1.1Z" transform="translate(-9.4 -199.8)" style="fill:#fff"/><path d="M488.4,563.6h-.1V483.7c-.1-.8,0-1.2.3-1.5a1.9,1.9,0,0,1,1.3-.3h28.8v9.5H498.1v35l18.6-1.8v9.6L498.1,536v18.4h20.6v9.2Z" transform="translate(-9.4 -199.8)" style="fill:url(#h)"/><path d="M489.9,482.4h28.3V491H497.6v36.1h1.1l13.4-1.3,4.1-.4v8.5l-4.6.4-13.1,1.3h-.9v19.3h20.6v8.2H488.8V483.7c-.1-.9.1-1.1.1-1.1s.2-.2,1-.2h0m0-1c-1.7,0-2.2.6-2.1,2.3v78.6c0,.6.1,1.2.1,1.8h31.3V553.9H498.6V536.5l18.6-1.8V524.2L498.6,526V492h20.6V481.6H489.9Z" transform="translate(-9.4 -199.8)" style="fill:#fff"/><path d="M738,563.8h-6.3c-8.5-.1-16.6-8.1-16.6-16.5-.1-16.4,0-32.8,0-49.1V482h8.6c.2.1.7.6.7.8.1,1.7,0,3.4,0,5.1v57.5c0,5,2.8,8.3,7.6,8.8l4.2.2h7.4V483.8a6.3,6.3,0,0,1,.1-1.8c.2-.2.9-.2,1.9-.2H752l1,.2a1.4,1.4,0,0,1,.2,1.2v80.6Z" transform="translate(-9.4 -199.8)" style="fill:url(#i)"/><path d="M752,482.3h.6s.2.1.1.8v80.1h-21c-8.3-.1-16.1-7.8-16.1-16-.1-16.2,0-32.7,0-48.7V482.5h8l.3.4c.1,1.7,0,3.4,0,5v57.5c0,5.2,3.1,8.8,8,9.3l4.3.2h7.9V482.4H752m0-1h-6.4c-2.5,0-2.5,0-2.5,2.5v70h-6.9l-4.2-.2c-4.5-.5-7.1-3.7-7.1-8.3V489.7c0-2.3.1-4.6,0-6.9a1.8,1.8,0,0,0-1.1-1.3h-9.1a9.2,9.2,0,0,0-.1,1.6c0,21.4-.1,42.8,0,64.2,0,8.7,8.3,16.9,17.1,17h22V494.9c0-3.9-.1-7.8,0-11.7.1-1.4-.4-1.9-1.7-1.9Z" transform="translate(-9.4 -199.8)" style="fill:#fff"/><path d="M578.5,450.8H552.2c-.8,0-1.2-.1-1.4-.3a2.2,2.2,0,0,1-.3-1.4c.1-29.7.1-61.5,0-100.3,0-1.2.2-1.7,1.2-2l19.7-6.4,8.3-2.7h.3v.2c0,.4.1.9.1,1.3V449.1c0,.8-.1,1.2-.3,1.4a1.7,1.7,0,0,1-1.2.3Z" transform="translate(-9.4 -199.8)" style="fill:url(#j)"/><path d="M579.5,338.3c0,.3.1.6.1.9V449.1a4,4,0,0,1-.1,1.1H552.1c-.7,0-.9-.1-.9-.2s-.2-.2-.2-1c.1-30,.1-61.9,0-100.3,0-1.1.2-1.3.9-1.5l19.6-6.4,8-2.6m.9-1.2-.9.2-27.9,9a2.2,2.2,0,0,0-1.6,2.5c.1,33.4.1,66.9,0,100.3,0,1.6.4,2.2,2.1,2.2h26.5c1.6,0,2-.6,2-2.2V339.2a18.3,18.3,0,0,0-.2-2.1Z" transform="translate(-9.4 -199.8)" style="fill:#fff"/><path d="M691,563.8h-9c-7.7-.3-15.3-8.3-15.3-16.1-.1-15-.1-30.2-.1-44.9V483c0-.3,0-.8.2-.9s.2-.1.5-.1H676v62.8c0,6.2,3.4,9.6,9.5,9.6h9.8V483.7a2.9,2.9,0,0,1,.3-1.7,1.3,1.3,0,0,1,1-.3h6.9c.5,0,.9,0,1,.2s.4.7.4,1.6c-.1,20.7-.1,41.8-.1,62.1v18H691Z" transform="translate(-9.4 -199.8)" style="fill:url(#k)"/><path d="M696.6,482.2h7.6s.2.2.2,1.2c-.1,20.7-.1,41.7-.1,62.1v17.6H682c-7.4-.3-14.8-8.1-14.8-15.6-.1-14.9-.1-30.1-.1-44.7V483c0-.1,0-.4.1-.5h8.3v62.3c0,6.4,3.6,10.1,10,10.1h10.3V483.7c0-.9.1-1.3.2-1.3s.2-.2.6-.2m0-1c-1.6,0-1.8.9-1.8,2.6v70.1h-9.3c-5.8,0-9-3.2-9-9.1V481.5h-9.2c-1.1,0-1.2.7-1.2,1.5q0,32.3.1,64.6c0,8.1,7.8,16.3,15.8,16.6h23.3v-3.8q0-38.4.1-76.8c0-1.6-.4-2.3-1.9-2.3h-6.9Z" transform="translate(-9.4 -199.8)" style="fill:#fff"/><path d="M639,210.1h29.3V228c0,19.2,0,38.5.1,57.7a2.3,2.3,0,0,1-1.4,2.4l-19.3,9.6-8.2,4.1H639Z" transform="translate(-9.4 -199.8)" style="fill:url(#l)"/><path d="M667.8,210.6v17.7c0,18.8,0,38.3.1,57.4a1.7,1.7,0,0,1-1.2,1.9l-19.3,9.6-7.9,4V210.6h28.3m.9-1H638.5v93l1.2-.4,27.5-13.7a2.6,2.6,0,0,0,1.7-2.8q-.1-37-.1-74.2a12.8,12.8,0,0,0-.1-1.9Z" transform="translate(-9.4 -199.8)" style="fill:#fff"/><path d="M618.2,563.8V483.6c0-.9.1-1.3.3-1.5a1.9,1.9,0,0,1,1.3-.3h19.1a17.7,17.7,0,0,1,17.5,17.5V505c0,3.8-.1,7.8,0,11.8s-1.3,8.9-4.5,12l-.3.3.3.4c6,6.7,5.2,14.8,3.6,21.9s-8.6,12.4-16.4,12.4H618.2Zm19.6-9.4h.9c4.6-.4,7.5-3,8.1-7.2a24.8,24.8,0,0,0,.1-7.2,6.9,6.9,0,0,0-7.2-6.2h-.5c-3.4.2-6.8.5-9.7.9-.7.1-1.7,1-1.7,1.7-.1,4.6-.1,9.1-.1,14v4h10.1Zm-9.9-29.1h.5l4.1-.4c3.2-.3,6.2-.5,9.3-1a6,6,0,0,0,5.2-6.3c.1-5.2.1-11.5,0-17.9-.1-4.2-3.2-7.8-7-8l-4.5-.2h-7.6Z" transform="translate(-9.4 -199.8)" style="fill:url(#m)"/><path d="M619.8,482.3h19.1a17.2,17.2,0,0,1,17,17V505c0,3.8-.1,7.8,0,11.8s-1.3,8.6-4.3,11.6l-.7.7.6.7c5.9,6.6,5.1,14.5,3.6,21.4s-8.4,12.1-16,12.1H618.7V483.6a5.5,5.5,0,0,1,.1-1.2h1m7.6,43.5h1.1l4.1-.4c3.2-.3,6.2-.5,9.2-1a6.6,6.6,0,0,0,5.7-6.8c.1-5.3.1-11.5,0-17.9-.1-4.5-3.4-8.3-7.5-8.5l-4.5-.2h-8.1v34.8m-.2,29.1h11.6c4.8-.5,7.8-3.2,8.5-7.6a26.2,26.2,0,0,0,.1-7.4,7.3,7.3,0,0,0-7.7-6.6h-.5c-3.4.2-6.8.5-9.8.9a2.7,2.7,0,0,0-2.1,2.2c-.1,4.6-.1,9.1-.1,13.9v4.6m-7.4-73.6c-1.7,0-2.1.6-2.1,2.3v80.7h21.4c7.8,0,15.2-5.3,16.9-12.8s2.2-15.7-3.7-22.4c3.5-3.4,4.7-7.6,4.6-12.3s0-11.7,0-17.5a18.2,18.2,0,0,0-18-18H619.8Zm8.6,43.4V492h7.1l4.5.2c3.6.2,6.4,3.6,6.5,7.6.1,5.9.1,11.9,0,17.8a5.5,5.5,0,0,1-4.8,5.8c-4.4.7-8.7,1-13.3,1.4Zm4.5,29.2h-4.7c0-6,0-11.8.1-17.5a1.8,1.8,0,0,1,1.2-1.2c3.3-.4,6.5-.8,9.8-.9h.4a6.3,6.3,0,0,1,6.7,5.8,23.5,23.5,0,0,1-.1,7c-.6,4.1-3.4,6.4-7.6,6.8h-5.8Z" transform="translate(-9.4 -199.8)" style="fill:#fff"/><path d="M639,450.7v-20q0-57.3-.1-114.6a2.4,2.4,0,0,1,1.6-2.5l20.1-10.1,7.6-3.9h.1v32.7h.7a171.8,171.8,0,0,1,24.5-3.4l8-.8,2.5-.3a77.5,77.5,0,0,1,9.6-.7h.1c9.8,0,18.5,3.6,25.9,10.6a39.7,39.7,0,0,1,9.8,14.4,30.5,30.5,0,0,1,2.4,10.3c.3,9.4.4,19,.4,28.2,0,2.3,0,4.6.1,6.9.1,13.2-4,24.7-12.1,34.1-9.9,11.5-21.3,17.6-34.8,18.9a56,56,0,0,1-6,.3H639Zm73.1-94.3c-1.5,0-3,.2-4.4.3h-.2l-9.4,1c-5.1.6-10.4,1.2-15.6,1.5-8.8.6-14.6,8.4-14.2,15.1.1,2.6.1,5.2.1,7.7s-.1,2.3-.1,3.4v35.8h20l11.4-.2c13.4-.3,23.1-10.3,23-23.9,0-2.7,0-5.5-.1-8.2s-.1-5.8-.1-8.6.1-5.4.1-8,.1-4.1.2-6.2a9.6,9.6,0,0,0-7.8-9.7A12.9,12.9,0,0,0,712.1,356.4Z" transform="translate(-9.4 -199.8)" style="fill:url(#n)"/><path d="M667.8,300.4v32.5l1.3-.2a172.4,172.4,0,0,1,24.4-3.4l8.1-.8,2.5-.3a74.3,74.3,0,0,1,9.4-.7h.2a36.2,36.2,0,0,1,25.5,10.4,39.2,39.2,0,0,1,9.7,14.2,30.5,30.5,0,0,1,2.4,10.2c.3,9.4.4,19,.4,28.3,0,2.2,0,4.5.1,6.8.1,13.1-4,24.5-12,33.8-9.8,11.3-21.1,17.5-34.4,18.7a56,56,0,0,1-6,.3H639.5V430.4c0-37.5,0-76.2-.1-114.3,0-1.2.3-1.5,1.4-2.1l20-10.1,7-3.5M688.3,422l11.4-.2c13.7-.3,23.6-10.5,23.5-24.4,0-2.7,0-5.5-.1-8.2s-.1-5.8-.1-8.6.1-5.4.1-8,.1-4.1.2-6.2a10.1,10.1,0,0,0-8.2-10.2,13.9,13.9,0,0,0-3-.3c-1.5,0-3,.2-4.4.3h-.3l-9.3,1c-5.1.6-10.4,1.2-15.6,1.5-9.2.6-15.1,8.7-14.7,15.7.1,2.5.1,5.1.1,7.6s-.1,2.3-.1,3.4v36.3h20.5M668.8,298.9l-.9.3-27.6,13.9a2.8,2.8,0,0,0-1.9,3q.1,66.4.1,133v2.1h60.9c2,0,4.1-.1,6.1-.3,14.4-1.3,25.8-8.3,35.1-19.1s12.3-21.5,12.2-34.4-.1-23.4-.5-35.1a31.5,31.5,0,0,0-2.4-10.5,40.5,40.5,0,0,0-10-14.6c-7.4-7-16.1-10.7-26.2-10.7h-.2c-4,0-8,.6-12,1-10.9,1.2-21.8,1.7-32.7,4.2V298.9ZM688.3,421H668.8V385.4c0-3.7.2-7.4,0-11.1-.4-6.4,5.1-14.1,13.8-14.6s16.6-1.7,24.9-2.5l4.6-.3,2.8.2a9.3,9.3,0,0,1,7.4,9.3c-.1,4.7-.3,9.4-.3,14.2s.2,11.2.2,16.8c.1,13.2-9.4,23.1-22.5,23.4l-11.4.2Z" transform="translate(-9.4 -199.8)" style="fill:#fff"/><path d="M322.1,450.8a1.7,1.7,0,0,1-1.2-.3,2.9,2.9,0,0,1-.2-1.2v-48c0-1,.1-1.3,1.2-1.5l19.2-3.4,7.7-1.4H350v55.8H322.1Z" transform="translate(-9.4 -199.8)" style="fill:url(#o)"/><path d="M349.5,395.4v54.8H321.3a2.4,2.4,0,0,1-.1-.9v-48c0-.8,0-.9.8-1l19.2-3.4,7.7-1.4h.6m1-1.1-1.8.2c-8.9,1.6-17.9,3.3-26.9,4.8-1.3.3-1.6.8-1.6,2v48c0,1.6.5,2,1.9,2h28.4V394.3Z" transform="translate(-9.4 -199.8)" style="fill:#fff"/><path d="M58.2,563.7V499.1c0-9.1,7.9-17.2,17-17.3H95c.5,0,1,0,1.2.2a2,2,0,0,1,.2.9q-.2,31.2-.1,62.4v18.3H86.8v-72h-8l-4.8.2c-3.7.4-6.5,4.2-6.5,8.8v63.2Z" transform="translate(-9.4 -199.8)" style="fill:url(#p)"/><path d="M82.3,482.3H95.8s.1.1.1.5c-.1,20.7-.1,41.8-.1,62.1v18.1H87.3v-72H78.8l-4.9.2c-3.9.5-6.8,4.4-6.9,9.3v62.7H58.7V499.1c0-8.8,7.7-16.7,16.5-16.8h7.1m0-1H75.2c-9.4.1-17.5,8.5-17.5,17.8v65.1H68V500.5c0-4.1,2.5-7.9,6.1-8.3a36.2,36.2,0,0,1,4.7-.2h7.5v72H96.7a2,2,0,0,0,.1-.7q0-40.2.1-80.5c0-1.4-.7-1.6-1.9-1.6H82.3Z" transform="translate(-9.4 -199.8)" style="fill:#fff"/><path d="M43.8,450.7H10.2v-9.9L112,430.2l-.9,1.1c-1.2,1.4-2.3,2.7-3.5,3.9-7,7-14.3,11.4-22.3,13.4a58.4,58.4,0,0,1-14.2,2Z" transform="translate(-9.4 -199.8)" style="fill:url(#q)"/><path d="M110.9,430.8l-.2.2c-1.2,1.4-2.3,2.7-3.4,3.8-7,7-14.2,11.4-22.1,13.3a58.3,58.3,0,0,1-14.1,2H10.7v-8.9l11.1-1.2,89.1-9.3m2.3-1.3L9.7,440.4v10.8H71.1a64.1,64.1,0,0,0,14.4-2c8.8-2.2,16.1-7.2,22.5-13.6a66.1,66.1,0,0,0,5.2-6Z" transform="translate(-9.4 -199.8)" style="fill:#fff"/><path d="M9.9,563.7V481.9h9.2v43.4l10.7-1h.8l1.2-.2c4.3-.2,6.6-2.7,6.6-6.9V483.9c0-1,0-1.7.2-1.9s.9-.2,1.9-.2h6.3a1.7,1.7,0,0,1,.9.2,1.4,1.4,0,0,1,.2.9v13.7c0,7.3,0,14.8-.1,22.2,0,3.6-1.5,7-4.5,10.1l-.3.3.3.4a15.6,15.6,0,0,1,4.4,9.2,16.8,16.8,0,0,1,.2,2v22.8H38.4V542.1c0-5.4-2.7-8.3-7.7-8.3h-.9l-7,.7-3.3.4h-.4v28.8Z" transform="translate(-9.4 -199.8)" style="fill:url(#r)"/><path d="M46.8,482.3h.5a2.2,2.2,0,0,1,.1.6v13.7c0,7.3,0,14.8-.1,22.2a13.7,13.7,0,0,1-4.3,9.7l-.7.7.7.7a15.1,15.1,0,0,1,4.2,8.9,16.8,16.8,0,0,1,.2,2v22.3H38.9v-21c0-5.7-2.9-8.8-8.2-8.8h-1l-7,.7-3.2.4h-.9v28.8H10.4V482.4h8.2v43.4h1.1l2.7-.2,7.4-.7h.9l1.2-.2c4.4-.2,7-2.9,7-7.4V483.9a5.8,5.8,0,0,1,.1-1.5h7.8m0-1H40.5c-2.6,0-2.6,0-2.6,2.6v33.2c0,4-2.2,6.2-6.1,6.4l-2.1.3-10.1.9V481.4H9.4v82.8H19.6V535.4c3.5-.4,6.8-.9,10.2-1.1h.9c4.7,0,7.2,2.7,7.2,7.8v22H48.4V540.8a14.9,14.9,0,0,0-.2-2.1,16,16,0,0,0-4.5-9.5,14.7,14.7,0,0,0,4.6-10.4c.1-11.9.1-23.9.1-35.9,0-1.3-.5-1.6-1.6-1.6Z" transform="translate(-9.4 -199.8)" style="fill:#fff"/><path d="M405.4,362.7a5.7,5.7,0,0,1-2.7-.6c-13.5-6.1-21.5-16-23.8-29.6a31,31,0,0,1-.5-5.4V210.5h29.5V324.8c0,5.6,3.3,10.3,8,11a8.6,8.6,0,0,0,2.3.2,31.1,31.1,0,0,0,4.3-.3h1.2l10-1.1c4.4-.5,8.9-1.1,13.4-1.5a16.8,16.8,0,0,0,15.4-16.2c.1-11.2.1-22.6.1-33.6V211.8a1.9,1.9,0,0,1,.3-1.5,2.2,2.2,0,0,1,1.4-.3h25.8c1.1,0,1.4.2,1.5.3a2.4,2.4,0,0,1,.3,1.5c-.1,43.9-.1,88.9,0,133.5,0,1.3-.4,1.7-1.6,1.9l-14.8,3-22.7,4.4c-8.7,1.7-17.7,3.2-26.3,4.7l-7.8,1.4c-4.4.7-8.4,1.4-12.4,1.9Z" transform="translate(-9.4 -199.8)" style="fill:url(#s)"/><path d="M490.2,210.5h1c.1.1.2.3.2,1.2-.1,44.4-.1,89.3,0,133.5,0,1.1-.2,1.3-1.2,1.5l-14.8,2.9-22.7,4.5c-8.7,1.6-17.7,3.2-26.3,4.6l-7.8,1.4c-4.4.8-8.4,1.4-12.4,1.9h-.8a6.6,6.6,0,0,1-2.5-.5c-13.5-6.1-21.2-15.7-23.5-29.3a28.9,28.9,0,0,1-.5-5.3v-116h28.5V324.8c0,5.9,3.5,10.7,8.4,11.5a9.7,9.7,0,0,0,2.4.2,30,30,0,0,0,4.3-.3h1.2l10-1.1,13.4-1.5c8.9-.8,15.8-8.2,15.9-16.7.1-11.2.1-22.6.1-33.6V211.8a2.5,2.5,0,0,1,.1-1.2h27m0-1H464.3c-1.8,0-2.3.6-2.2,2.4v59.9c0,15,0,30-.1,45-.1,8.1-6.8,15-15,15.7l-23.4,2.6a49,49,0,0,1-5.4.4,8.2,8.2,0,0,1-2.2-.2c-4.5-.7-7.6-5.4-7.6-10.5V210H377.9V327.1a34.1,34.1,0,0,0,.5,5.5c2.5,14.4,11,24.1,24,30a7.7,7.7,0,0,0,3,.6h.9c4.2-.5,8.4-1.2,12.5-1.9,11.4-2,22.8-3.9,34.1-6.1s25-4.9,37.5-7.4c1.5-.2,2-.9,2-2.4q-.1-66.7,0-133.5c0-1.7-.4-2.3-2.2-2.3Z" transform="translate(-9.4 -199.8)" style="fill:#fff"/><path d="M746.1,223.4h-.4c-4-1.1-7.9-2.4-11.5-3.6a2.7,2.7,0,0,1-1-.6h-.1l.7-.7a9.3,9.3,0,0,1,2.4-2.1,9.8,9.8,0,0,1,4.5-1.5h.1c3.6.1,7.3.4,10.8.7l3.9.3h.4l-1.7,1.5c-2.4,2-4.6,3.9-6.9,5.7a2.5,2.5,0,0,1-1.2.4Z" transform="translate(-9.4 -199.8)" style="fill:url(#t)"/><path d="M740.7,215.2h.1c3.6.1,7.3.4,10.8.7l3.1.3-.9.7-6.8,5.7a1.2,1.2,0,0,1-.9.3h-.3c-3.9-1.1-7.8-2.4-11.4-3.6l-.6-.3.3-.3a13.7,13.7,0,0,1,2.3-2,10.1,10.1,0,0,1,4.3-1.4m0-1a9.8,9.8,0,0,0-4.8,1.6c-1.3.7-2.3,2.1-3.6,3.3a8.7,8.7,0,0,0,1.8,1.1l11.4,3.6h.6a2.7,2.7,0,0,0,1.5-.5c3.1-2.4,6-5,9.4-7.8a8.5,8.5,0,0,0-1.5-.4c-4.9-.4-9.8-.9-14.7-1Z" transform="translate(-9.4 -199.8)" style="fill:#fff"/><path d="M125.6,565.9c-3.4,0-7.3-.3-10.8-2.8-5.7-3.9-8.3-8.9-8.2-15.2v-3.6l9.5-1v3.4a9.6,9.6,0,0,0,9.5,9.6h.1a9.7,9.7,0,0,0,9.7-9.5c.1-2.8.1-5.7,0-8.5v-5.2h-.5l-4.9.5c-3.5.4-7.1.8-10.7.9H119c-6.6,0-12.4-5.9-12.4-12.7V482.3h9.5v37.9c0,3.4,1.2,4.8,4,4.8h1.4l7.6-.8c4.3-.4,6.3-2.7,6.3-6.9V482h8.7a1.5,1.5,0,0,1,.6.9,25.3,25.3,0,0,1,.1,2.8v62.4a17.4,17.4,0,0,1-17.2,17.7Z" transform="translate(-9.4 -199.8)" style="fill:url(#u)"/><path d="M139.4,482.5h4.5a.5.5,0,0,1,.3.4,25.3,25.3,0,0,1,.1,2.8v62.4a17,17,0,0,1-16.7,17.2h-2c-3.3,0-7.1-.3-10.5-2.7-5.5-3.8-8.1-8.7-8-14.8v-3.2l6.1-.6,2.4-.3v2.9a10.1,10.1,0,0,0,10,10.1h.1a10.2,10.2,0,0,0,10.2-9.9c.1-2.9.1-5.8,0-8.6v-5.8h-1.1l-4.8.5c-3.5.4-7.2.8-10.7.9H119c-6.3,0-11.9-5.7-11.9-12.2v-39h8.5v37.4c0,1.3,0,5.3,4.5,5.3h1.5l7.6-.8c4.4-.5,6.7-3,6.7-7.4V482.5h3.5m0-1h-4.5v35.7c0,3.9-1.9,6-5.8,6.4l-7.6.8h-1.4c-2.5,0-3.5-1.2-3.5-4.3V481.8H106.1v40c0,7,5.9,13.2,12.9,13.2h.3c5.2-.2,10.4-.9,15.6-1.4v.9c0,4.1.1,8.2,0,12.3a9.1,9.1,0,0,1-9.2,9h-.1a9.2,9.2,0,0,1-9-9.1v-4l-10.5,1.1v4.1c-.2,6.8,3,11.9,8.4,15.7,3.4,2.3,7.2,2.8,11.1,2.8h2a18,18,0,0,0,17.7-18.2V486.8a26.7,26.7,0,0,0-.1-4,1.8,1.8,0,0,0-1.1-1.3Z" transform="translate(-9.4 -199.8)" style="fill:#fff"/><path d="M761.5,232.5l-.7.5-2.3,1.9a28.7,28.7,0,0,1-4.6,3.4c-4.7,2.9-9.5,5.5-14.3,7.9a5.8,5.8,0,0,1-2.6.6,7.8,7.8,0,0,1-4.1-1.4c-2.9-1.9-6-3.6-8.9-5.4l-3.3-1.9A5,5,0,0,1,725,236h.7l3.5.2a32.5,32.5,0,0,1,4.4.3h1.3c3.3,0,5.7-1.7,7.6-3.4l17.4-14.8,5.6-4.8,3-2.6c3.1-2.6,6.2-5.3,9.4-7.8a13.1,13.1,0,0,1,8.3-2.9l2,.2a4.3,4.3,0,0,1,2.2,1l.9.6v2.7c-1.7,3.5-4.7,6.1-7.7,8.6l-1.9,1.7-2.2,1.8a41.5,41.5,0,0,0-3.2,2.7,6.2,6.2,0,0,0-1.8,3.6c-.5,5.1-.9,10.3-1.3,15.3l-.3,4.4-.2,2.6c-.3,2.7-.5,5.5-.7,8.3s-2.2,4.6-4.4,6.3l-1.4,1H766Z" transform="translate(-9.4 -199.8)" style="fill:url(#v)"/><path d="M786.2,200.8l1.9.2a4.9,4.9,0,0,1,2.1,1l.6.4v2.2c-1.7,3.5-4.5,5.9-7.5,8.4l-1.9,1.7-2.3,1.8c-1,.9-2.2,1.8-3.2,2.8a7.2,7.2,0,0,0-1.9,3.9c-.5,5.1-.9,10.3-1.3,15.3l-.3,4.4a21.1,21.1,0,0,0-.2,2.5c-.3,2.8-.5,5.6-.7,8.4s-2,4.2-4.2,5.9l-.9.6-4.3-27.1-.3-1.6-1.3,1-2.3,1.9a33.2,33.2,0,0,1-4.5,3.4c-4.7,2.8-9.5,5.5-14.3,7.8a4.8,4.8,0,0,1-2.4.6,7.2,7.2,0,0,1-3.9-1.3c-2.9-1.9-5.9-3.7-8.8-5.4l-2.8-1.6a4.4,4.4,0,0,1,3.5-1.5h.7l3.5.2,4.3.2h1.4c3.4,0,6-1.8,8-3.5,5.7-5,11.6-10,17.4-14.9l5.5-4.7,3-2.6,9.4-7.8a12.8,12.8,0,0,1,8-2.8m0-1a13.6,13.6,0,0,0-8.6,3c-4.2,3.4-8.3,6.9-12.4,10.4-7.7,6.6-15.4,13-23,19.6-2.2,2-4.4,3.3-7.3,3.3h-1.3c-2.6-.4-5.2-.3-7.8-.5H725a5.6,5.6,0,0,0-5,2.7c4.2,2.6,8.5,5,12.6,7.6a7.8,7.8,0,0,0,4.4,1.5,6.2,6.2,0,0,0,2.9-.7c4.8-2.4,9.6-5,14.3-7.8,2.4-1.5,4.4-3.5,6.9-5.4,1.6,9.7,3.1,19.1,4.6,28.7l2.2-1.6c2.2-1.7,4.5-3.4,4.6-6.6l.9-10.9c.5-6.6,1-13.2,1.6-19.7a5.7,5.7,0,0,1,1.6-3.3c1.7-1.7,3.7-3,5.4-4.6,3.6-3.2,7.6-6,9.8-10.5v-3.1c-1.2-.6-2.3-1.7-3.6-1.8l-2-.2Z" transform="translate(-9.4 -199.8)" style="fill:#fff"/><path d="M10.2,392.4V209.6H71.8A48.9,48.9,0,0,1,104,221.8c9.8,8.3,15.6,18,17.9,29.6a47.3,47.3,0,0,1,.9,9c.1,18,.1,37,.1,56.3a44,44,0,0,1-12.5,30.6l-1.3,1.4.3.3c10.4,10.8,14.8,24,13.3,40.4l-28.8,1.2v-7.9a19.3,19.3,0,0,0-3.3-10.9c-4.4-6.1-10.1-9.2-17.1-9.2l-2.9.2-15.5,1.5-8,.8-5.1.5-2.9.3v26.5Zm29-56.1,5.6-.5,11.3-1,7.3-.8c4.6-.5,9.3-1,14-1.3a17.7,17.7,0,0,0,16.5-17.5v-53A23.1,23.1,0,0,0,76,239.7a21.1,21.1,0,0,0-5.4-.7H39.2Z" transform="translate(-9.4 -199.8)" style="fill:url(#w)"/><path d="M47.4,210.1H71.8a48.5,48.5,0,0,1,31.9,12c9.7,8.3,15.4,17.9,17.7,29.4a47.1,47.1,0,0,1,.9,8.9c.1,18,.1,36.9.1,56.3A42.8,42.8,0,0,1,110,346.9l-.6.6-.4.5-.6.7.7.6c10.2,10.6,14.5,23.6,13.1,39.6L94.4,390v-7.3A20.3,20.3,0,0,0,91,371.5c-4.5-6.2-10.3-9.4-17.5-9.4l-3,.2c-5.1.6-10.4,1-15.5,1.5l-7.9.8-5.1.5-2.5.3h-.9v26.4H10.7V210.1H47.4M38.7,336.9h1.1l5.1-.5,11.2-1,7.4-.8c4.6-.5,9.3-1,14-1.3a18.3,18.3,0,0,0,16.9-18v-53a23.5,23.5,0,0,0-18.3-23,21.8,21.8,0,0,0-5.5-.7H38.7v98.4m8.7-127.8H9.7V392.9H39.6V366.4l7.6-.9c7.8-.7,15.6-1.3,23.4-2.2l2.9-.2c6.9,0,12.4,3.1,16.7,9a19.2,19.2,0,0,1,3.2,10.7c.1,2.7,0,5.4,0,8.3l29.8-1.3c1.5-15.8-2.4-29.7-13.4-41.1l.9-1.1a43.6,43.6,0,0,0,12.7-30.9c0-18.8,0-37.5-.1-56.3a46.8,46.8,0,0,0-.9-9.1c-2.4-12.1-8.7-21.9-18-29.9a49.2,49.2,0,0,0-32.6-12.3ZM39.7,335.8V239.5H70.6a24.9,24.9,0,0,1,5.3.7,22.6,22.6,0,0,1,17.5,22v53a17.4,17.4,0,0,1-16,17c-7.2.5-14.3,1.4-21.4,2.1l-16.3,1.5Z" transform="translate(-9.4 -199.8)" style="fill:#fff"/><path d="M265,450.8H237.4V413.5l29.2-4.5v10.4c0,9.8,0,19.8.1,29.7a2.2,2.2,0,0,1-.3,1.4,1.9,1.9,0,0,1-1.3.3Z" transform="translate(-9.4 -199.8)" style="fill:url(#x)"/><path d="M266.1,409.6h0v9.9c0,9.7,0,19.7.1,29.6,0,.8-.2,1-.2,1s-.2.2-.9.2H237.9V413.9l17.4-2.7,10.8-1.6m1-1.2L236.9,413v38.2h28.2c1.6,0,2.1-.6,2.1-2.2-.1-12.9-.1-25.9-.1-38.8v-1.9Z" transform="translate(-9.4 -199.8)" style="fill:#fff"/><polygon points="252.2 363.8 252.2 291.8 233.1 291.8 233.1 363.8 223.7 363.8 223.7 282.3 261.5 282.3 261.5 363.8 252.2 363.8" style="fill:url(#y)"/><path d="M270.3,482.6v80.6H262V491.1H242v72h-8.4V482.6h36.7m1-1H232.6v82.5H243v-72h18v72.1h10.3V481.6Z" transform="translate(-9.4 -199.8)" style="fill:#fff"/><path d="M299.7,566a17.8,17.8,0,0,1-12.3-4.5,18.1,18.1,0,0,1-6.2-13.9,19.2,19.2,0,0,1,0-2.4v-.9l1.7-.2,7.4-.8a2.2,2.2,0,0,1,.5.8,10.9,10.9,0,0,1,.1,1.8c0,.3-.1.5-.1.8a9.7,9.7,0,0,0,9.6,9.6,9.3,9.3,0,0,0,9.6-9.5V533l-5.1.6-9.7.9h-1a13.4,13.4,0,0,1-13-13.3c-.1-9.4,0-19,0-28.3V482.3h9.6v38.2c0,3.1,1.4,4.6,4,4.6h1.3a77.7,77.7,0,0,1,8-.9c3.7-.4,5.9-2.7,5.9-6.4V484c0-1,0-1.7.2-1.8s.9-.2,1.9-.2h7.3a1,1,0,0,1,.2,1v25.3c0,13,.1,26.4,0,39.6,0,8.7-5.8,15.9-14,17.4a32.8,32.8,0,0,1-5.9.6Z" transform="translate(-9.4 -199.8)" style="fill:url(#z)"/><path d="M318.6,482.5h.5a1.5,1.5,0,0,1,.1.6c-.1,8.4-.1,16.9-.1,25.3,0,13,.1,26.4,0,39.6,0,8.5-5.6,15.5-13.6,16.9a30.9,30.9,0,0,1-5.8.6,16.5,16.5,0,0,1-11.9-4.4,17.5,17.5,0,0,1-6.1-13.5,19.2,19.2,0,0,1,0-2.4v-.5H283l7.1-.7.2.3a8.6,8.6,0,0,1,.1,1.6c0,.3-.1.6-.1.9a10.2,10.2,0,0,0,10.1,10.1h0a9.9,9.9,0,0,0,10.1-10V532.5h-1.1l-4.5.5-9.8,1h-.9a12.9,12.9,0,0,1-12.5-12.8c-.1-9.4,0-19,0-28.3V482.8h8.6v37.7c.1,4.2,2.5,5.1,4.5,5.1h1.4a72.5,72.5,0,0,1,7.9-.9c4.1-.4,6.4-2.9,6.4-6.9V482.5h8.1m0-1h-6.5c-2.6,0-2.6,0-2.6,2.5v33.7c0,3.5-2,5.5-5.5,5.9s-5.3.5-7.9.9h-1.3c-2.3,0-3.5-1.3-3.5-4.2V481.8H280.8a2,2,0,0,0-.1.7c0,12.9-.1,25.8,0,38.8a13.8,13.8,0,0,0,13.5,13.8h1l14.3-1.4v13.2a8.9,8.9,0,0,1-9.1,9h0a9.3,9.3,0,0,1-9.1-9.1,11.3,11.3,0,0,0,0-2.6c-.1-.5-.7-1.3-1-1.3h0l-9.6,1.1c0,1.3-.1,2.6,0,3.8a18.7,18.7,0,0,0,6.4,14.2,18.1,18.1,0,0,0,12.6,4.6,30.5,30.5,0,0,0,6-.6c8.5-1.6,14.4-8.9,14.4-17.9.1-21.6,0-43.3.1-64.9,0-1.3-.5-1.6-1.6-1.6Z" transform="translate(-9.4 -199.8)" style="fill:#fff"/><polygon points="331 363.9 331 291.7 320.5 291.7 320.5 282.3 350.7 282.3 350.7 291.6 340.5 291.6 340.5 363.9 331 363.9" style="fill:url(#aa)"/><path d="M359.6,482.6v8.3H349.4v72.3h-8.5V491H330.4v-8.4h29.2m1-1H329.4V492h10.5v72.2h10.5V491.9h10.2V481.6Z" transform="translate(-9.4 -199.8)" style="fill:#fff"/><path d="M237.4,210.1H349.9V370.6l-29.1,3.5V239.5H266.6v23.6q0,57.1.1,114.4c0,1.6-.2,2.2-1.9,2.3-4.8.3-9.6.8-14.2,1.2l-6.1.6-5.2.4h-1.9Z" transform="translate(-9.4 -199.8)" style="fill:url(#ab)"/><path d="M349.4,210.6V370.2L330,372.5l-8.7,1V239H266.1v23.7c0,37.6,0,76.5.1,114.8,0,1.5-.1,1.7-1.5,1.8l-14.2,1.2-6.1.6-5.1.4h-1.4v-171H349.4m1-1H236.9V382.7l7.6-.6c6.8-.6,13.5-1.3,20.3-1.8,2.1-.1,2.4-1,2.4-2.8q-.1-67.7-.1-135.1V240h53.2V374.7l30.1-3.6V209.6Z" transform="translate(-9.4 -199.8)" style="fill:#fff"/><path d="M155.4,563.8H155V483.6a2.2,2.2,0,0,1,.3-1.4,1.9,1.9,0,0,1,1.3-.3h27.3c.8,0,1.2.1,1.4.3a2.2,2.2,0,0,1,.3,1.4c-.1,1.9-.1,3.8-.1,5.8v2.1H164.7v32h.6l4.4-.5c3.4-.3,6.5-.7,9.8-.9h.9a12.9,12.9,0,0,1,12.8,12.8c.1,5,.1,8.8,0,12.4-.1,8.5-8.2,16.4-16.7,16.5H155.4Zm24.3-32.3h-.8l-9.5,1c-2.8.3-4.7,2.1-4.8,4.6s-.1,7.7,0,11.8v5.4h10.8c4.9-.2,8.1-3.4,8.3-8s0-7.5,0-10.8S182.2,531.5,179.7,531.5Z" transform="translate(-9.4 -199.8)" style="fill:url(#ac)"/><path d="M184,482.4c.8,0,1,.2,1,.2s.1.1.1.9-.1,3.9-.1,5.9V491H164.2v33.1h1.1l4.5-.5,9.7-.9h.9a12.4,12.4,0,0,1,12.3,12.3c.1,5,.1,8.8,0,12.4-.1,8.2-8,15.9-16.2,16h-21V483.6c0-.9.1-1,.1-1a1.9,1.9,0,0,1,1-.2H184m-19.9,72.5h11.3c5.2-.2,8.6-3.6,8.8-8.5s0-7.5,0-10.8-1.8-4.5-4.5-4.5h-.8l-9.5,1c-3,.3-5.2,2.4-5.3,5.1s0,7.7,0,11.8v5.9M184,481.4H156.6c-1.7,0-2.1.5-2.1,2.2.1,26.2,0,52.5,0,78.8v1.8h22c8.8-.1,17.1-8.2,17.2-17,.1-4.1.1-8.3,0-12.4a13.4,13.4,0,0,0-13.3-13.3h-1c-4.7.3-9.4.9-14.2,1.4V492H186c0-2.9-.1-5.7.1-8.4s-.5-2.2-2.1-2.2Zm-12.5,72.5h-6.4c0-5.7-.1-11.2,0-16.7.1-2.3,2-3.8,4.4-4.1L179,532h.7c2.1,0,3.4,1.3,3.5,3.6s.1,7.1,0,10.7-3.2,7.3-7.9,7.5Z" transform="translate(-9.4 -199.8)" style="fill:#fff"/></svg>