<svg xmlns="http://www.w3.org/2000/svg" viewBox="0 0 448.1 372.7"><defs><style>.a{fill:#0d274b;}</style></defs><title>menu3</title><path class="a" d="M412.6,97H35.4C15.9,97,0,89,0,79.1H0c0-9.8,15.9-17.9,35.4-17.9H412.7c19.4,0,35.4,8,35.4,17.9h0C448,89,432.1,97,412.6,97Z" transform="translate(0 -61.2)"/><path class="a" d="M412,273.9H123.7c-19.8,0-36-8-36-17.9h0c0-9.86,16.2-17.9,36-17.9H412c19.8,0,36,8,36,17.9h0C448,265.86,431.8,273.9,412,273.9Z" transform="translate(0 -61.2)"/><path class="a" d="M412,433.9H260c-19.8,0-36-8-36-17.9h0c0-9.86,16.2-17.9,36-17.9H412c19.8,0,36,8,36,17.9h0C448,425.86,431.8,433.9,412,433.9Z" transform="translate(0 -61.2)"/></svg>