<?xml version="1.0" encoding="utf-8"?>
<!-- Generator: Adobe Illustrator 22.1.0, SVG Export Plug-In . SVG Version: 6.00 Build 0)  -->
<svg version="1.1" id="Слой_1" focusable="false"
	 xmlns="http://www.w3.org/2000/svg" xmlns:xlink="http://www.w3.org/1999/xlink" x="0px" y="0px" viewBox="0 0 448 512"
	 style="enable-background:new 0 0 448 512;" xml:space="preserve">
<style type="text/css">
	.st0{fill:#0D274B;}
</style>
<path class="st0" d="M412.6,116H35.4C15.9,116,0,103.7,0,88.6l0,0c0-15,15.9-27.4,35.4-27.4h377.3c19.4,0,35.4,12.3,35.4,27.4l0,0
	C448,103.7,432.1,116,412.6,116z"/>
<path class="st0" d="M412,283.4H123.7c-19.8,0-36-12.3-36-27.4l0,0c0-15.1,16.2-27.4,36-27.4H412c19.8,0,36,12.3,36,27.4l0,0
	C448,271.1,431.8,283.4,412,283.4z"/>
<path class="st0" d="M412,443.4H260c-19.8,0-36-12.3-36-27.4l0,0c0-15.1,16.2-27.4,36-27.4h152c19.8,0,36,12.3,36,27.4l0,0
	C448,431.1,431.8,443.4,412,443.4z"/>
</svg>
