<?xml version="1.0" encoding="utf-8"?>
<!-- Generator: Adobe Illustrator 22.1.0, SVG Export Plug-In . SVG Version: 6.00 Build 0)  -->
<svg version="1.1" id="Слой_1" focusable="false"
	 xmlns="http://www.w3.org/2000/svg" xmlns:xlink="http://www.w3.org/1999/xlink" x="0px" y="0px" viewBox="0 0 448 512"
	 style="enable-background:new 0 0 448 512;" xml:space="preserve">
<style type="text/css">
	.st0{fill:#0D274B;}
</style>
<path class="st0" d="M412.6,132H35.4C15.9,132,0,116.1,0,96.6l0,0c0-19.4,15.9-35.4,35.4-35.4h377.3c19.4,0,35.4,15.9,35.4,35.4v0
	C448,116.1,432.1,132,412.6,132z"/>
<path class="st0" d="M412,292H123.7c-19.8,0-36-16.2-36-36v0c0-19.8,16.2-36,36-36H412c19.8,0,36,16.2,36,36v0
	C448,275.8,431.8,292,412,292z"/>
<path class="st0" d="M412,452H260c-19.8,0-36-16.2-36-36v0c0-19.8,16.2-36,36-36h152c19.8,0,36,16.2,36,36v0
	C448,435.8,431.8,452,412,452z"/>
</svg>
