<svg xmlns="http://www.w3.org/2000/svg" viewBox="0 0 266.76 268.4"><defs><style>.cls-1{fill:#d4edfc;stroke:#cbe2f3;stroke-linecap:round;stroke-linejoin:round;stroke-width:3px;}</style></defs><title>Ресурс 5</title><g id="Слой_2" data-name="Слой 2"><g id="Слой_1-2" data-name="Слой 1"><path class="cls-1" d="M160.94,21.78C170.12,7.56,190.65.47,203.48,14a19.09,19.09,0,0,1,4.66,15.68,17.72,17.72,0,0,1-.33,1.92c2.8-2.54-3.14,4.41,1.61,1.27,1-.22,1.9-.4,2.86-.54A43.9,43.9,0,0,1,247.44,43c13.24,12.91,10.77,31.78,1.72,45.76-.38.59-.77,1.16-1.17,1.73.64,1.17-2.93,1.17-.38,1.92a18.83,18.83,0,0,1,12.09,20.71,21,21,0,0,0-.34,2.42c0,4.24-3.34,7.36-5.44,10a14.35,14.35,0,0,0-1.09,1.55c.55,2.79,4.12,2.79,5.85,4.67a17.92,17.92,0,0,1,1.52,1.43c3.87,3.64,5.06,8.28,5,13.06,0,.72.06,1.45.06,2.17-1.07,7.3-5,12.72-12.08,15.47a25.53,25.53,0,0,1-2.47.82c5,6.88,2.67,17.31-6.73,18.55a24.78,24.78,0,0,1,.83,2.75c2.92,12-3.23,25.06-17.57,26.14,1.19,0,1.19,1.15,1.89.84.57,1,1.11,2,1.61,3,2,4.11,3.34,8.49,3.06,12.79a15.86,15.86,0,0,1-.71,3.83c-2.28,8.47-7,14.26-14.16,17.74-8.72,4.25-18.71,3.51-27.33-1.06-.79-.41-1.56-.86-2.32-1.34a5.24,5.24,0,0,0-3.83-1.11,18.69,18.69,0,0,1-1.5,1.79c-4.8,5-12.26,6.76-19.07,5.59a23.11,23.11,0,0,1-3.53-.9c.55.51-.64-.65-.64-.65-4.08,10.92-19.5,14.18-29.06,8.33a17.26,17.26,0,0,1-2.26-1.66c.43.28-.36-.46-.67-.06a16.59,16.59,0,0,1-2.12,1.88,38.46,38.46,0,0,1-11,5.41c-13.07,2.32-25-9.27-21.87-21.91a16.36,16.36,0,0,1-3.29,1c-7.29,1.68-14.64,1.46-20-4.62-2.38-3.48-5.94-8.11-4.77-14.18-.32,1-14.11,10.81-25.11-.17-9-9-2.41-19.47-1-20.41-8.32,1.16-14.26-8.11-11.88-15.06C28.83,189,30,185.5,33.72,185a1.66,1.66,0,0,0-.76-.67c-13.64,2.32-25.52-3.48-29.08-16.22C1.2,158.56,7.22,149.65,15.36,145a26.66,26.66,0,0,1,4.22-1.93c.93-.48,3.31-.48,4.49-.48-11.88-2.32-21.38-10.43-22.57-22,0-13,9.87-20.78,21.89-22.13a59.16,59.16,0,0,1,7.81.12c-5.94-3.48-10.69-10.43-10.69-17.38,1.19-7,5.94-13.9,13.07-16.22.79-.19,1.55-.39,2.27-.55a16.79,16.79,0,0,1,2-.35c1.63-1.42,4,.9,4.18-1.72a21.54,21.54,0,0,1-.58-2.69,23.26,23.26,0,0,1,8.72-21.34A35,35,0,0,1,80,33.29,8,8,0,0,1,80.15,31,19.15,19.15,0,0,1,90.61,16.34c8.91-3.86,17.82-1.29,24.67,5,.16-1,.73-3.22,1-4.17,1.38-4.72,4.76-9.87,9.38-12.44,7.13-3.48,14.85-4.65,22-1.18a28.64,28.64,0,0,1,12.24,14.49A20.47,20.47,0,0,1,160.94,21.78Z"/></g></g></svg>