<?xml version="1.0" encoding="utf-8"?>
<!-- Generator: Adobe Illustrator 22.1.0, SVG Export Plug-In . SVG Version: 6.00 Build 0)  -->
<svg version="1.1" xmlns="http://www.w3.org/2000/svg" xmlns:xlink="http://www.w3.org/1999/xlink" x="0px" y="0px"
	 viewBox="0 0 800 800" style="enable-background:new 0 0 800 800;" xml:space="preserve">
<style type="text/css">
	.st0{display:none;fill:#1B1464;stroke:#1B1464;stroke-width:2;stroke-miterlimit:10;}
	.st1{fill:#FFFFFF;stroke:#1B1464;stroke-width:4;stroke-miterlimit:10;}
	.st2{fill:#1B1464;}
	.st3{font-family:'Bello-Pro';}
	.st4{font-size:31.0644px;}
	.st5{fill:#F08B23;}
	.st6{font-family:'OpenSans-Extrabold';}
	.st7{fill:#BBEBFF;}
	.st8{font-family:'ArialMT';}
	.st9{display:none;fill:#29ABE2;}
	.st10{display:none;}
	.st11{fill:#F08B23;stroke:#1B1464;stroke-width:2;stroke-miterlimit:10;}
	.st12{fill:#1B1464;stroke:#1B1464;stroke-miterlimit:10;}
	.st13{fill:#FFFFFF;stroke:#1B1464;stroke-miterlimit:10;}
	.st14{fill:#F08B23;stroke:#1B1464;stroke-miterlimit:10;}
	.st15{display:inline;}
	.st16{fill:#4D7087;}
	.st17{fill:#FFFFFF;}
</style>
<g id="Слой_7">
	<path class="st0" d="M633.1,176.9c-3-0.2,6.2-92.2,71.8-128.2c23.6-12.9,59.1-21.2,70.3-10.5c8.9,8.5,1.8,28.8-12.7,40.9
		C747,92.1,735,85.9,707,99.1c-32.4,15.3-50.7,39.9-58,49.7C636.1,166.2,634.2,177,633.1,176.9z"/>
	<path class="st0" d="M199.3,168.6c2.9,0-8.6-80.6-72.1-115.2C104.4,41,70.4,32,60.1,40.7c-8.2,7-0.9,24.9,13.3,36.2
		c15.1,12,26.3,7.2,53.3,20.1c31.3,14.9,49.4,37.2,56.6,46.2C196.2,159.1,198.3,168.6,199.3,168.6z"/>
	<path class="st0" d="M442.2,160c-2.4,0-0.9-25-8.2-61.1c-7.3-36.4-16-46.2-12.2-64.9C424.7,20,434,4.4,444.7,5
		c10.8,0.6,19.6,17.5,21.7,32.2c2.7,19.2-7,27.2-15.2,59.9C442.3,132.8,444.7,160,442.2,160z"/>
	<path class="st0" d="M629.6,303c-0.4-2.4,24.5-5,58.9-18.2c34.6-13.2,43-23.4,62-22.7c14.3,0.5,31.2,7.1,32.4,17.8
		c1.2,10.8-14,22.2-28.2,26.7c-18.5,5.8-28-2.4-61.6-5.1C656.4,298.6,630,305.5,629.6,303z"/>
	<path class="st0" d="M150.8,330.3c-0.8,2.3-23.9-7.4-60.3-12.5c-36.7-5.1-48.9-0.2-65.2-10C13,300.4,1.4,286.5,5.5,276.6
		c4.2-10,23-12.7,37.5-9.8c19,3.8,23.3,15.6,51.5,34.2C125.3,321.2,151.7,327.9,150.8,330.3z"/>
	<ellipse class="st1" cx="577" cy="203" rx="100" ry="70"/>
	<circle class="st1" cx="459" cy="263" r="16"/>
	<circle class="st1" cx="360" cy="239" r="12"/>
	<circle class="st1" cx="405.5" cy="265.5" r="14.5"/>
	<text transform="matrix(1.026 0 0 1 501.1123 193.9561)"><tspan x="0" y="0" class="st2 st3 st4">Travel</tspan><tspan x="77" y="0" class="st5 st6 st4">Club</tspan><tspan x="-0.4" y="37.3" class="st7 st8 st4">слушает...</tspan></text>
	<path class="st9" d="M120,551c12.8,9,26.7,9.2,43.7,9.3c21.8,0.1,25.6-4.3,48.3-3.3c6,0.3,15.5,0.7,27.2,3.5
		c20.9,5,27.7,12.4,42.8,18.5c22,8.8,42,6.8,60,5c31.1-3.1,34.3-12.6,65-19c26.5-5.5,46.5-3.1,81,1c53.6,6.4,51.1,15.6,89,18
		c12,0.8,57.3,2.8,107-18c11.4-4.8,51.1-21.4,49-36c-1-6.7-10.5-11-44-20c-48.2-13-72.3-19.5-94-21c-34.1-2.3-32.8,5-107,8
		c-24.8,1-37.5,1.5-51,0c-20.1-2.2-59.7-9.3-69.7-11.2c-1.8-0.3-7.2-1.3-14.3-1.8c-4.5-0.3-8.2-0.4-11.8-0.3
		C310.3,485,281,493,281,493c-17.6,5.2-49.1,9.3-110,4c-11.5,0.6-28.4,2.9-47,11c-17.8,7.7-20.3,12.4-21,15
		C100.2,533.4,112,545.4,120,551z"/>
	<ellipse class="st7" cx="400.5" cy="592.5" rx="315.5" ry="37.5"/>
</g>
<g id="Слой_1" class="st10">
	
		<image style="display:inline;overflow:visible;" width="275" height="325" xlink:href="../../../../../../MyDownloads/madagascar_penguins_PNG62.png"  transform="matrix(1 0 0 1 103 238)">
	</image>
</g>
<g id="Слой_6">
	<path class="st11" d="M184.4,326.5l-35.9,5.6c-7,1.1-13.7-3.8-14.8-10.8l-4.6-29.6c-1.1-7,3.8-13.7,10.8-14.8l35.9-5.6
		c7-1.1,13.7,3.8,14.8,10.8l4.6,29.6C196.3,318.8,191.5,325.4,184.4,326.5z"/>
	
		<ellipse transform="matrix(0.9881 -0.154 0.154 0.9881 -48.9435 29.8157)" class="st11" cx="167.9" cy="330.7" rx="60.9" ry="21.9"/>
</g>
<g id="Слой_4">
	<path class="st5" d="M205.5,583.5c0,0.2,1.5,0,4,0c2.3,0,4.2,0.3,5.5,0.5c-1.2,0.8-2.3,1.7-3.5,2.5c3.7,0.4,6.8,0.8,9,1
		c3.5,0.4,4.5,0.4,5.5,0.5c3.3,0.2,5.4,0.3,8,0c3.3-0.4,5.9-1.3,6-1c0.1,0.3-3.1,1.2-3,2c0.1,0.7,2.7,0.8,6,1c4,0.2,6.7,0.1,8,0
		c4.5-0.3,6.8-0.4,7.5-1.5c0.8-1.2,0.4-3-0.5-6.5c-0.6-2.2-1-3.1-1.5-4.5c-2-6.1,0.2-9-1.5-10.5c-3.1-2.8-14.6,2.9-14.5,7.5
		c0,1.7,1.5,2.8,1,4c-0.7,1.5-3.9,1.5-5.5,1.5c-7.3,0-14.5-0.1-19.5,0.5C210.4,581.2,205.4,583.2,205.5,583.5z"/>
	<path class="st5" d="M313,530c1,1.1,1.9,0.3,6,2c2.2,0.9,3,1.6,5,2c1.2,0.2,2.7,0.5,4,0c2.2-0.9,2.7-3.5,4-7c0,0,1.6-4.4,5-10
		c3.6-5.9,7.6-9.3,7-10c-0.5-0.5-3.4,1.7-4,1c-0.6-0.7,1.8-3.8,2-4c1.2-1.6,2.3-2.4,7-6c0.1-0.1,1.7-1.4,5-4c2.1-1.7,3.2-2.6,3-3
		c-0.3-0.7-3-0.2-4,0c-3.1,0.6-4.5,1.5-5,1c-0.8-0.8,1.4-3.6,1-4c-0.5-0.4-3.4,2.5-7,6c-4.4,4.4-6.7,6.6-7,7c-4,5.3-6,11-6,11
		c-0.1,0.3-1,2.7-3,5c-1,1.1-1.9,2.1-3,2c-2.1-0.1-2.4-3.8-4-4C315.9,514.5,309.8,526.6,313,530z"/>
	<path class="st12" d="M166.5,316.5c-4.9,0.5-10.1,1-16,4c-15.3,7.7-19.9,24.2-21,28c-2.6,9.3-1.9,17.2-1,26c1.1,11.2,4,21,4,21
		c1.5,5.1,2.1,5.8,3,10c1.7,8.3,0.1,9.9,2,17c0.2,0.9,1.5,4.3,4,11c1.2,3.2,1.9,4.8,3,8c7.1,20.6,10.7,30.9,11,32
		c6.6,19.9,9.8,29.8,15,39c9.2,16.5,20.4,27.4,27.2,34.1c4.8,4.7,9.4,8.4,18.8,15.9c10.9,8.7,14,10.3,18,11c9.2,1.6,16.9-2.8,19-4
		c6-3.5,5.7-6,12-12c10.3-9.8,23.6-14.8,32-18c6.5-2.5,10-3.2,14-7c1.2-1.2,7-7.1,7-15c0-5.7-3.1-8.8-7-15c-2.3-3.7-1.7-3.4-12-29
		c-6.5-16.2-9.7-24.3-11-27c-6.2-13.3-12-21.9-22-37c-13-19.5-19.6-29.3-27-32c-1.5-0.6-6.9-2.2-12-7c-1-0.9-3-2.9-5-6
		c-5.2-8-4.9-14.4-7-21c-3.7-11.8-13.3-18.7-15-20C187.9,314.4,173.1,315.8,166.5,316.5z"/>
	<path class="st13" d="M144.5,327.5c6.6-3.5,12.6,1.8,22,0c6.6-1.3,6.3-4.4,15-6c2.6-0.5,6.5-0.9,11,0c3.7,0.7,8.5,1.7,10,5
		c1.2,2.7-0.7,4.9,1,7c1.3,1.7,3,1,5,2c4.7,2.3,2.7,9.7,7,20c2.7,6.4,6.2,10.1,7,11c3.9,4,7.7,5.8,10,7c9.1,4.8,15,11.2,23,20
		c4.9,5.4,8.6,11.3,16,23c6,9.5,10.8,17.2,16,28c5.9,12.4,4.2,11.9,13,32c6.1,13.9,9.2,20.9,11,24c5.2,8.9,8.3,11.5,8,17
		c-0.4,8.3-8,14.5-11,17c-2.6,2.2-6.4,4.1-14,8c-5.3,2.7-11.8,5.7-12.4,6c-5.4,2.5-5.3,2.3-7,3.2c-2.4,1.3-6.9,4.1-11.6,8.8
		c-2.1,2.1-4.6,5.1-7,9c-3.6,2.3-10.1,5.7-18,5c-6.8-0.6-11.5-3.9-19-10c-14.8-12-22.3-18-29-26c-12.7-15.1-19.2-29.3-22-36
		c-5.1-12.2-7-21.9-9-32c-2.7-13.7-4.1-20.5-3-29c2.1-16.3,9.5-17,9-28c-0.4-9.1-7.6-18.1-22-36c-6.2-7.8-10.4-12.1-12-20
		c-1.5-7.4-0.4-17,4-19c1.8-0.8,4.1-0.4,5-2c0.8-1.5-0.6-2.9,0-5C141.1,329.3,143.4,328.1,144.5,327.5z"/>
	<path class="st12" d="M228.7,368.4c-0.6-2.4,1.4-4.8,2.9-7.1c12-18.4,24-36.7,35.7-55.3c0.3-0.5,0.7-1.1,1.3-1.4
		c1.9-0.9,3.5,1.6,4.1,3.6c3.9,14.8,3,30.9-2.1,45.3c-2.8,7.7-12.7,31.5-24,29c-2.7-0.6-2.7-2.9-10-8c-2-1.4-5.5-2.5-7-4.4
		C229.1,369.5,228.8,369,228.7,368.4z"/>
	<path class="st14" d="M137.5,344.5c-0.4,1.3,7.3,7.4,17,8c6.1,0.4,7.3-1.7,18-2c4.4-0.1,4.9,0.2,10,0c6.7-0.3,10.1-0.5,14-2
		c5.9-2.3,10.6-6.8,10-8c-0.4-0.8-3.1,0.4-10,1c-1,0.1-5.4,0.4-11,0c-5.9-0.5-8.9-0.8-11-3c-1.7-1.9-1.7-3.8-3-4
		c-1.5-0.2-2.2,2.5-5,5c-2.7,2.4-5.6,3.1-9,4c-3.3,0.8-5.9,0.9-10,1C140.3,344.6,137.7,343.8,137.5,344.5z"/>
	<circle class="st13" cx="161" cy="334" r="5"/>
	<circle class="st13" cx="180.5" cy="332.5" r="5"/>
	<g>
		<g>
			<path class="st2" d="M138.6,345.7c5.5,1.8,11,2,16.8,1.8c2.4-0.1,4.7-0.1,7-1c4.3-1.7,7.6-4.1,12.4-2.7c2,0.6,3.6,1.5,5.7,1.9
				c3.3,0.5,6.8,0.6,10,0.6c5.5-0.1,10.3-1.4,14.8-4.6c0.4-0.3,0-0.9-0.4-0.6c-5.7,4.2-12,4.8-18.8,4.4c-3.4-0.2-6.4-0.6-9.6-1.7
				c-1.8-0.7-3.2-1.1-5.2-1.1c-5.1,0.1-9.1,3.8-14.2,4.1c-6.1,0.4-12.4,0.3-18.3-1.7C138.3,344.8,138.1,345.5,138.6,345.7
				L138.6,345.7z"/>
		</g>
	</g>
</g>
<g id="Слой_5">
	<g>
		<g class="st10">
			<g class="st15">
				<path class="st16" d="M181,333.5c0.1,0,0.1,0,0.2,0.1c-0.1,0-0.2-0.1-0.1,0c0.2,0.1-0.1-0.1,0,0
					C181.2,333.6,181,333.3,181,333.5C181.1,333.6,181.1,333.3,181,333.5C181.1,333.4,181,333.6,181,333.5
					C181.2,333.3,181,333.5,181,333.5c-0.1,0.1,0.2-0.1,0.2-0.1c-0.2,0.1,0,0,0.1,0c-0.1,0-0.1,0,0,0c-0.2-0.1-0.1,0,0,0
					c-0.2-0.1,0,0,0,0c-0.1-0.2-0.1-0.1-0.1-0.4c0.1-0.3,0.2-0.4,0.5-0.5c0.2,0,0.6,0,0.7,0.1c-0.5-0.6-1.6-0.5-2.1,0
					c-0.6,0.6-0.5,1.5,0,2.1c1.3,1.5,3.8,0.4,3.9-1.5c0.1-1.7-1.5-3-3.1-3c-1.6,0.1-3.1,1.3-3.1,2.9c0,1.7,1.3,3,2.9,3.1
					c0.8,0.1,1.5-0.7,1.5-1.5C182.5,334.1,181.8,333.6,181,333.5L181,333.5z"/>
			</g>
		</g>
		<g class="st10">
			<g class="st15">
				<path class="st16" d="M179.3,335.3c1.2,0.6,2.5,0.6,3.7-0.1c-0.7-0.3-1.5-0.6-2.2-0.9c0.2-0.4,0.5-0.8,0.7-1.2
					c-0.8,0.3-1.3,1-1,1.8c0.2,0.7,1.1,1.3,1.8,1c1-0.4,1.8-1.4,1.4-2.5c-0.3-0.9-1.3-1.4-2.2-0.9c-0.3,0.2,0.2,0-0.2,0.1
					c-0.3,0.1,0,0-0.1,0c-0.1,0-0.4,0-0.1,0c-0.1,0-0.4-0.2-0.2-0.1c-0.7-0.4-1.6-0.2-2.1,0.5C178.4,334,178.6,335,179.3,335.3
					L179.3,335.3z"/>
			</g>
		</g>
		<circle class="st16" cx="181.3" cy="333.3" r="3.3"/>
		<g>
			<g>
				<path d="M181,335c1.9,0,1.9-3,0-3C179.1,332,179.1,335,181,335L181,335z"/>
			</g>
		</g>
		<circle class="st17" cx="180.6" cy="332.6" r="0.6"/>
	</g>
	<g>
		<g class="st10">
			<g class="st15">
				<path class="st16" d="M162.4,331.7c-1.8-0.3-3.5,0.8-3.8,2.6c-0.3,1.7,0.9,3.2,2.5,3.6c1.7,0.4,3.5-0.5,4-2.2
					c0.6-1.9-0.9-4-2.9-3.8c-0.8,0.1-1.5,0.6-1.5,1.5c0,0.8,0.7,1.6,1.5,1.5c0.3,0,0-0.1,0.1,0c-0.2-0.2,0.1-0.2-0.1,0.1
					c-0.1,0.2-0.3,0.1-0.5,0.1c-0.1,0-0.1-0.1-0.2-0.1c-0.1-0.1,0,0,0,0c0-0.1,0.2-0.3,0.1-0.3c0.8,0.1,1.6-0.2,1.8-1
					C163.6,332.8,163.2,331.8,162.4,331.7L162.4,331.7z"/>
			</g>
		</g>
		<circle class="st16" cx="161.8" cy="334.7" r="3.3"/>
		<g>
			<g>
				<path d="M161.8,336.1c1.9,0,1.9-3,0-3C159.8,333.1,159.8,336.1,161.8,336.1L161.8,336.1z"/>
			</g>
		</g>
		<circle class="st17" cx="160.9" cy="334" r="0.6"/>
	</g>
</g>
<g id="Слой_2">
	<path class="st5" d="M530,583.6c-27.8,0-55.7,0-83.5,0c-1.4,0-2.8-0.1-4.2-0.2c-10.6-1.3-16.6-8.3-16.6-18.9c0-11,0-22.1,0.1-33.1
		c0-1.3,0.5-2.7,0.9-4c2.8-8.9,5.6-17.8,8.3-26.7c3.1-10.4,6.3-20.7,9-31.2c1.9-7.6,6-13.6,11.4-19c8.1-8.1,17.8-13.5,28.4-17.6
		c2-0.8,2.6-1.7,2.6-3.8c-0.1-3.9-0.2-7.9,0.4-11.7c1.3-8,6.7-13.1,14.8-14.1c2.6-0.3,5.3-0.3,8-0.3c15.3,0,30.6,0,45.8,0
		c2,0,4.1,0.3,6,0.7c10.1,2.3,15.7,9.9,15.1,20.3c-0.1,1.8-0.1,3.7-0.4,5.5c-0.3,1.5,0.2,2.2,1.6,2.9c8.4,3.8,16.1,8.8,23,15
		c5.2,4.7,9.8,9.9,13.8,15.7c0.5,0.7,0.8,1.4,1,2.2c7,21.3,13.9,42.6,20.8,64c0.3,1,0.5,2.1,0.5,3.2c0,10.3,0.1,20.5,0,30.8
		c-0.1,11.1-6.7,18.5-18.3,20.1c-4.2,0.6-8.5,0.4-12.7,0.4C580.6,583.6,555.3,583.6,530,583.6C530,583.6,530,583.6,530,583.6z
		 M542.9,512.1c1.8-0.2,3.6-0.5,5.4-0.9c11-2.4,22-7.5,29.9-15.6c6.6-6.7,10.9-16.1,10.1-25.5c-1-13.1-11.5-23.8-23.1-30
		c-19.5-10.4-43.9-11-64-1.7c-6.9,3.2-13.3,7.6-18.1,13.4s-8,13.3-7.9,20.8c0,9.5,5.1,18.6,12.3,25c9.4,8.4,22.1,13,34.5,14.6
		c1.4,0.2,2.9,0.3,4.4,0.4"/>
	<path class="st5" d="M350.5,181.9c-12.5,21.7-24.8,43-37.1,64.3c-7-2.1-13.9-4.1-20.7-6.1c-7.9,8.1-11.2,17-13.3,26.1
		c-3,13.3-2.7,26.5-1.9,39.8c1.3,21.3,9.5,40.8,21.4,59.6c0.9,1.5,1.9,1.6,3.7,0.7c5.9-2.8,11.8-5.6,17.7-8.4
		c0.6-0.3,1.1-0.5,1.8-0.9c15.6,19.2,31.1,38.3,46.8,57.6c-0.8,0.4-1.5,0.8-2.3,1.1c-8.5,3.9-17,7.8-25.5,11.7
		c-15.7,7.3-30.8,5.1-41.1-5.6c-15.8-16.3-26.4-34.5-33.4-54.1c-12.5-34.9-16.4-73.8-12.9-110.3c2.4-24.5,10.2-49.4,27.3-71
		c7.7-9.7,18.8-17.2,34.3-13.9C327.1,175.3,338.5,178.8,350.5,181.9z"/>
	<path class="st2" d="M533,453c5.3,0.1,12,2.2,17.4,7.7c6.1,6.2,6.6,14.8,1.5,21.8c-9.5,13.1-32.2,13.3-42.1,0.4
		c-6.6-8.6-4.3-19.5,5.4-25.7C520,454.3,525.2,453,533,453z"/>
	<path class="st2" d="M526.9,447.9c0,3-2.4,5.6-5.3,5.6c-2.9,0-5.4-2.5-5.4-5.5c0-3,2.3-5.4,5.2-5.5
		C524.4,442.4,526.9,444.9,526.9,447.9z"/>
	<path class="st2" d="M501.3,463.1c-3.1,0-5.5-2.4-5.4-5.4c0-2.9,2.4-5.2,5.4-5.2c3,0,5.5,2.4,5.5,5.3
		C506.8,460.8,504.4,463.1,501.3,463.1z"/>
	<path class="st2" d="M516.2,498.1c-0.1,2.9-2.5,5.3-5.4,5.2c-2.9-0.1-5.3-2.5-5.2-5.4c0.1-2.9,2.5-5.3,5.5-5.2
		C514,492.7,516.2,495.2,516.2,498.1z"/>
	<path class="st2" d="M491.5,472.6c3,0,5.3,2.4,5.3,5.4c0,2.9-2.4,5.3-5.4,5.3c-2.9,0-5.3-2.5-5.3-5.4
		C486.1,475,488.6,472.6,491.5,472.6z"/>
	<path class="st2" d="M546.5,498c0-3,2.2-5.3,5-5.3c2.8,0,5,2.4,5,5.4c0,2.9-2.2,5.2-4.9,5.2C548.7,503.4,546.5,501,546.5,498z"/>
	<path class="st2" d="M566.5,458c0,2.9-2.3,5.2-5.2,5.2c-2.7,0-5.1-2.3-5.2-5c-0.1-2.8,2.3-5.2,5.1-5.3
		C564.1,452.8,566.4,455.1,566.5,458z"/>
	<path class="st2" d="M571.6,483.5c-2.8,0-5.1-2.4-5-5.3c0-3,2.3-5.3,5.1-5.3c2.7,0,4.9,2.4,5,5.2
		C576.6,481.1,574.3,483.5,571.6,483.5z"/>
	<path class="st2" d="M546.4,447.9c0.1,2.8-2.2,5.2-4.9,5.2c-2.7,0-5.1-2.3-5.1-5.1c0-2.8,2.2-5.2,4.9-5.2
		C544,442.8,546.3,445.1,546.4,447.9z"/>
	<g>
		<g>
			<path class="st2" d="M336.5,416.2c10.6,5.8,19.9,13.9,26.7,23.9c1.5,2.1,2.8,4.3,4.1,6.6c0.9,1.6,4,6.1,3.3,7.8
				c-0.6,1.5-16.2,1.4-16.6-0.6c-0.3-1.4,4.7-5,5.7-5.8c2.1-1.6,4.5-3,7-3.9c5-1.8,10.5-2,14.6,1.9c8.1,7.8,10.2,25.3,3.8,34.5
				c-3,4.2-8.1,7.5-13.4,7.5c-1.7,0-7.1-0.7-6.7-3.3c0.3-1.9,6-4.4,7.7-5.3c5.5-2.9,11.7-4.4,17.9-4.6c2.4-0.1,5.6-0.3,7.7,1.1
				c3,2,4.3,7,5.1,10.3c2.4,10.3-0.2,25-10.1,30.8c-3.7,2.2-9.5,2.5-9.3-3.3c0.2-5.4,5.5-7.6,10.3-6.5c15.2,3.5,13,24.2,15.8,35.6
				c3.1,12.4,12.6,21.9,24.6,25.8c6.1,2,8.8-7.6,2.7-9.6c-8.7-2.9-15.4-9.9-17.6-18.9c-2.5-10.1-1.7-20.4-6.9-29.8
				c-4.3-7.6-11.8-13.1-20.7-13.4c-8.3-0.3-15.6,5-17.6,13.1c-1.7,7.3,1.6,15.4,9,17.8c7.7,2.5,16-1.7,21.2-7.4
				c11.2-12.5,14-37.4,1.9-50.4c-6.4-7-17.8-5.9-26.3-4c-8,1.8-18.8,6-23.6,13.1c-5.6,8.4,2.6,16.9,10.8,18.5
				c8.2,1.5,16.8-1.9,22.6-7.8c12.6-12.8,10.7-37.7-1.3-50.4c-12.2-12.9-33.8-4.8-42.7,8c-2.8,4-3.9,9.2-0.5,13.3
				c3,3.6,7.7,4.1,12.1,4.2c8.2,0.2,24.4,2,23.3-10.8c-0.4-4.8-3.5-9.8-5.8-13.8c-2.5-4.4-5.5-8.5-8.8-12.4
				c-6.9-8.3-15.4-15.1-24.8-20.3C335.9,404.4,330.9,413.1,336.5,416.2L336.5,416.2z"/>
		</g>
	</g>
	<path class="st2" d="M526.5,502c0-3,2.2-5.3,5-5.3c2.8,0,5,2.4,5,5.4c0,2.9-2.2,5.2-4.9,5.2C528.7,507.4,526.5,505,526.5,502z"/>
</g>
<g id="Слой_3">
	<path class="st12" d="M151.5,412.5c-0.1-4.5,22.3-10.5,26-11.8c10.9-3.8,21.9-7.1,32.9-10.4c22.3-6.6,44.7-13.1,65.6-23.2
		c-8.6,18.8-21.4,38.3-40.5,47.4c-7.9,3.8-14.4,4.8-22,6c-12,1.9-21.2,1.4-27,1c-9.1-0.6-15-1.9-20-3
		C159.5,416.9,151.6,415.1,151.5,412.5z"/>
</g>
</svg>
