<svg xmlns="http://www.w3.org/2000/svg" xmlns:xlink="http://www.w3.org/1999/xlink" width="801" height="533.94" viewBox="0 0 801 533.94"><defs><style>.cls-1{fill:#ff931e;}.cls-1,.cls-2,.cls-25,.cls-3,.cls-4{stroke:#1b1464;stroke-miterlimit:10;}.cls-2,.cls-24{font-size:113.75px;font-family:VAGWorld-Bold, VAG World;font-weight:700;}.cls-14,.cls-2,.cls-24,.cls-25{fill:#fff;}.cls-2{stroke-width:5px;}.cls-20,.cls-3{fill:#f9c273;}.cls-21,.cls-4{fill:#c16028;}.cls-5{fill:#ee8f38;}.cls-6{fill:#b15d24;}.cls-7{fill:#313132;}.cls-8{fill:#8d8a80;}.cls-9{fill:#a3a49e;}.cls-10{fill:#1f1f21;}.cls-11{fill:#f8b25c;}.cls-12{fill:#c0c0bc;}.cls-13{fill:#484949;}.cls-15{fill:#dfddd8;}.cls-16{fill:#111;}.cls-17{fill:#1b1464;}.cls-18{fill:#fcfaf4;}.cls-19{fill:#130c0d;}.cls-22{fill:#0e0b0a;}.cls-23{fill:#84827a;}</style></defs><title>TravelClub-Promocode</title><g id="promocode"><rect class="cls-1" x="0.5" y="204.33" width="800" height="168" rx="27" ry="27"/><text class="cls-2" transform="translate(72.5 333.62)">ПРОМОКОД</text></g><g id="hat"><rect class="cls-3" x="474.08" y="239.17" width="82.94" height="82.94" rx="12" ry="12" transform="translate(52.18 -266.71) rotate(9.23)"/><ellipse class="cls-4" cx="510.31" cy="309.23" rx="20.42" ry="70.56" transform="translate(123.75 575.68) rotate(-80.77)"/></g><g id="penguins"><path class="cls-5" d="M257.39,296.45a1.91,1.91,0,0,1,0-.63c.35-2.46,7.76-.69,9.33-.46,9.63,1.4,18.8.41,27.06-5.39,4.05-2.84,6.42-6.84,8.63-11,1.87,1.56-.1,3.2.07,4.83.57.82,1.82,2.5,2.55,2.24.45-.16.59-1.5.87-4.18.07-.73.12-1.18.13-1.82,0-1.33-.13-2,0-2s1.07,2.36,2,4.06c2.7,5,8.16,6.92,8.94,7.2,3.78,1.34,7.25,1,11.06.09,1.49-.35,3-.73,4.49-1.08l3.47-.83c1.12-.26,2.21-.6,3.32-.9.87-.23,2.46-.87,3.32-.59A12.89,12.89,0,0,1,340,291a16.05,16.05,0,0,1-3.59,2.92c-2.42,1.7-2.1,2.3-6.41,7.08,0,0-4.88,5.42-9.68,7a.93.93,0,0,1-1.42-.63,21.8,21.8,0,0,1-1.25-3.84c-.44-2.07-.4-4.23-1-6.25s-2.24-3.95-4.35-4.05c-1.92-.1-3.53,1.29-5.16,2.31-2.38,1.5-4.81,2-9.61,3.1A58.35,58.35,0,0,1,285,300a92,92,0,0,1-13-1,52.67,52.67,0,0,1-6-1c-.9-.32-2.34-.94-2.65-.52-.17.23.07.68.16.83C265.45,301.63,277,305,277,305s10.11,2.95,18,4.36a17.09,17.09,0,0,0,5,.29c.92-.09,1.83-.3,2.74-.43,4.09-.59,8.44.33,12.28-1.19a3.2,3.2,0,0,1,1.15-.32.9.9,0,0,1,.9.65,1.26,1.26,0,0,1-.09.54,5.65,5.65,0,0,1-3.26,3.08,16.82,16.82,0,0,1-4.52.92,35.88,35.88,0,0,1-10,.16,10.66,10.66,0,0,0-3.31-.34c-.72.1-1.39.39-2.1.51a10,10,0,0,1-4.8-.88c-5.46-1.87-11.16-3-16.6-4.88s-10.76-4.82-14.19-9.46A4.19,4.19,0,0,1,257.39,296.45Z" transform="translate(0.5 -187.67)"/><path class="cls-6" d="M712.66,356.08a63.45,63.45,0,0,1-1.29,6.24A42.7,42.7,0,0,1,706.2,375c-3.66,5.72-9.25,9.45-13.52,14.57-.34.4-1.5,2.23-2,2.3a20,20,0,0,1-7-.06,6.22,6.22,0,0,1,2.14-4.48c2.92-2.52,5.75-5.14,8.61-7.73,1.54-1.39,3.4-2.44,4.95-3.87a32.81,32.81,0,0,0,4.22-4.75,35.88,35.88,0,0,0,4-8.05,30.07,30.07,0,0,0,1.82-10.41c.91-1.24.86.74,1.61.35.2-1.17.46-2.35-1.12-3.08s-1.41-2.07-1.42-3.4c.93-1.23,1.77-2.57,3.58-2.58.23,0,.71,4.81.75,5.17A28.83,28.83,0,0,1,712.66,356.08Z" transform="translate(0.5 -187.67)"/><path class="cls-5" d="M118,379.37a20.57,20.57,0,0,0-2,.79,13.83,13.83,0,0,1-4.11.9c-3.2.26-3.92-.84-5.89-.06-1,.41-.93.75-2.14,1.28a8.74,8.74,0,0,1-4.53.56C95,382.44,89.06,384.13,86,385c-5.91,1.68-7.31,3.47-10.49,3.73a8,8,0,0,0-3.7,1.18c-.76.4-1.78,1-1.61,1.54q2.53.07,5.07.21c3.42-.75,6.81-1.63,10.24-2.32a41.41,41.41,0,0,1,5.69-.91c3.55-.28,6.74,0,6.8-.43s-1.66-.84-1.59-1.1,1.57,0,2.59.1a35.86,35.86,0,0,0,6,0c5.67-.27,7.1-1.28,9.87-1.51a3,3,0,0,0,1.33-.41,3.43,3.43,0,0,0,1.2-1.53c.68-1.44,1.09-3.09,2.28-4.14C119.55,379.52,118.28,379.29,118,379.37Z" transform="translate(0.5 -187.67)"/><path class="cls-5" d="M649,391.73c-.91.35-2.53,0-3.54,0a25.42,25.42,0,0,0-3.84-2.52c-.59-.32-2-1.16-4.12-2.07-3.16-1.38-8.78-2.18-9.56-6.29.13.66,2.11,1.18,2.65,1.47,2.43,1.32,4.76,2.91,7.57,3.2a2.77,2.77,0,0,1,1.21.3c.15.09.27.21.42.3.37.23.84.13,1.19.36s.46.7.76,1a3,3,0,0,0,2.82.67c-.12,0,.5.67.56.72.33.2.8.07,1.08.23.54.32.75,1,1.24,1.36S648.72,391,649,391.73Z" transform="translate(0.5 -187.67)"/><path class="cls-7" d="M402.48,393.12l.71-1.09.33,1.22Z" transform="translate(0.5 -187.67)"/><path class="cls-8" d="M515.17,336.64a8.75,8.75,0,0,0-4.69-5.26,14.18,14.18,0,0,0-5.23-1.08,12.11,12.11,0,0,0-6.79,1.38,6.09,6.09,0,0,0-3.12,5.85c2-.33,2.63-3.32,4.3-4.39,2-1.3,4.59-1.15,7-1a6.54,6.54,0,0,1,2.77.64,5.86,5.86,0,0,1,1.51,1.43c1.11,1.38,2.58,3.41,1.86,5.29S509.24,342,509,342c-.7.34-.93.71-1,1a3.44,3.44,0,0,0,0,1h0l-8,2a35.62,35.62,0,0,0,3.26,1.64,16.17,16.17,0,0,0,2,.81c3.67.87,7.89-1.63,9.51-4.91A9.21,9.21,0,0,0,515.17,336.64Z" transform="translate(0.5 -187.67)"/><path class="cls-6" d="M550.34,348.88s0,.05,0,.07c.63,4.25-1.36,6.84-5.21,8.26a2.46,2.46,0,0,1-.93,1.92C538.53,363,532.92,367,526,368.31c-2.22.4-4.55,1.06-6.69-.44-.49-.32-2.88.42-3.49.53-1.07.18-2.16.36-3.22.59-9.5,2-18.86,5-28.59,5.7-1.89.14-3.73-.05-5.34.76a11,11,0,0,1-3.85,1,17.64,17.64,0,0,0-5.1,1.57,22.3,22.3,0,0,0-4.6,2.52c-.22.18,4.5,3.23,4.93,3.46a21.71,21.71,0,0,0,8.23,2.37,33.79,33.79,0,0,0,9.2-.5,57.72,57.72,0,0,0,6.23-1.52c4.72-1.41,9.4-2.88,14.16-4.19s9.72-2.67,14.49-4.32a83.91,83.91,0,0,0,12.4-5.36,56.79,56.79,0,0,0,10.71-7.63c3.23-2.89,5.19-6.37,6.93-10.3a5.17,5.17,0,0,0,.54-1.78,2.61,2.61,0,0,0-.79-2C551.53,348.78,550.93,348.84,550.34,348.88Z" transform="translate(0.5 -187.67)"/><path class="cls-9" d="M478.36,334.91c1.14.28.63,1.47,1.13,2.06.6.22.72-1.67,1.55-.31-2.17,5-6.22,7.63-11,7.22-3-.25-4.24-1.52-5-5.4,2.49.55,4.89,1.3,7.31.5C477.19,339.73,477.74,339.35,478.36,334.91Z" transform="translate(0.5 -187.67)"/><path class="cls-5" d="M476.1,374.66a13.9,13.9,0,0,1-4.85.11.33.33,0,0,1-.1.06c-2.47,1.66-5.19,1.13-7.72.48-1.72-.44-2.39.08-3,1.42,1.34,1.49,2.59,3.1,4.61,3.76,3.07-1.75,6-3.59,9.73-4.08,1.38-.18,3.28-.06,4.39-1.51l.82-.9Z" transform="translate(0.5 -187.67)"/><path class="cls-10" d="M478.23,334.94a4.4,4.4,0,0,1-.09,1.73,3.35,3.35,0,0,1-1.33,2.27,3.93,3.93,0,0,1-2.38.31,5.83,5.83,0,0,1-1.71-.33,2,2,0,0,1-1.33-2.23,4.49,4.49,0,0,1,1.37-2.49,4.84,4.84,0,0,1,2.19-1.43,2.71,2.71,0,0,1,3.25,2Z" transform="translate(0.5 -187.67)"/><path class="cls-11" d="M487.15,339.27c.06.31-3.37,2.48-3.77,2.77-1.29.93-2.61,1.84-4,2.68a33.68,33.68,0,0,1-8.45,3.64,16,16,0,0,1-1.93.49,14.91,14.91,0,0,1-1.89.17,85.88,85.88,0,0,1-16.35-.64c-3.72-.56-7.26-1.88-11-2.53a20.06,20.06,0,0,0-2.78-.32c-1.18,0-1.23.35-1.36,1.51a11.83,11.83,0,0,0,1.06,5.61A31.18,31.18,0,0,0,443.58,363c1.45,1.47,3.15,2.64,4.65,4,1.85,1.7,3.94,3.19,5.91,4.74s4.23,3.28,6.31,5c.59-1.34,1.26-1.86,3-1.42,2.53.65,5.25,1.18,7.72-.48A13.88,13.88,0,0,1,464,372a26.51,26.51,0,0,1-3.26-3.54,41.87,41.87,0,0,0-6.42-5.93c-4.75-2.36-9.43-4.84-12.37-9.68,6.31,1.94,12.88,3,18.63,6.38a22.91,22.91,0,0,0,12.21,3.32c4.43.36,6.33-3.18,8.72-5.84.79-.87.57-2.33.15-3.41-.88-2.24-.34-3.53,2-4.34a3.6,3.6,0,0,0,2.62-4.11C486,342.91,487.56,341.21,487.15,339.27Zm-16.37,9.5-.13.1Zm-1.42.26Zm-.58,12.1c-.66-1.63.39-2.71,1.17-3.82a2.83,2.83,0,0,1,3.58,1C472.48,361.73,472.48,361.73,468.78,361.13Z" transform="translate(0.5 -187.67)"/><path class="cls-12" d="M475.27,326a7.43,7.43,0,0,0-2.37-.12,6.75,6.75,0,0,0-1.17.22,4.52,4.52,0,0,0-1.84,1,2.52,2.52,0,0,0-.75.88.4.4,0,0,0,.07.41,9.25,9.25,0,0,1,1.65-.67,10.16,10.16,0,0,1,2-.28c.38,0,4.5.19,4.49.23C477.46,326.81,475.89,326.15,475.27,326Z" transform="translate(0.5 -187.67)"/><path class="cls-8" d="M92.52,348.11a1.42,1.42,0,0,1,1.46-.76c5.34.2,9.69-2,13.46-5.6l.23,1.3C103.81,348.31,98.34,348.73,92.52,348.11Z" transform="translate(0.5 -187.67)"/><path class="cls-9" d="M107.67,343.05l-.23-1.3c1.36-3,.32-6.44,1.72-9.43C110.8,336.19,110.62,339.81,107.67,343.05Z" transform="translate(0.5 -187.67)"/><path class="cls-12" d="M108.53,330.73a13.32,13.32,0,0,0-2.48-2.79,14.09,14.09,0,0,0-13.84-2.27c-3.25,1.19-5.94,2.81-7,6.3a17.81,17.81,0,0,0,.48,11.38,7.46,7.46,0,0,0,2.48,3.28c.43.31,4,2.1,4.34,1.48a1.42,1.42,0,0,1,1.46-.76c5.34.2,9.69-2,13.46-5.6,1.12-1.07.8-4.37.91-5.77a11.51,11.51,0,0,1,.53-3A2,2,0,0,0,108.53,330.73ZM106,334a7.23,7.23,0,0,1-3.2,4.19c-1-.95-.45-2.19-.62-3.29l-1,.09c-.61,4.17-.87,4.44-5.19,5.22l-.05.89c1.11.15,2.35-.45,3.47.76-1.3,3.14-3.72,4.17-7,3.73-3.53-.69-5-2.21-5.43-5.58a23.2,23.2,0,0,1,1.07-9.36,1.56,1.56,0,0,0-.31,0,7.77,7.77,0,0,1,2.46-2.41c.35-.18.49-.26,1.5-.69a8.7,8.7,0,0,0,1.45-.76,4,4,0,0,0-.38-.46l.44.47c1.93,0,3.54.09,4.71.18,3.38.27,5.63.48,7,2.05a5,5,0,0,1,1,1.95A5.7,5.7,0,0,1,106,334Z" transform="translate(0.5 -187.67)"/><path class="cls-12" d="M125.69,327.24c-.18.23-.35.46-.52.7a9.35,9.35,0,0,0-1.92,5.39,5,5,0,0,1-.08.69l.24.09A2.53,2.53,0,0,0,125,334c.83-.37.83-2,1-3,.51-3,3.49-6.49,6.38-7a25.36,25.36,0,0,0,4.24-1.08c.24-.12.33-.28.31-.41s-.42-.25-.56-.27A10.42,10.42,0,0,0,131,323a16.81,16.81,0,0,0-5.31,4.24Z" transform="translate(0.5 -187.67)"/><path class="cls-5" d="M153.32,356.07A5.62,5.62,0,0,0,151,354a10.49,10.49,0,0,0-3.81-.74,4.48,4.48,0,0,1-1.72-.33c-.43-.19-1.14-1.16-1.44-1.22l-5.45-1c-6.57-1-12.84-2.53-16.85-8.54-1.79-.95-2.68-3.11-5.21-3.76-3.58,2.88-11.75,12.3-12.07,12.48a34.57,34.57,0,0,1-8.61,3.29,48.09,48.09,0,0,1-4.93.92c-1.19.17-2.39.24-3.58.44a33.38,33.38,0,0,0-3.72.84,31,31,0,0,0-3.39,1.2c-.55.23-1.1.48-1.64.74s-.85.57-1.31.86c0,0-.15.09-.41.28s-.37.24-.37.3.25.28.51.29c.43,0,.56-.4,1.27-.86a3.3,3.3,0,0,1,1.1-.49l1.26-.16,2.54-.32c1.69-.22,3.37-.45,5.06-.7a88.22,88.22,0,0,0,9.91-2,13.32,13.32,0,0,0,3.3-1.4c1-.6,2-1.25,3-1.92l2.27-1.55a18.2,18.2,0,0,1,2-1.36,5.55,5.55,0,0,1,2.5-.57,6.38,6.38,0,0,1,2.45.37,6.9,6.9,0,0,1,3.08,2.6c1.1,1.67,2,2.3,1.91,3.36,0,.52-.19.54-.74,2-.78,2.05-.57,2.32-1,3-1.18,1.86-4,1.79-4,2s3.26-.84,5.71-.79a6.88,6.88,0,0,0,1.35-.42s0-.79,0-.87a4.13,4.13,0,0,1,.24-.83,6.53,6.53,0,0,1,.84-1.44c.41-.53.93-1,1.36-1.5s.88-1.08,1.29-1.64.87-1.23,1.37-1.8c.23-.26.48-.51.72-.76a.87.87,0,0,1,.22-.17c.35-.18.84.16,1.17.28s.65.26,1,.42a14.57,14.57,0,0,1,1.8,1c1.15.76,2.22,1.62,3.31,2.45a23.42,23.42,0,0,0,2.63,1.79c1.51.86,5.09-.5,6.83-.59a33.92,33.92,0,0,1,7.94.5c1.41.35,2.84.87,3.2.35S153.65,356.57,153.32,356.07Z" transform="translate(0.5 -187.67)"/><path class="cls-6" d="M326.3,310.87h0v0Z" transform="translate(0.5 -187.67)"/><path class="cls-6" d="M325.4,311.76h0Z" transform="translate(0.5 -187.67)"/><path class="cls-6" d="M327.19,310h0v0Z" transform="translate(0.5 -187.67)"/><path class="cls-6" d="M345.54,280.51a1,1,0,0,0-.4-.63c-.34-.19-.75,0-1.07.24-3,2-5.76,4.4-9,5.94a21.2,21.2,0,0,1-21.92-2.85,24.68,24.68,0,0,1-6.38-8.13c-.34-.7-.76-1.49-1.52-1.69a22.4,22.4,0,0,0,.79,5.28,16.26,16.26,0,0,0,2.81,4.94,17.93,17.93,0,0,0,9.72,6.08c4.18,1,8.48.23,12.6-.68,3.19-.71,6.32-1.65,9.45-2.61.46-.15,2.45-1,1.81.24-1.53,3.1-4.31,5.35-6.75,7.72l-8.72,8.5a20,20,0,0,1-5.54,4.24c-1.7.76-3.64,1-5.09,2.21s-1.86,2.72-3.75,3.17a16.12,16.12,0,0,1-3.11.24c-2.2.07-4.37.52-6.58.6a37.76,37.76,0,0,1-6-.6c-.6-.08-7.76-1.26-7.89-.72-.08.32,3.84,1.57,5.95,2.19a7.34,7.34,0,0,0,1.36.38c4.28.55,8.38,2.36,12.69,2.36a28.59,28.59,0,0,0,9.65-2c4.77-1.83,8.77-5.13,12.27-8.77A129.68,129.68,0,0,0,341,294.34c.71-.94,1.4-1.91,2.06-2.9.51-.77,1.59-2,1.76-2.87C345.37,286,346.32,283.15,345.54,280.51Z" transform="translate(0.5 -187.67)"/><path class="cls-6" d="M324.51,312.65h0Z" transform="translate(0.5 -187.67)"/><path class="cls-6" d="M323.62,313.55h0Z" transform="translate(0.5 -187.67)"/><path class="cls-9" d="M297.73,263.78l-1.69.84c.06,1.87,0,3.71-1.56,5.18l-2-.57c-.88,4.18-1,4.28-5.45,4.54-2.18,2.54-4.38,2.21-6.37-.95l-.87-1h-.35c-.52-.27-1-.68-.95.17a8.85,8.85,0,0,0,1.44,4.26,8.66,8.66,0,0,0,1.24,1.75c1.81,1.85,3.71.68,5.78,0,3.95-1.24,4.81-1.3,5.49-1.66.24-.13.23-.16.51-.34,2-1.31,3.75-1.1,4-2,.1-.37-.17-.52,0-1a1.86,1.86,0,0,1,1-1,2.49,2.49,0,0,1,1.47-.23C299.86,268.89,298.88,266.32,297.73,263.78Z" transform="translate(0.5 -187.67)"/><path class="cls-8" d="M281.43,278.07c5.7-1,11.42-1.86,15.95-6,.59-.53,1.37-.35,2.09-.33.26,0-1.19,4.85-1.41,5.29-2.63,5.23-11,6.11-15.3,2.66A9.42,9.42,0,0,1,281.43,278.07Z" transform="translate(0.5 -187.67)"/><path class="cls-12" d="M294.75,260.5c-.21-.14-.4-.25-.56-.34a10.25,10.25,0,0,0-5.48-1.44,10.42,10.42,0,0,0-8.28,4.85,12.26,12.26,0,0,0-1.85,4.71c-.12.7-.6,4.49.42,4.72.17,0,.47-.1,1-1a14.76,14.76,0,0,1,.41-4.43,12.77,12.77,0,0,1,.73-1.8c.11-.22.24-.44.37-.66a7.9,7.9,0,0,1,4.8-3.9,8.26,8.26,0,0,1,3.21-.07,11.72,11.72,0,0,1,1.82.43,16.5,16.5,0,0,1,2.73.91,2.92,2.92,0,0,1,1.23,1.06c.48.75.32,1.32.7,1.46s.65-.21,1.41-.83a.56.56,0,0,0,.26-.38C297.7,262.61,295.91,261.25,294.75,260.5Z" transform="translate(0.5 -187.67)"/><path class="cls-11" d="M305,273c.29,1.65.55,2.88.74,3.75a13.47,13.47,0,0,1,.36,3.23c0,.22,0,.45-.06.68-.16,1.37,0,2.77-.2,4.14,0,.38-.15,1.66-.56,1.81s-1.35-.86-1.58-1.18a11.3,11.3,0,0,1-1.15-1.55,2.17,2.17,0,0,1,.17-1.59c.41-1.24.84-2.38-.34-3.36a14.15,14.15,0,0,1,.88-2.94A13.65,13.65,0,0,1,305,273Z" transform="translate(0.5 -187.67)"/><path class="cls-5" d="M691.81,354.9c.65-.16,1.29-.34,1.93-.52,4.06-1.18,8.16-2.81,11.11-5.84.53-.54,2.62-2.93,3.6-2.16.3.24.14,1.48.27,1.89a2.31,2.31,0,0,0,1.25,1.48c1.58.73,1.32,1.91,1.12,3.08-.75.39-.7-1.59-1.61-.35a42.57,42.57,0,0,1-10,8.67q-6.48,3.84-13,7.65c-5,.79-5.66-4.19-8.22-6.32a2.4,2.4,0,0,0-2.58,2.58,37.13,37.13,0,0,0,.51,7.53c.65,3.35.8,3.43.74,4.41s-.23,3.54-2.23,5a5,5,0,0,1-2.64.87c-.25-4.82-.51-9.36-2.3-13.92a41,41,0,0,1-2.08-5.53c-.41-1.7-1.56-2.26-3.21-2.63-.14,2.39-6.92,5.1-8.37,5.37-1.72.31-6.66-.76-8.34-.59-2.6.27-5.15-.61-7.72-1.09-2.33-.43-4.7-.54-7-.94a23,23,0,0,1-6.46-2.34c-1.61-.79-3.73-1.26-5.17-2.29a1.91,1.91,0,0,1-.88-1.83c6,2.32,12.44,4.09,18.92,3.58a73.16,73.16,0,0,0,8.72-1.35,17.42,17.42,0,0,0,12.3-9.27c.55-1,1.47-3.88,3-3.34a3.16,3.16,0,0,1,1.07.74c3.38,3.14,6.2,6.26,10.75,7.72C680.66,356.83,686.39,356.28,691.81,354.9Z" transform="translate(0.5 -187.67)"/><path class="cls-12" d="M654.38,344.67a2,2,0,0,1-2,2.7.61.61,0,0,0-.38.05.54.54,0,0,0-.21.32,9.38,9.38,0,0,1-6.36,5.74,5.41,5.41,0,0,1-2.64.07,6.29,6.29,0,0,1-3.73-2.77A7.32,7.32,0,0,1,638,346a7.46,7.46,0,0,1,4.64-6.34,9.35,9.35,0,0,1,5.54-.36,10.3,10.3,0,0,1,1.62.43,7.93,7.93,0,0,1,.81.34c1.49.73,1.79,2,2.39,1.93.33,0,.75-.41,1.2-2-.47-1.88-3-3-4.7-3.26-5.53-.87-10.86,1.26-12.63,6.92a11.81,11.81,0,0,0-.63,5.17,10.15,10.15,0,0,0,2.32,4.45,6.43,6.43,0,0,0,1.54,1.39A8.13,8.13,0,0,0,644,356a11.61,11.61,0,0,0,6-1c1.82-.78,4.11-1.75,5-4a34.29,34.29,0,0,0,.41-3.68c.09-.89.16-1.79-.41-2.32A1.57,1.57,0,0,0,654.38,344.67Z" transform="translate(0.5 -187.67)"/><path class="cls-5" d="M615,364c.4-.26,1.85.88,2,1a4.31,4.31,0,0,1,1,1c.89,1.35.09,2.56.82,3.51a2.45,2.45,0,0,0,2,.8,2.45,2.45,0,0,0,2.46,3.58,5,5,0,0,0,1.5,4,26.58,26.58,0,0,0,2.37,1.73c.46.36,1.67,1.43,1.49,2.14-.15.55-1.37.19-1.77.93a38.57,38.57,0,0,1-4-3.91C617.11,372.28,614.15,364.56,615,364Z" transform="translate(0.5 -187.67)"/><path class="cls-13" d="M639,354a12.14,12.14,0,0,0,3.27,1.25,12.43,12.43,0,0,0,7.38-.61,12.3,12.3,0,0,0,4.82-3.73l1.19-.07a9.6,9.6,0,0,1-8,6.88C642.46,358.35,639.16,354.2,639,354Z" transform="translate(0.5 -187.67)"/><path class="cls-9" d="M655.33,345.58l-.92-1c.08-1.55-1.32-2.32-1.86-3.53.32-.87,1.09-.86,1.81-.93a5.82,5.82,0,0,1,1.79,5.36Z" transform="translate(0.5 -187.67)"/><path class="cls-8" d="M655.33,345.58l.82-.08a1.51,1.51,0,0,1,.13.81c0,.68,0,1.36,0,2.05-.1.86.24,1.82-.64,2.48l-1.19.07A12.14,12.14,0,0,0,655.33,345.58Z" transform="translate(0.5 -187.67)"/><path class="cls-6" d="M630.36,383.62a2.35,2.35,0,0,1-1.79-1.62c-.65,0-1.35-.06-1.74.65-.05.1.9.69,1,.76a15.9,15.9,0,0,1,1.36,1c.87.7,1.68,1.47,2.52,2.19q.46.4,1,.78c.88.67,1.83,1.25,2.76,1.85a28.2,28.2,0,0,0,2.89,1.72l.3.14a10.73,10.73,0,0,0,1.18.47c.21.07.41.13.62.18s4.72.06,5,.05C641.28,388.36,630.64,384.28,630.36,383.62Z" transform="translate(0.5 -187.67)"/><path class="cls-11" d="M109.21,369.48a1.25,1.25,0,0,1,.94-.9c4,1,7.81,2.25,10.31,5.86-3,2.23-6.08,3.43-9.47.61-.38-.31-1.13-.18-1.71-.25C111.09,373,109.48,371.25,109.21,369.48Z" transform="translate(0.5 -187.67)"/><path class="cls-6" d="M174.53,375.32c0-.33-.07-.65-.12-1a26.91,26.91,0,0,0-30.56-22.54c.57,1.35,2.42,1.38,3.88,1.51a8.87,8.87,0,0,1,4.64,1.52c1.08.86.69,1.53,1,2.64s.76,1,1.9,1.52c4.7,2,9.63,4.13,12.09,8.95-1.13,2.15-2.54,4.52-4.9,5a9.62,9.62,0,0,1-3.42-.15,37.81,37.81,0,0,0-10.41.07c-1.5.18-6,0-7.59.09-1.8.07-4.9,1.34-11.09,3.88a7.12,7.12,0,0,1-1.86.51c-3.1.41-6.26.12-9.37.18-3.36.06-6.72.19-10.07.37-3.63.21-7.25.48-10.87.83-3.31.32-6.79,1.15-10.1,1.15-1.43.19-2.85.38-4.27.59-1.57.22-3.16.48-4.75.59s-3.18-.43-4.72,0a5.49,5.49,0,0,0-3.6,4.68c4.16-.61,8-2.05,12-3.23a100.37,100.37,0,0,1,11.13-2.45,33.19,33.19,0,0,1,6.58-.69c2.83.08,5.65.88,8.5.57s5.74-1.11,8.75-.59a21.43,21.43,0,0,0,2.41.06c-1.84,1.25-1.6,4.37-3.48,5.58a5.08,5.08,0,0,1-2,.61,70,70,0,0,1-15.3.68,4.47,4.47,0,0,0-1.93.15,1.45,1.45,0,0,0-1,1.52c9.46,1,19.07,1.93,28.41.2,7.89-1.47,15.35-4.82,23.24-6.28a66.86,66.86,0,0,1,17.93-.56c3,.26,6.57.37,8.18-2.13A6.06,6.06,0,0,0,174.53,375.32Z" transform="translate(0.5 -187.67)"/><path class="cls-5" d="M109.21,369.48c.27,1.77,1.88,3.52.07,5.32l-1.37,0C107.85,372.93,107.44,370.94,109.21,369.48Z" transform="translate(0.5 -187.67)"/><path class="cls-10" d="M100.46,374.85c.88-1.22,1.74-1.2,2.59,0Z" transform="translate(0.5 -187.67)"/><path class="cls-14" d="M423.14,360.67l.07-.05s0,0,0,0Z" transform="translate(0.5 -187.67)"/><path class="cls-14" d="M430.24,342.91h0v0Z" transform="translate(0.5 -187.67)"/><path class="cls-14" d="M431.14,341.1h.07s0,0,0-.06Z" transform="translate(0.5 -187.67)"/><path class="cls-14" d="M562.71,359.74c0-1.17-.05-2.34-.07-3.51A13.35,13.35,0,0,0,561.5,349c-.62-2.32-1.45-4.48-4-5.29-2.47-2.32-5.73-1.37-8.66-2,.45-1.72.89-3.38,1.32-5,2-7.76-8.76-7.71-13.67-8.11a103.68,103.68,0,0,0-18.14.12c-.88.09-11.27.48-11.31,1.31,0,.49,3.4.47,6,3a9.24,9.24,0,0,1,2.25,3.63,14.76,14.76,0,0,1,.26,2.2c.16,3.63-.75,6.85-4.25,8.58a27.83,27.83,0,0,1-2.87,1c-2.18.88-5,0-7.14-.82-3.41-1.27-5.34-3.77-6.45-7.18a4.48,4.48,0,0,1,.41-3.61c-.3-1.21,2.17-4,3.51-5.7-1.81,0-3.65-.16-5.41.5-4.08,1.17-7-.32-9.61-3.56-1.95-2.44-3.76-4.89-6.41-6.58s-8.16-4.84-7.91-5a50.17,50.17,0,0,0-7-3.27c-4.38-1.67-8.92-3.11-13.24.35-5,6.14-7.45,13.28-8.23,21.28-4-.64-6.36,1.28-8,4.37-.34.81-.17,2.1-1.64,1.84.5,1,.35,1.7-.95,1.81.45,2-.55,3.42-1.75,4.79-.16.47-.33.94-.49,1.4a20.39,20.39,0,0,1-2.55,7.13c-.7,1.49-.39,3.52-2.26,4.39.52,4.05-1.08,7.77-1.85,11.6-.73,3.61-1.82,7.13-2.76,10.69l2.82.37a9.27,9.27,0,0,1,4.44-.2,36.32,36.32,0,0,1,11.9.64c4.76.93,6.29,3.22,4.71,7.89-.41,1.21,7.79,1,8.23,1h10.42l20.82,0,41.66-.06c6.3,0,12.6,0,18.89,0-.9-2.51.2-4.17,2.25-5.52a29.69,29.69,0,0,1,6-2.56c3.11.48,6-.73,9-1.16C561.21,375.5,563.3,367.79,562.71,359.74ZM472.36,339c-2.66-3.22.61-4.47,2.09-6.3,1.09-.25,2,.41,3,.57l.95,1.66c1.14.28.63,1.47,1.13,2.06.6.22.72-1.67,1.55-.31-2.17,5-6.22,7.63-11,7.22-3-.25-4.24-1.52-5-5.4C467.54,339,469.94,339.78,472.36,339Zm76.84,19.79C540.71,369.19,529,374,516.56,377.65c-10.12,2.33-19.81,6.2-30,8.3-2.79.57-5.57.22-8.32.66l-3.39-.41-8.62-4.32c-.33,0-.35-.31.1-.23l-13.78-11c-6.44-5.15-13.16-10.68-16-18.41a10.94,10.94,0,0,1-.73-6,1.11,1.11,0,0,1,.24-.54,1.08,1.08,0,0,1,.77-.22c2.82,0,5.54,1,8.26,1.69a63.49,63.49,0,0,0,15.78,1.93,44.47,44.47,0,0,0,9.43-.75,29.25,29.25,0,0,0,9.1-3.6c2-1.23,8.72-6.23,8.68-5.69,5.66,10,14.8,13.3,25.61,13.42a179.36,179.36,0,0,0,24.17-1.8c1.78-.71,3.83-.27,5.53-1.33l6.94-.43.88-.74a2.62,2.62,0,0,1,1.72,2.63A44.44,44.44,0,0,1,549.2,358.77Z" transform="translate(0.5 -187.67)"/><path class="cls-14" d="M482.88,333.16s0,0,0,0h0Z" transform="translate(0.5 -187.67)"/><path class="cls-14" d="M482.44,333.46l-.07.07Z" transform="translate(0.5 -187.67)"/><path class="cls-14" d="M482.68,333.26l-.1.06Z" transform="translate(0.5 -187.67)"/><path class="cls-14" d="M478.32,328.65Z" transform="translate(0.5 -187.67)"/><path class="cls-14" d="M482.28,333.66l-.07.09Z" transform="translate(0.5 -187.67)"/><path class="cls-14" d="M482.15,333.88a.93.93,0,0,0,0,.1A.93.93,0,0,1,482.15,333.88Z" transform="translate(0.5 -187.67)"/><path class="cls-14" d="M482,334.47h0Z" transform="translate(0.5 -187.67)"/><path class="cls-14" d="M481.85,335.5a.64.64,0,0,0,0,.07A.64.64,0,0,1,481.85,335.5Z" transform="translate(0.5 -187.67)"/><path class="cls-11" d="M316.62,308.69l.09.14a6.47,6.47,0,0,1-2.77.37c-2-.05-4-.25-6-.19-2.84.07-5.6.82-8.44.85a39.37,39.37,0,0,1-9.17-1.15c-4-.91-7.89-2.2-11.86-3.17-4.47-1.08-9.13-1.81-13.11-4.13a5.55,5.55,0,0,1-1.64-1.32c-.22-.29-.91-3.45-.27-3.35,4.58.7,9,1.55,13.46,2,5.92.55,11.7,1.12,17.73.18,5.12-.79,10.1-1,14.26-4.61.91-.79,2.46-.82,3.88-1.25a8.08,8.08,0,0,1,4.43,8.3c-1.44.46-1.47-2.22-3.09-1.51-.3.13.65,4.9.83,5.56A13.61,13.61,0,0,0,316.62,308.69Z" transform="translate(0.5 -187.67)"/><path class="cls-15" d="M316.67,308.66c-1.8-2.64-1.8-2.64-2.55-8.85,1.62-.71,1.65,2,3.09,1.51-.24,2.47,1.72,4.41,1.67,6.84Z" transform="translate(0.5 -187.67)"/><path class="cls-7" d="M293.22,236.2c.14-1.35.76-2.08,2.21-1.67.79.22,1.56.53,2.34.8l.2,2.42-.3.35C296.14,237.56,294.47,237.39,293.22,236.2Z" transform="translate(0.5 -187.67)"/><path class="cls-16" d="M303.18,238.8c1.11.12,2.33-.26,3.5.77-.82,3.32-2.74,1.69-4.42,1Z" transform="translate(0.5 -187.67)"/><path class="cls-10" d="M299.61,237.93c.56.25,1,.75.64,1.27-.56.8-1.16.38-1.64-.24A1.46,1.46,0,0,0,299.61,237.93Z" transform="translate(0.5 -187.67)"/><path class="cls-7" d="M299.61,237.93a1.46,1.46,0,0,1-1,1l-.94-.86.3-.35Z" transform="translate(0.5 -187.67)"/><path class="cls-14" d="M319.81,243.66l-.27.08c-.08-.28-.44-.62.14-.8Z" transform="translate(0.5 -187.67)"/><path class="cls-15" d="M114.58,361.52a8.07,8.07,0,0,1-3.39,0c-1.55-2.2-1.32-4.35.23-6.59,1.16.44,2.54.18,3.66,1.42A5.17,5.17,0,0,1,114.58,361.52Z" transform="translate(0.5 -187.67)"/><path class="cls-11" d="M78.11,358.82l0,0v0Z" transform="translate(0.5 -187.67)"/><path class="cls-11" d="M117.08,352.1a7.11,7.11,0,0,0-5.3-3.56c-2.28-.12-4.79,1.63-6.64,2.83-2,1.33-3.7,3-6,3.85a44.27,44.27,0,0,1-6.65,1.55c-2.44.45-4.89.81-7.35,1.14l-3.59.47c-.74.09-2.74,0-3.35.42-.21.91-.94.91-1.67.92-8.17,6.49-11,15.83-13.26,25.37-.48,2.06-1.42,4.24-1,6.49,1.18,0,2.37,0,3.56,0,1.38-.11,2.77-.13,4.17-.12l-.06,0c2.45-3,6.41-2.52,9.61-3.66a94,94,0,0,1,11-3.69,35.61,35.61,0,0,1,9.11-1.25c1.89.06,3.73.21,5.42-1.27,1.27-1.11,3.15-.42,4.75-.45,2.64-.06,5.29.09,7.49-1.77-4.53-.36-8.36-.41-11.3-.37-3.6.05-6.2.25-7,.32-1.34.11-3.51.29-6,.68a81,81,0,0,0-13.32,3.34A40.52,40.52,0,0,1,74,385c-1.56.33-2.85.5-3.68.6l-.9.37h0l-1.78-.36c-.41-1.65.53-5.38.79-6a70.57,70.57,0,0,1,5.34-10.73,17.35,17.35,0,0,1,4.44-5.29c2.13-1.52,4.77-2.13,7.33-2.68,4.42-.94,9-1.81,13.5-1.54a25.32,25.32,0,0,1,6.67,1.39c.74.25,5.41.66,5.48.75-1.55-2.2-1.32-4.35.23-6.59,1.16.44,2.54.18,3.66,1.42a5.17,5.17,0,0,1-.5,5.2l1.84-.11a3.5,3.5,0,0,0,.89-.58,4,4,0,0,0,1-2.67,10.73,10.73,0,0,1,.2-1.45c.18-1,.35-1.29.4-1.67C119,354.28,118.17,353.75,117.08,352.1Zm-47.93,34c-.79.46-1.23.25-1.45-.33A.94.94,0,0,0,69.15,386.15Z" transform="translate(0.5 -187.67)"/><path class="cls-14" d="M360.22,353.56a335.2,335.2,0,0,0-1.3-38.43c-.45-5.4-.85-10.89-3-16-.1-.83-.2-1.67-.31-2.5q-3.09-8.91-6.2-17.81c-2-3.74-4.1-7.44-8-9.62a39.81,39.81,0,0,0-.37-9.86c-1.56-2-1.43-4.45-1.93-6.74-2.56-3.75-4.15-8.13-7.36-11.46-2.25-1.57-4.26.15-6.38.46-.36.77-1.07.79-1.77.83-1,1.19-2.43,1.13-3.8,1.23l-.27.08c-1.78,2.7-5.09,2-7.47,3.33l-3.7.94a8.26,8.26,0,0,0-3.44.57c-1.84-.36-3.11-1.59-4.45-2.76-6.89-6-14.64-9.87-24-9.78l-1.91.06-1-.08-1.79.61.09,0c-5.66,2.18-8.76,6.81-11.28,11.93-.85,1.72-1.43,3.57-2.13,5.35-.51,2.43-1.19,4.83-1.5,7.27-.86,6.67-.51,8.42,2.84,17.33C259,280,257,280,256,281.34c.21,1.56-.77,2.67-1.34,4-1.55,3.6-3,7.38-.76,11.32l3.43-.2c-.23-1.47.68-1.8,1.85-1.77a67.45,67.45,0,0,1,7.49.68c9.63,1.4,18.8.41,27.06-5.39,4.05-2.84,6.42-6.84,8.63-11,.76-1.82.71-4,2.61-5.31a.78.78,0,0,1,.83,0,69,69,0,0,0,4,6.29,22.34,22.34,0,0,0,7.76,6.22c3.34,1.6,7.46,1.89,11.11,1.64a17.65,17.65,0,0,0,4.78-.9,23.55,23.55,0,0,0,5.91-3.46,37.37,37.37,0,0,1,4.4-3.13c.66-.36,1.29-.71,1.72.11.85,1.6.2,4.12-.12,5.77a12.53,12.53,0,0,1-.7,2.64,10.71,10.71,0,0,1-1,1.81c-4.68,7.27-11.07,13.47-16.81,19.9a29.92,29.92,0,0,1-4.45,4.34,13.12,13.12,0,0,1-6.27,2.27c-1.61.24-3.22.46-4.83.68a17.38,17.38,0,0,1-2.15.21,14.5,14.5,0,0,1-3.21-.37,44.8,44.8,0,0,1-6-1.65c-2.7-.93-4.62-1.22-7,.52a8.8,8.8,0,0,0-3.15,4.17,7.09,7.09,0,0,1-2.95,3.23,14.49,14.49,0,0,0-6.31,8.69,7.46,7.46,0,0,1-5.64,6.23c-.57,6.29-3.51,11.46-7.05,16.94,4.76.36,3.32,6.67,8,6.62.94-1.6,1.08-3.84,3.42-4.19,2.32,2.45,2.37,2.52,2.54,4.8.09,1.31-.18,2.64.43,3.93a4.83,4.83,0,0,1,0,4.26c-.91,2-2.75-.38-3.9.83-.49,4.36,5.65,2.15,5.86,6.38-3.67-.66-4.69,1.88-5.69,4.65-.46,1.27-.76,2.91-2.11,3.29-2.24.25-1.24-2.46-3.37-2.45-2.72.55-2.82,3.27-3.58,5.49a4.36,4.36,0,0,0,4,2.45c5.49,0,11-.26,16.51-.07,7.52.26,30.56.18,34.53.06s8,.07,12,.07c5.17,0,11.08-.81,15.76,1.89a4.61,4.61,0,0,1,.63-.2c-.52-4,1.58-6.31,4.95-7.85,2.75-.58,5.62-.65,8.21-1.91C362.31,374.05,359.9,364,360.22,353.56Zm-60.75-81.79c.14,2.25-1.14,4.12-1.68,6.18.63.24,1,.8.68,1.32a8.22,8.22,0,0,1-3.3,3.07,1.6,1.6,0,0,1-.92-1.6c-3.95,1.06-7.9,1.87-11.49-1a2.79,2.79,0,0,1-.39-.38c1.37,3-.08,7.33-4.33,7.33a4.67,4.67,0,0,1-3.36-1.29,5.1,5.1,0,0,1-2-4.34,5.12,5.12,0,0,1-2.14-5.2c-2.41-2.81-1.19-8.42,3.63-8.42a4.54,4.54,0,0,1,4.23,2.46c-.07-7,6.91-13.18,13.64-11.38,2.63.7,4.36,2.87,5.65,5.28S299.86,268.89,299.47,271.77Zm21.25-15.62a5.74,5.74,0,0,1-4.18.55c-1.45-.2-2.69,1-4.23.48C315.74,254.34,316.88,254.18,320.72,256.15Zm10.55,10.68c-1.72.94-2.55,0-3.3-1.49-.84-1.67-1.47-3.57-3.55-4.22-.14,1.5,1.19,2.72.84,4.26.25,1.21-.19,1.91-1.48,2l-.18,1.72c0,1.11,0,2.22,0,3.34,1.65-.1,2.65-1.63,4.23-2C327,275.68,326,277,321.46,278c-.6.14-1.13.25-1.43.83-2.17-.22-4.2-.75-5.61-2.6-1.29,0-1.93-.87-2.5-1.84-1.92-.14-2.44-1.81-2.4-3.07.07-2.64-1-5.07-1-7.65l1.83.07c2.74-5.5,6-6.67,11.34-4.07,1.27-.22,1.57,1.43,2.74,1.41.21-1.51-.47-3.33,1.46-4.27C331.16,259.64,331.9,261,331.27,266.83Z" transform="translate(0.5 -187.67)"/><polygon class="cls-14" points="324.11 125.89 324.12 125.89 324.12 125.88 324.11 125.89"/><path class="cls-14" d="M324.5,312.67h0v0Z" transform="translate(0.5 -187.67)"/><path class="cls-14" d="M327.16,310h0a0,0,0,0,0,0,0Z" transform="translate(0.5 -187.67)"/><path class="cls-14" d="M325.38,311.78h0v0Z" transform="translate(0.5 -187.67)"/><path class="cls-14" d="M326.27,310.9h0v0Z" transform="translate(0.5 -187.67)"/><path class="cls-13" d="M232,397.79a.69.69,0,0,1-.55-.93.83.83,0,0,1,.68-.36.63.63,0,0,1,.55.9C232.57,397.58,232.19,397.66,232,397.79Z" transform="translate(0.5 -187.67)"/><path class="cls-17" d="M592,387.13a1.44,1.44,0,0,1-1.61.45,6.17,6.17,0,0,1-1.57-.86c-3-1.91-6.62-1.92-10-2.09-1.85-.09-4.66.13-6.33-.79s-1.42-2.34-1.59-4.07c-.93-9.87-1.28-19.8-2.7-29.62-1.35-9.29-3.68-18.57-8.43-26.74-6.9-11.85-16.87-16.89-30-19.85-24.86-5.61-56.68-11-78.15,6.14-7,5.57-11,13.36-15.35,21a221.3,221.3,0,0,0-12.66,26.23q-1.63,4.06-3.12,8.17c-1.5,4.2-2.9,8.48-5.2,12.31s-5.62,7.22-9.85,8.63c-2.64.89-5.48,1-8.24,1.41-1.35.22-2.92.75-3.28,2.07a2.64,2.64,0,0,0,1.38,2.76,7.68,7.68,0,0,0,3.19.77c2.22.2,4.45.39,6.69.37,2.86,0,5.77-.42,8.57.19,7.71,1.68,12.16,10.09,19.47,13.06A14.06,14.06,0,0,0,438,397.3c.12-1.46.11-3.13,1.2-4.09a10.77,10.77,0,0,1,2-1.07,4.49,4.49,0,0,0,.4-7.18,8.07,8.07,0,0,0-3.55-1.17,77.88,77.88,0,0,0-19.17-.66c.21,0,1.19-6.43,1.32-7.06.51-2.4,1.07-4.78,1.7-7.15q1.86-7.1,4.4-14c1.3-3.53,2.85-6.88,4.38-10.28,1-2.29,1.75-4.76,3.17-6.87A6.43,6.43,0,0,1,438,335.1c.61-.15,1.24-.29,1.86-.41.94-.18,1,.19,1.3-.89a22.34,22.34,0,0,0,.39-2.43,31.93,31.93,0,0,1,1.87-7.77,36.06,36.06,0,0,1,5.71-10c4-4.9,12.58-.67,16.83,1.24a46.07,46.07,0,0,1,15.66,10.85c2.11,2.35,4.1,5.14,7.13,6a14.14,14.14,0,0,0,6.17-.11,226.12,226.12,0,0,1,46-2.73c3.44.15,7.53.8,9,3.94.74,1.65.25,7.7-1.05,8.89,3.37.62,6.76.13,9.67,2.4,3.23,2.52,4,7,4.19,11.13a86.33,86.33,0,0,1-1.09,17.66,69,69,0,0,1-1.55,8.94c-.52,1.78-.88,1.62-2.79,2a36.76,36.76,0,0,1-4.79.65c-.62.05-1.24.08-1.86.17a15.11,15.11,0,0,0-5.25,2.06c-.88.51-5.4,5.35-2.42,5.87a4.88,4.88,0,0,0,1.2-.11,2.73,2.73,0,0,1,2.36,1.45,9.7,9.7,0,0,1,.89,2.76,35,35,0,0,0,1.85,5.75,5.83,5.83,0,0,0,1.52,2.33c1.3,1.06,3,.37,4.27-.32,7.46-3.93,15-7.69,22.48-11.63a6.9,6.9,0,0,1,1.68-.71,7.17,7.17,0,0,1,1.54-.11c4,0,8.22-.39,12.17.31C593.59,392.44,592,387.4,592,387.13Z" transform="translate(0.5 -187.67)"/><path d="M641.05,386.42v0h0Z" transform="translate(0.5 -187.67)"/><path d="M646.39,389.08v0h0Z" transform="translate(0.5 -187.67)"/><path d="M644.61,388.19l0,0h0Z" transform="translate(0.5 -187.67)"/><path d="M639.27,385.53v0h0Z" transform="translate(0.5 -187.67)"/><path d="M709.45,352.72c-.77.26-1.62,1.49-2.2,2.09-.78.81-1.56,1.62-2.39,2.37a33.85,33.85,0,0,1-5.35,4q-6.48,3.84-13,7.65c-1.11.66-2.08,2.51-2.78,3.57-.87,1.33-1.67,2.71-2.52,4.06a19.63,19.63,0,0,1-2.9,3.94,5.63,5.63,0,0,1-2.93,1.6,1.17,1.17,0,0,0-.63.22c-.12.11-.18.28-.29.4-.35.41-1,.26-1.51.52-.26.15-.44.42-.71.57a1.89,1.89,0,0,1-.92.17c-3.9,0-7.49-.17-11.12-1.75a22,22,0,0,1-4.94-3,45.77,45.77,0,0,1-4.08-4.29,5.49,5.49,0,0,0-2.76-1.27c-2.4-.7-4.8-1.39-7.19-2.12-8.41-2.53-16.53-5.29-24.06-9.92.1,2.94,1.92,5.61,3.34,8.09.45.73,1,1.43,1.45,2.14a33.05,33.05,0,0,0,2.37,3,26.94,26.94,0,0,0,2.52,2.37,62.11,62.11,0,0,0,11.18,7.37c2,1.05,4,2,6,3s4.08,1.69,6,2.83a10.34,10.34,0,0,0,2.21,1.41,8.64,8.64,0,0,0,2.54.1c4.92,0,9.85.07,14.78.09,2.49,0,5,0,7.47,0,1.24,0,2.49,0,3.73-.06.61,0,2.47.22,2.94-.24a1,1,0,0,0,.22-.47,8.76,8.76,0,0,1,1-2.86,11.54,11.54,0,0,1,2.22-2.25q3.23-2.7,6.32-5.55c1.92-1.77,4.11-3.16,6-4.92a31.39,31.39,0,0,0,10-21.93A5.91,5.91,0,0,0,709.45,352.72Z" transform="translate(0.5 -187.67)"/><path class="cls-6" d="M677.9,380.87c-.33.31-.68.62-1,.91-2,1.59-4.69,2.8-7.3,2.13.77-.86,2-1,3.1-1.46,2.94-1.27,3.82-4.82,3.8-7.75,0-2.27-.46-4.51-.62-6.78-.1-1.41-.64-3.7.57-4.81.27-.25,1.57-.93,1.92-.63,2.56,2.13,3.26,7.11,8.22,6.32C683.1,372.37,681.46,377.44,677.9,380.87Z" transform="translate(0.5 -187.67)"/><path class="cls-15" d="M668.11,383.74c-3.58-4.25-1.84-9.14-2.17-13.89a6.48,6.48,0,0,1,1.71-.08c1.8,4.52,3.65,9.06,1.52,14Z" transform="translate(0.5 -187.67)"/><path class="cls-12" d="M497.05,343.42a10.42,10.42,0,0,0,1.65,1.86c1.81,1.61,3.35.69,5.33,0a21.15,21.15,0,0,1,5-.82c0-.09-.26-.66-.45-1.22-.25-.72-.06-1.05-.26-1.19-.41-.29-1,.81-2.32,1a6.31,6.31,0,0,1-3.18-.8.63.63,0,0,0-.24-.1h-.13c-.11-.38-.58-.17-.91-.18a6.17,6.17,0,0,1-3.18-.64A3.63,3.63,0,0,1,497,339c-.14-.83.15-1.05,0-2s-.57-2-1-2c-.71,0-.9,1.51-.94,2a9.42,9.42,0,0,0,.51,3.41A11.12,11.12,0,0,0,497.05,343.42Z" transform="translate(0.5 -187.67)"/><path class="cls-12" d="M478.3,328.64c.16.14.32.28-.07-.07.36.39.21.23.07.07Z" transform="translate(0.5 -187.67)"/><path class="cls-18" d="M501.5,341.86c0,.19-1.49.05-1.63,0a4.23,4.23,0,0,1-2.91-5,6.74,6.74,0,0,1,1.8-2.93,6.58,6.58,0,0,1,2-1.44c2-.9,4.78-.56,6.88-.3,0,.34,1.38,4.41.91,4.42S501.35,340.69,501.5,341.86Z" transform="translate(0.5 -187.67)"/><path class="cls-12" d="M508.6,343l-.25-1,.42-3.57c1-.14,1.6-.53,1.59-1.65s.09-2,.14-3C514.2,338.14,513.66,340.76,508.6,343Z" transform="translate(0.5 -187.67)"/><path class="cls-15" d="M510.28,333.87c.35.85.07,1.8.08,2.94s-.64,1.51-1.59,1.65a.47.47,0,0,1-.31-.52l.05-1.3a10.16,10.16,0,0,0-.73-3.46c-.4-1.41,1.06-.79,1.68-.32A2.48,2.48,0,0,1,510.28,333.87Z" transform="translate(0.5 -187.67)"/><path class="cls-5" d="M550.32,349a77.77,77.77,0,0,0-10.53,1.36,121.05,121.05,0,0,1-13.17,1.59c-8,.67-16.46,1.46-24.23-1a25,25,0,0,1-8.1-4.32,24.21,24.21,0,0,1-3.42-3.37c-.31-.38-2.7-4.1-2.8-4.08l-.65.13-.23.2c.24,1.9-1.19,3.51-.93,5.43a3.6,3.6,0,0,1-2.62,4.11c-2.32.81-2.86,2.1-2,4.34.42,1.08.64,2.54-.15,3.41-2.39,2.66-4.29,6.2-8.72,5.84a99.38,99.38,0,0,0,25.09-.14c.44-2.46-.67-4.36-1.66-6.48,1.35-1.06,3.14-.32,4.61.06,3.62.93,7.41-.23,11.1-.85,5.43-.92,10.95-.68,16.43-.76a65.53,65.53,0,0,0,8.28-.54c2.45-.35,5.18-1.79,7.53-.73,2.16,1,.57,3.35-.75,4.38a51,51,0,0,1-11.26,6.62,50.22,50.22,0,0,1-6.31,2.22c-1.66.47-5.18.51-6.43,1.57,1.64,1.59,4.59.76,6.55.41,6.47-1.18,11.8-4.9,17.19-8.42A3.79,3.79,0,0,0,545,358a3.15,3.15,0,0,1,1-1.16A6.94,6.94,0,0,0,550.32,349Z" transform="translate(0.5 -187.67)"/><path class="cls-18" d="M470,357.31a2.83,2.83,0,0,1,3.58,1c-1,3.41-1,3.41-4.75,2.81C468.12,359.5,469.17,358.42,470,357.31Z" transform="translate(0.5 -187.67)"/><path class="cls-6" d="M136,357.74a50.51,50.51,0,0,0-9.25,1.92,36.93,36.93,0,0,1-6.59,1.13.15.15,0,0,1-.09,0,.11.11,0,0,1,0-.08,4.39,4.39,0,0,1,.94-2.8c.59-.81,1.33-1.5,2-2.27,1-1.12,1.7-2.41,2.73-3.47a.83.83,0,0,1,.82-.35c.33.1.66.21,1,.34a13,13,0,0,1,1.83.91,30.63,30.63,0,0,1,3.3,2.33c.55.43,1.11.85,1.67,1.26l.86.58C135.35,357.33,135.83,357.76,136,357.74Z" transform="translate(0.5 -187.67)"/><path d="M167.23,367.71a8.12,8.12,0,0,0-.8-1.38C161.84,360.19,154,358,154,358c-3.6-1-6.9-.89-13.5-.66a83.29,83.29,0,0,0-8.5.66c-11.71,1.54-13.46,4.46-20.29,3.55-2.09-.28-2.68-.65-7.83-1.5A68.26,68.26,0,0,0,96,359a29.58,29.58,0,0,0-13.6,2.51c-2.15,1-5.89,2.37-8.58,6.16-2.12,3-3.3,7-4.82,10.33-1.44,3.17-2.74,6-1.69,7.05a4,4,0,0,0,2.52.78.54.54,0,0,0,.37-.17.52.52,0,0,0,.07-.37c-.07-.52,3.62-3.44,8.07-3.82,1.15-.1,2.32-.12,3.45-.33,7.18-1.3,14.52-2.22,21.79-2.8l.68,0c.93-.09,3.56-.29,13.34-.7,3.77-.15,8.9.63,12.43-.65a73.93,73.93,0,0,1,27.42-4.16c2.84.11,10.18,1.37,10.29-2.86A5,5,0,0,0,167.23,367.71Z" transform="translate(0.5 -187.67)"/><path class="cls-8" d="M148.36,329.55a13,13,0,0,1,.91,3.58c0,.28,0,3.77-.22,3.69-1.52-.48-2,1.44-3.32,1.45a15.48,15.48,0,0,0,.53-7.21,7.17,7.17,0,0,0-3-4.55,3.09,3.09,0,0,1-.95-.73c-.54-.74.24-1.46.9-1.74a9.93,9.93,0,0,1,5.07,5.38Z" transform="translate(0.5 -187.67)"/><path class="cls-9" d="M142.81,323.81c-1-.4-1.9-.75-2.06-.8-1.88-.58-5.08-1.4-6.75,0,.52,0,1.25.05,2.13.14A9.42,9.42,0,0,1,140,324a5.59,5.59,0,0,1,2,2,2.2,2.2,0,0,1,1-1c.93-.41,2,.1,2,0S143.93,324.28,142.81,323.81Z" transform="translate(0.5 -187.67)"/><path class="cls-17" d="M93.3,302l.06,0c.24.26.09.1,0-.06Z" transform="translate(0.5 -187.67)"/><path class="cls-18" d="M105.42,330.07c-.3-2.16-4.18-3.22-4.82-3.39-3.45-.95-9.39-.89-12.6,3.32a10.47,10.47,0,0,0-2,6,15.43,15.43,0,0,0,1.62,6.3,5.39,5.39,0,0,0,1,1.55,5,5,0,0,0,.8.65c.32.2,3,1.06,3,1.09-.23-1.24.6-1.69,1.51-2.16s2.16-.84,2-2.33l.05-.89-.16-.09c-1.1.24-1.81,0-1.67-1.33a.78.78,0,0,0-.33-.56c-1.74-2.76.09-3.93,2.22-5l.06-.1c1-1.51,2.09-1.67,3.24-.15l.2.15c.48-.13.8,0,.72.56a.39.39,0,0,0,.33.33c.62,0,.71.27.53.77l0,.15,1-.09a3.13,3.13,0,0,0,1.59-.55,3.42,3.42,0,0,0,1.07-1.65A5.91,5.91,0,0,0,105.42,330.07Z" transform="translate(0.5 -187.67)"/><path class="cls-10" d="M100.89,335a2.17,2.17,0,0,1,.13.69,4.43,4.43,0,0,1-1.07,3.15c-.7.7-3.39,2.13-4.14,1-.22-.32-.37-.72-.71-.91a4,4,0,0,0-.59-.17c-1.21-.36-.27-2.7.68-2.94,1.56-.39,1.31-1.49.91-2.61l.06-.1c1.06-.1,2.35-.66,3.25.09A4.42,4.42,0,0,1,100.89,335Z" transform="translate(0.5 -187.67)"/><path class="cls-15" d="M102.18,334.9a2.4,2.4,0,0,0,2.67-2.31c.08-.85-.09-1.8,1-2.17,1.62,4.42,1.23,5.4-3.06,7.77C101.78,337.24,102.35,336,102.18,334.9Z" transform="translate(0.5 -187.67)"/><path class="cls-15" d="M92.49,345.59c-.23-1.24.6-1.69,1.51-2.16s2.16-.84,2-2.33c1.11.15,2.35-.45,3.47.76C98.16,345,95.74,346,92.49,345.59Z" transform="translate(0.5 -187.67)"/><path class="cls-8" d="M140.08,345a12.27,12.27,0,0,0,8.85-6.84,1.45,1.45,0,0,0,.18-1c-.34-1.26-3.06.55-3.57.84a20.73,20.73,0,0,1-5.31,2.48c-2.79.66-5.64,1.09-8.47,1.57-.33,0-3.7.39-3.76,1-.13,1.16,4.62,1.86,5.36,2A16.71,16.71,0,0,0,140.08,345Z" transform="translate(0.5 -187.67)"/><path class="cls-18" d="M136.77,323.48a1.82,1.82,0,0,0-.64-.3c-3.17-.88-7.7,2.5-9.39,4.85a11.55,11.55,0,0,0-2,8.53,17.32,17.32,0,0,0,3.29.16c1.27-.19,1.87-.85,1.72-2.11a3.19,3.19,0,0,1,.5-2.44,2.62,2.62,0,0,1,2.12-.87c-.28,0,.4-1.51.49-1.62a3.3,3.3,0,0,1,1.44-1,1.86,1.86,0,0,1,1.56.56,4.19,4.19,0,0,0,1.39,1c.92.27.56-1.73.52-2.22a21.25,21.25,0,0,0-.29-2.4C137.34,324.66,137.32,323.92,136.77,323.48Z" transform="translate(0.5 -187.67)"/><path class="cls-15" d="M133.14,337.73c-1.59.13-2.36-1.07-3.29-2-1.48,1.81-3.44.68-5.19.84a.06.06,0,0,0,0,0c-.33.21.17,2.34,1.39,3.43.28.25.72.55,3.86,1,3.62.5,4,.23,4.14,0C134.68,340.1,133.36,338.06,133.14,337.73Z" transform="translate(0.5 -187.67)"/><path class="cls-8" d="M315,278c3.27,1.61,6.87.11,8.33-.5a6.55,6.55,0,0,0,2.57-1.7,6.43,6.43,0,0,0,1.39-2.73c.39-1.55.81-2.25.5-2.68-.64-.88-3.17-.53-3.79.61-.3.56-.68,1.06-1,1s-.63.44-1.37.72a4.25,4.25,0,0,1-.77.15A15,15,0,0,0,316,275.2c-.38.25-.76.51-1.13.78-1.17.81-2.72-1.12-2.84-1S312.92,277,315,278Z" transform="translate(0.5 -187.67)"/><path class="cls-9" d="M323.93,267.08c-.55.47-3.54-.83-3.75-.66-.26,1.71-.05,3.61-2.12,4.51-2.27,1-3.54-.62-5-1.81l-.55,1.37a2.14,2.14,0,0,1-1.38-1.86s-.05-.18-.09-.37,4.75-8.19,4-9.26c-.46-.62-3.24.23-5,2a7.54,7.54,0,0,0-2,4,11,11,0,0,0,0,3,15.81,15.81,0,0,0,.32,2.19A11.43,11.43,0,0,0,311,276a7,7,0,0,0,3,2c.71.23,2.19.7,3,0s.23-1.63,1-2.64c.24-.3.58-.35,1.93-1.06,1.78-.92,3.81-1.37,5.56-2.3.63-.34,1.08-.56,1.13-.95.07-.58-.79-1-1.66-2.05A6.93,6.93,0,0,1,323.93,267.08Z" transform="translate(0.5 -187.67)"/><path class="cls-10" d="M292.44,269.29a2.33,2.33,0,0,1,.22,1.21,2.12,2.12,0,0,1-.13.54,4.42,4.42,0,0,1-3.63,2.88,2.26,2.26,0,0,1-2.31-.75,6.76,6.76,0,0,1-.55-.52,2.47,2.47,0,0,1-.31-.52c-.47-1-.69-1.55-.59-2.05,0-.19.1-.2.86-1.08,1-1.16,1.23-1.49,1.84-1.85a2.42,2.42,0,0,1,.71-.34C290.22,266.36,292,268.26,292.44,269.29Z" transform="translate(0.5 -187.67)"/><path class="cls-15" d="M294,262.36a3.2,3.2,0,0,0-.37-.19,3.18,3.18,0,0,1-.33-.09c-.14,0-.26-.06-.39-.09l-.3-.06a.2.2,0,0,0-.12.08c-.21.27,0,.94,0,1.2a7.74,7.74,0,0,1-.16,1.27c-.1.43-.23.86-.37,1.28a5.34,5.34,0,0,0-.41,1.18l0,.88c.12.2,1,1.41,1,1.41l2,.57c2-1.84,2.14-5.2.27-6.93A4.57,4.57,0,0,1,294,262.36Z" transform="translate(0.5 -187.67)"/><path class="cls-15" d="M285.79,272.71a4.67,4.67,0,0,0-1.18-.1h-3.43a.71.71,0,0,1-.36-.27.79.79,0,0,0-.45-.5c-.1,0-.48,0-.53-.05l.87,1c2,3.16,4.19,3.49,6.37.95.1-.12-.82-.87-.94-.93Z" transform="translate(0.5 -187.67)"/><path class="cls-18" d="M280.1,271.72a10.11,10.11,0,0,1,1-6,8.92,8.92,0,0,1,4.15-4.22A8.46,8.46,0,0,1,290,261a10.7,10.7,0,0,1,5,2,4,4,0,0,0-2.68,1.51,3.85,3.85,0,0,0-.77,2.43,1,1,0,0,0-.63.33l-.37-.23-.55,0c-.65-.05-1.29-.12-1.91-.19l-1,.52A1.83,1.83,0,0,1,287,269a1.73,1.73,0,0,1-1.65.79l-.11.23-.24,1c-.14.55-.28,1.09-.43,1.61A3.66,3.66,0,0,1,283,273,4,4,0,0,1,280.1,271.72Z" transform="translate(0.5 -187.67)"/><path class="cls-18" d="M672,349a6.74,6.74,0,0,1-1-2,8.54,8.54,0,0,1-.18-3.75,8.9,8.9,0,0,1,3.4-6c2.21-1.61,4.62-1.52,7.21-1.52a3.26,3.26,0,0,1,2.29.78,5.5,5.5,0,0,1,.59,1c-1,0-1.5.53-1.53,1.56s.32,2.32-1,3a16.23,16.23,0,0,0-3.5-1.82,3.44,3.44,0,0,0-4.17,2.47c-.42,1.22-1.38,3.28,1.32,3.63l.29.2c0,.55-.09,1.09-.14,1.63s-.69.08-1.21.24c-.8.25-.85,1.46-1.42,1.49C672.65,350,672.4,349.59,672,349Z" transform="translate(0.5 -187.67)"/><path class="cls-14" d="M621.85,326l.1,0h0Z" transform="translate(0.5 -187.67)"/><path class="cls-14" d="M725.27,383.73c-.26-2.19-.6-4.37-.78-6.56-1.19-14.42-2-29.38-11.86-40.89-.59-.69-1.21-1.37-1.76-2.09-1,.25-3.07.55-3.87-.23s-.6-2.09-.83-2.92c-.87-3.16-2-6.66-4.91-8.2a9.64,9.64,0,0,0-3.9-.94c-5.48-.37-10.93,1.24-15.94,3.5s-9.7,5.17-14.62,7.62c-2.58,1.29-5.72,3.1-8.55,1.89-6.26-2.67-12.47-5.59-19-7.41a60.62,60.62,0,0,0-11-2,13.85,13.85,0,0,0-5.63.38c-3,1-5,3.76-6,6.66-.4,1.17-1.19,11-.55,10.92-2,.29-3.8.18-5.23,1.83a10.46,10.46,0,0,0-1.71,3.17c-4.07,10.48-4.27,22-2.42,33a4.14,4.14,0,0,0,.62,1.17v0c7.34-1.35,14.44-.78,21.17,2.69a5.77,5.77,0,0,0,.79.29c.32.07-.53-.93-.57-1a.2.2,0,0,1-.07-.15,4.23,4.23,0,0,0-.91-.95c-.43-.3-.75-.74-1.16-1.07s-.8-.69-1.18-1.05a31.3,31.3,0,0,1-2.21-2.25,34,34,0,0,1-3.69-5,37.79,37.79,0,0,1-2.8-5.58c-.3-.76-.59-1.53-.85-2.3-2.27-3.89-2.64-8.2-3.32-12.78,3.46.41,5.45,2.67,8,3.56,6.11,2.28,12.28,4.12,19,3.59a73.16,73.16,0,0,0,8.72-1.35A17.35,17.35,0,0,0,657,354.7a16.58,16.58,0,0,0,3-3.89c.89-1.67,1.66-3.39,3.29-4.48,3.43,2.55,6.07,6.2,9.91,8.09,3.33,1.64,7.19,1.76,10.89,1.53,6.79-.41,13.73-2,19.16-6.09,1.27-1,2.42-2.06,3.72-3,.54-.37,1.09-.47,1.63-.81a10.14,10.14,0,0,0,1.48-1.52c.6-.59,1.79-1.17,2.39-.37a5.24,5.24,0,0,1,.34,2.2c.11,1.42.11,2.85.11,4.27a47,47,0,0,1-.71,8.12A47.52,47.52,0,0,1,709,369.54c-.71,1.61-1.54,3.13-2.38,4.67s-1.34,3-2.53,4.14a165.23,165.23,0,0,0-13.38,13.48l4.54-.07h32C726.6,389.08,725.93,386.41,725.27,383.73Zm-69-35.37c-.1.86.24,1.82-.64,2.48-3.9,7.75-10.6,9.18-16.81,3.6a1.4,1.4,0,0,1-1.38-.91c-1.43-4.3-2-8.61.72-12.64S645,336,649.5,336.74a6.21,6.21,0,0,1,4.86,3.4,5.82,5.82,0,0,1,1.79,5.36,1.51,1.51,0,0,1,.13.81C657.17,347,657.09,347.67,656.3,348.36Zm32.31.74-.67,1.72-1.54.07,0,0c-.73,3.57-3.89,2.78-6.22,3.49a28.14,28.14,0,0,1-3.43-1,5.15,5.15,0,0,1-1.51.22c-4.47,0-5.84-4.82-4.1-7.77a5.3,5.3,0,0,1-.17-3.5c1.77-4.93,3.59-6.59,8.8-6.62h2.19c-.52-1.46-2.21-.42-3-1.39,4.61-1.51,7.35.24,9.27,5.23C689.4,342.62,691,345.83,688.61,349.1Z" transform="translate(0.5 -187.67)"/><path class="cls-8" d="M688.36,339.51A7.88,7.88,0,0,0,684,336a8.57,8.57,0,0,0-5,0,7.28,7.28,0,0,1,2,0,7.69,7.69,0,0,1,4,2,7.49,7.49,0,0,1,2.4,4.47A10.53,10.53,0,0,1,686,348a4.54,4.54,0,0,0-1,1.71,2.06,2.06,0,0,0,0,1.34c0,.08.39.94,1,1,.17,0,.56,0,2-2a10.72,10.72,0,0,0,1.28-2,6.76,6.76,0,0,0,.51-2.86A14.25,14.25,0,0,0,689,341,9.09,9.09,0,0,0,688.36,339.51Z" transform="translate(0.5 -187.67)"/><path class="cls-9" d="M649,343.53l.39.16a4.33,4.33,0,0,1,1.52,1.43,3.47,3.47,0,0,1,.86,2.18,4.36,4.36,0,0,1-.81,2.24c-.24.38-1.58,2.25-2,2.2-1.16-.12-2.82.51-2.57-1.72,2-.13,3.94-.46,3.56-3.21a1.7,1.7,0,0,0-1.94-1.51c-.94.72-2.17,1.24-2.65,2.56l.85,2c-1.12.6-1.69-.48-2.51-.83-.29-.12-.06-2,0-2.24a3.92,3.92,0,0,1,.9-1.88A4.65,4.65,0,0,1,649,343.53Z" transform="translate(0.5 -187.67)"/><path class="cls-15" d="M646.44,350c-.25,2.23,1.41,1.6,2.57,1.72-5.1,3.43-8.6,2.54-10.6-2.69,1.78-.06,3.57,2.3,5.34,0,.82.35,1.39,1.43,2.51.83Z" transform="translate(0.5 -187.67)"/><path class="cls-15" d="M651.8,347.24c.09-1.55-1.36-2.27-1.89-3.49a2.36,2.36,0,0,0,.92-2.34c0-.28-.35-1.35.28-1.07l.91.41a1.27,1.27,0,0,1,.46.28,2,2,0,0,1,.28.42c.31.53.78.95,1.12,1.47C655.12,344.83,654.46,347.81,651.8,347.24Z" transform="translate(0.5 -187.67)"/><path class="cls-12" d="M644.63,339.18l-1,.08C643.93,338.59,644.25,338.49,644.63,339.18Z" transform="translate(0.5 -187.67)"/><path class="cls-11" d="M667.9,383.87c-2.45-3.83-2.54-9.1-1.74-13.44a1,1,0,0,1,.36-.72c.44-.28,1,.22,1.21.66a19.88,19.88,0,0,1,2.39,9.56,3.76,3.76,0,0,1-.88,3,7,7,0,0,0-1.13.86,10.81,10.81,0,0,0,1.58.08,4.29,4.29,0,0,0,1.88-.75c1.08-.8.65-2.18.57-3.34a69.09,69.09,0,0,0-1.15-7.43c-.58-3.51-2.89-6.3-3.42-9.78a2.08,2.08,0,0,0-1.45-1.48,2.85,2.85,0,0,0-1.1-.29c-.64.05-.34.21-.78.59-1.56,1.33-4.16,1.76-6.1,2.27a42,42,0,0,1-9.46,1.7,46.49,46.49,0,0,1-8.62-.93c-2.74-.46-5.5-.88-8.21-1.56a50.62,50.62,0,0,1-8-3c-1.18-.52-2.6-.77-3.22-2.06a3.83,3.83,0,0,0-.34-.67,2.08,2.08,0,0,0-.53-.39c-1.5-.89-3-1.77-4.58-2.55a5,5,0,0,0-2-.64c-1-.06-.52.95-.45,1.53.09.77.19,1.54.31,2.31a24.61,24.61,0,0,0,2.71,8.77c-.24-.42.85-.4,1-.31.41.24.69,1,.88,1.41a15.4,15.4,0,0,0,.79,1.7c.33.55.88.88,1.2,1.42a1.7,1.7,0,0,1,.17.67A3.69,3.69,0,0,0,623,374a7.53,7.53,0,0,0,2.85,4.8c.92.71,2.07,1.27,2.57,2.32.36.77.48,2.52,1.73,2.3.39-.07.74-.28,1.13-.34.89-.15,1.68.49,2.43,1a8.71,8.71,0,0,0,4.06,1.41,3.64,3.64,0,0,1,1.58.33c.37.22.67.6,1.1.63a1.91,1.91,0,0,1,.48,0,1,1,0,0,1,.32.34,3.37,3.37,0,0,0,3.35,1.36c.11.59.85.75,1.4,1,.95.44,1.56,1.39,2.44,1.94a3.88,3.88,0,0,0,3.39.54.35.35,0,0,0,.22-.15c.1-.18-.12-.36-.3-.45-8.28-4.06-17.3-7.6-24.37-13.67a32.6,32.6,0,0,1-5.53-6.08,37.07,37.07,0,0,1-2.83-4.78c-.41-.83-.79-1.67-1.14-2.53-.05-.13-.92-2.39-.64-2.37.68.05,1.17.61,1.71.95.88.54,1.81,1,2.72,1.48a83.33,83.33,0,0,0,15.4,6.08c4,1.16,7.88,2.38,11.84,3.6a5.3,5.3,0,0,1,2.41,1.21c.64.67,1.16,1.46,1.8,2.13a22.45,22.45,0,0,0,4.34,3.49,21.92,21.92,0,0,0,10.51,3.33Z" transform="translate(0.5 -187.67)"/><path class="cls-13" d="M687,351c.18.54-1.07,1.4-1.65,1.8A6.09,6.09,0,0,1,683,354a11,11,0,0,1-6.19-.47c-.42-.16-2.16-.67-1.78-1.31.23-.4,1.12-.4,1.51-.49,3,.32,6,.52,8.76-1.18C685.72,350.51,686.85,350.53,687,351Z" transform="translate(0.5 -187.67)"/><path class="cls-9" d="M685.28,350.49a8.46,8.46,0,0,1-4.18,1.36c-.39,0-4.57.06-4.57-.16s0-.49,0-.73c0-1.4,2.84-.66,3.1-2.24a.32.32,0,0,0,0-.14.27.27,0,0,0-.15-.1,6.55,6.55,0,0,0-2.38-.23l-1,0a.66.66,0,0,1-.42-.07c-.27-.18,0-1.09,0-1.37a.35.35,0,0,1,0-.17.37.37,0,0,1,.17-.1c1.38-.42,2.86.44,3.85-1.05a2.4,2.4,0,0,0-1.15-3.47c-1.27-.49-2,1.1-2.53,2.05a10.09,10.09,0,0,0-.66,2.26,2.26,2.26,0,0,1-1.55-.69,2.06,2.06,0,0,1-.15-1.64,6.37,6.37,0,0,1,.91-2.3,3.5,3.5,0,0,1,2-1.47c1.74-.46,3.52.75,4.92,1.64a.83.83,0,0,1,.28.24.86.86,0,0,1,.09.35c0,.71,0,1.42.07,2.12,0,.19.52,2,.77,1.88,1.5-.87,2.74-1.75,2.76-3.63,0-1.48,0-2.95,0-4.43a6.64,6.64,0,0,1,2,4.66,9.82,9.82,0,0,1-1,4C686,347.86,684.33,349.64,685.28,350.49Z" transform="translate(0.5 -187.67)"/><path class="cls-15" d="M675.6,348.19c1.71-.28,4.24-.68,5.4-2.19a13.59,13.59,0,0,0,1-2c.69-1.52.75-2,1-2,.53,0,1.59,2.14,1,4a5.78,5.78,0,0,1-3,3,28.23,28.23,0,0,0-3.29,1.56A9.65,9.65,0,0,0,676,352c-.34-.36-.5-.78-1-1a1.62,1.62,0,0,0-1,0l-1-1c-.1-.1.46-.82.53-.89A3.3,3.3,0,0,1,675.6,348.19Z" transform="translate(0.5 -187.67)"/><path class="cls-8" d="M677.25,351.8a10,10,0,0,1-1.17-.39,4.08,4.08,0,0,1-.42-.17,13.16,13.16,0,0,1-2.37-1.27,4.43,4.43,0,0,1-1.81-2c.1.38-.27.76-.2,1.16a2.56,2.56,0,0,0,.56,1.13,7.68,7.68,0,0,0,1.86,1.7c.67.46,2,1.35,2.3,1,.17-.16-.21-.57,0-.88s.68-.31,1.27-.24Z" transform="translate(0.5 -187.67)"/><path class="cls-18" d="M313.06,269.12c.07,1.51-1.13,1.63-1.76.39a8.35,8.35,0,0,1-.61-5.91A7.37,7.37,0,0,1,317,258a6.7,6.7,0,0,1,4,1,4.27,4.27,0,0,1,2,4,4.38,4.38,0,0,1-2.05,3.18,1.06,1.06,0,0,0-.77.24S313.05,268.8,313.06,269.12Z" transform="translate(0.5 -187.67)"/><path class="cls-14" d="M324.43,261.11c.21-1.51-.47-3.33,1.46-4.27,5.27,2.8,6,4.14,5.38,10-1.72.94-2.55,0-3.3-1.49-.84-1.67-1.47-3.57-3.55-4.22Z" transform="translate(0.5 -187.67)"/><path class="cls-15" d="M321.37,266.21c.57-1,1.47-1.71,1.63-3.21a4.16,4.16,0,0,0-1-3,7.35,7.35,0,0,0-3-2,7.18,7.18,0,0,1,5,2,8.59,8.59,0,0,1,2,3c1.63,3.44,2,7.62,1,8-.21.08-.81-.28-2-1s-1.42-1-2-1c-.87,0-1.86,1.09-2.07-.39A3.42,3.42,0,0,1,321.37,266.21Z" transform="translate(0.5 -187.67)"/><path class="cls-14" d="M105.68,350.81l0,0h0Z" transform="translate(0.5 -187.67)"/><path class="cls-14" d="M78.11,358.82l0,0h0A.08.08,0,0,1,78.11,358.82Z" transform="translate(0.5 -187.67)"/><path class="cls-14" d="M165.19,389.92l.1,0h-.11S165.18,389.91,165.19,389.92Z" transform="translate(0.5 -187.67)"/><path class="cls-14" d="M187.31,375.54a140.35,140.35,0,0,0-2.77-18.35c-.52-.07-.8-.65-1-1.14q-2-5.69-3.49-11.52a1.82,1.82,0,0,1,.28-3.1c-1.73.66-3.87-3.07-4.51-4.05a7.78,7.78,0,0,0-5.19-3.67c.43-7.49-2.43-13.55-6.41-19.22a1.68,1.68,0,0,1-1.42-1.06l-1,0c-.08-.22-.17-.44-.25-.67-3.76-.85-7.36-2.72-11.39-1.76a17.49,17.49,0,0,0-3.48.13,31.07,31.07,0,0,1-15.15-.29c-2.37-1.46-4.81-2.82-7.09-4.41-4.5-3.14-8.85-3.4-13.46-.14a103.39,103.39,0,0,0-8.33,6.55,20.45,20.45,0,0,1-9.25,4.9,2.23,2.23,0,0,1-1.83.45c-1,.92-2.27,1-3.5,1.11a5.83,5.83,0,0,1-3.69.56,1.79,1.79,0,0,1-1.68.32l-.91.13a39.25,39.25,0,0,1-7.24,1c-5.6,1.09-8,5-9.06,10.16a44.3,44.3,0,0,0-1.23,11.7c0,.55-2.09,1.48-2.45,1.92a9.88,9.88,0,0,0-1.46,3.66c-1,3.25-1.82,6.54-2.65,9.84q-1.84,7.35-3.7,14.69c-.92,3.64-1.84,7.28-2.43,11-.17,1.05-1.05,4-.3,4.83,1.06,1.13,3.13,1.46,4.55,1.87.35.1.7.18,1,.27q2.58-.36,5.16-.48c.65-4,3.33-13.62,3.71-14.69,3-8.28,8.15-16.59,16.47-19.45a47.63,47.63,0,0,1,9.3-1.7c6-.82,12.17-2.46,16.53-6.64,2.82-2.7,4.68-6.29,7.48-9a2,2,0,0,1,1.39-.73,1.94,1.94,0,0,1,1,.5c2.46,1.93,4.36,4.49,6.78,6.46,6,4.85,14.17,5.54,21.82,6.32s15.94,2.21,21.08,7.92c3,3.33,4.52,7.7,6,11.95,1,3,1.73,6.91-.84,8.74a6.9,6.9,0,0,1-3.83,1c-7.36.28-14.83-1-22.05.43-4.2.84-8.16,2.59-12.23,3.95A64.77,64.77,0,0,1,119,388.75a5.73,5.73,0,0,1-1.35.17c-2.66,0-5.32.19-8,.11a18.13,18.13,0,0,1-7.54-.42l0,0c-.36.62.5,1.83,1.13,2.41a3.93,3.93,0,0,1,.59-.06c1,0,2.08.08,3.11.19l.39,0q7.38,0,14.74-.53c2.86-.2,5.61-.2,8.08.87h1.13c9.91-.25,19.81-.54,29.72-.67a5,5,0,0,1,1.93.34c.58-.7.83-1.43,2.17-1.33-.21-1.62.67-2.66,1.91-3.58.86-1.34,2.59-1.39,3.64-2.46l7.94-1.12c3,.24,5.91,1.1,9.16.85Q187.65,379.53,187.31,375.54Zm-79.64-32.49c-3.86,5.26-9.33,5.68-15.15,5.06-7.24-.68-8.12-6.86-7.8-13.78a11,11,0,0,1,.57-2.13c.6-4,3.48-5.56,6.92-6.53,3-.52,6.05-1.14,8.82-.47a4.14,4.14,0,0,1,.63.15,11.87,11.87,0,0,1,5.71,3.45,7.79,7.79,0,0,1,.76,1.14,5.73,5.73,0,0,1,.54,1l0,.07c.17.42.32.86.46,1.3C110.8,336.19,110.62,339.81,107.67,343.05Zm43.87,1.82A13.41,13.41,0,0,1,141,348.05a13.6,13.6,0,0,1-1.79-.33,6.36,6.36,0,0,1-.62.19c-3.83,1.07-9.5-.12-12.38-3a5.1,5.1,0,0,1-1.35-4c-1-1.21-1.36-2.81-1.37-5.23,0-1.18,0-2.36,0-3.54,0-.22.09-.43.14-.65a4.64,4.64,0,0,1-4.11-.36,5.35,5.35,0,0,1-2.43-5.36,4,4,0,0,1-.47-2.12,8,8,0,0,1,4.23-6.57c.13-.08.27-.14.4-.21l.29-.23a23.89,23.89,0,0,1,2.1-1.47,4.24,4.24,0,0,1,1.72-.92,7.15,7.15,0,0,1,1.63-.47,21.47,21.47,0,0,1,8.72-1.8c5.59.12,6.59,7.69,1.72,9.66a4.1,4.1,0,0,1,2.19.69,3.64,3.64,0,0,1,3.65,1.69c2.54,1.06,3.92,3.23,5.23,5.47a45,45,0,0,1,.89,4.57,4.32,4.32,0,0,1,.67,3.05C153,338.5,154.74,342.29,151.54,344.87Z" transform="translate(0.5 -187.67)"/><path class="cls-14" d="M184.87,357.07s0,0,0,0h.05Z" transform="translate(0.5 -187.67)"/><path class="cls-17" d="M393,388.72c-8.33-13.78-12.62-29.54-17.44-44.91q-6-19.1-13.28-37.76-3.51-9-7.31-17.87c-2.49-5.81-4.57-11.86-6.85-17.79-5.37-13.93-10.77-28.12-19.46-40.39s-23.25-16.68-38-15.45c-10.6-.23-20.82,4.86-27.64,12.86-6.07,7.13-9.73,16-12.55,24.91-13,41.2-9.78,85.8-19,128a4.29,4.29,0,0,1-1.09,2.4c-1.25,1.13-3.5.76-5,.84a54.61,54.61,0,0,0-6.37.68,69.21,69.21,0,0,0-12,3.93c-.13.14-.33.19-.48.31-.48.36-.26,1.12,0,1.65,1.8,3.51,4.48,6.2,7.18,9a116.1,116.1,0,0,0,9.19,8.69c2.82,2.34,5.24,5.18,8.48,7s4.15,1.5,6.28-1.4c3.47-4.73,4.8-11.34,6.73-16.85a5.05,5.05,0,0,1,3.52-3.62,7,7,0,0,0,2.8-2c1.36-1.93-.13-2.89-1.46-4-3.8-3.09-.26-11.13.26-15a144.05,144.05,0,0,0,1.15-21.07c-.28-20.53-6.59-39.05-1.11-59.62.77-2.86,1.76-5.82,3.93-7.84,5.41-5,6.28-5.11,3.86-12.7-2-6.35,0-13.23,2.39-19.45,1.64-4.27,3.56-8.65,7.07-11.59,4.65-3.88,11.38-4.51,17.23-2.95,6.36,1.7,10.84,7.4,16.79,10,4.77,2.06,13.63,1.62,17.69-2.11.63-.57,1.11-1.3,1.8-1.81a7.11,7.11,0,0,1,2.86-1,21.11,21.11,0,0,1,7.49-.57c8,1.31,9.51,13,10.39,19.35.44,3.23.09,6.65,1.46,9.4.8,1.59,2.25,2.33,3.52,3.42a12.13,12.13,0,0,1,3.27,4.94,76.05,76.05,0,0,1,2.08,8.22c1.2,4.68,3.36,9.07,4.83,13.68,2.59,8.14,3,16.78,3.28,25.32.66,19.52.9,39.31,6.19,58.12-3.1,2.1-7.73,1-10.54,3.45-1.93,1.71-2.31,4.55-2.55,7.12l-1.29,13.59c-.52,5.54-.83,11.8,2.91,15.92,10.42-6.05,20.13-13.8,26.52-24,1.95-3.12,4.24-6.89,7.93-7,1.88-.06,4.48.53,5.09-1.25a3.37,3.37,0,0,0-.71-2.68ZM269.81,234.91c.74.63,1.11,1.49,2,1.71C270.92,236.4,270.54,235.54,269.81,234.91Z" transform="translate(0.5 -187.67)"/><path class="cls-17" d="M787.94,390.8c-1.46-4.48-7.3-6-11.32-7A102,102,0,0,0,761,381.73a76.38,76.38,0,0,0-12.83-.31,29.8,29.8,0,0,0-6.35,1.21c-2.88.9-5,1.79-6.33-1.57-3.86-9.83-7.4-19.79-11.78-29.39A124.26,124.26,0,0,0,713.31,333c-3.72-5.43-7.67-11.39-14.19-13.55-8-2.65-16.89-3.34-25.29-3.75-5.23-.25-10.75-.44-15.33-3.29a15.62,15.62,0,0,1-6.78-10.63,1.27,1.27,0,0,1,0-.67c.08-.24.29-.42.38-.66.39-1-1.08-.55-1.32.19-.34,1,0,2.23-.23,3.28-.27,1.36-1.18,6.48-2.94,3.82a56,56,0,0,1-3-5.14c-.49-.94-1-.79-1.78-.4-1.53.72-.89,2.66-2.11,3.54-1.69-1.08-1.54-3.64-3.76-4.27-2.05,3.7.33,7.26.17,10.73,0,.7-2.81.27-3.18.37a1.08,1.08,0,0,0-.84,1c0,.52.53.86,1,1.08,2,.9,2.7,1.57,1.59,3.75a8.33,8.33,0,0,1-4.68,3.76c-2.8,1-5.86,1-8.67,2-6.37,2.17-10.19,8.62-12.7,14.86-5.27,13.12-7.12,27.31-10.11,41.13a5.65,5.65,0,0,1-1.08,2.62c-1.16,1.28-3.22,1.22-4.64,2.22a4.74,4.74,0,0,0-1.58,4.92,10.41,10.41,0,0,0,2.8,4.65,51.51,51.51,0,0,0,9.21,7.33q6.88,4.63,14,8.92a3.92,3.92,0,0,0,2.1.78c1.6-.05,2.5-1.85,2.89-3.4a26.41,26.41,0,0,0,.69-9,14.9,14.9,0,0,1-.15-3.77,3.75,3.75,0,0,1,2-3c1.71-.73,4.07.32,5.36-1,1-1,.6-2.66-.2-3.77a10.35,10.35,0,0,0-4.63-3.22,32.31,32.31,0,0,0-19.18-1.69,59.37,59.37,0,0,1,1.34-32.55,13,13,0,0,1,2.54-4.88,5.13,5.13,0,0,1,5-1.67,34.69,34.69,0,0,1,0-8.64,11.69,11.69,0,0,1,4.08-7.42c5.17-3.93,13-1.49,18.58,0a86.19,86.19,0,0,1,10.84,3.63q2.78,1.14,5.47,2.48c1.54.77,3.14,2,4.94,1.93,2,0,4.51-1.38,6.32-2.23,9.84-4.58,18.33-11,29.61-11.38a11.36,11.36,0,0,1,4.38.53,9,9,0,0,1,4.66,4.69,19.94,19.94,0,0,1,1.36,4.28,7.33,7.33,0,0,0,.8,2.64c.69.76,2.12-.21,3.38.36a7.41,7.41,0,0,1,2.49,2.11c4.6,5.44,7.35,12.23,8.92,19.17a119.93,119.93,0,0,1,2.33,18.7c.19,2.93.62,5.88,1.09,8.78.13.82,1.38,8.73,2,8.72a160.26,160.26,0,0,1,24.08,1.53,8.3,8.3,0,0,1,4.5,1.72,7.28,7.28,0,0,1,2.06,3.56c1.76,6.15,2.23,12.93,3.26,19.24.2,1.22.5,2.6,1.58,3.21,1.57.89,3.42-.5,4.69-1.8q5.52-5.65,10.9-11.47c3.19-3.44,6.37-7,8.55-11.14a8.73,8.73,0,0,0,1.27-4.74A5.56,5.56,0,0,0,787.94,390.8Zm-190.36,1.93a3.11,3.11,0,0,0-.08.44l0,0,0,0A3.11,3.11,0,0,1,597.58,392.73Zm-.11,1.69h0a1.22,1.22,0,0,1,.33,0A1.22,1.22,0,0,0,597.47,394.42Zm1.78-1.05-1-.17,1,.17ZM636.66,320h0a.48.48,0,0,0,0-.31A.51.51,0,0,1,636.66,320Zm2.93,7c.66-.07,1.37-.25,2-.3C641,326.77,640.25,327,639.59,327Zm122.55,65.53c.81.17,1.65,0,2.44.09C763.79,392.53,763,392.72,762.14,392.55Z" transform="translate(0.5 -187.67)"/><path class="cls-17" d="M200.22,388.12a9,9,0,0,1-2.94-2.2A9.15,9.15,0,0,1,196,383c-4.26-13.45-7.89-27.24-12.93-40.43-2.48-6.67-5.13-13.15-8.26-19.55-3.26-6.65-7.12-13.91-12.59-19-.75-.71-1.31-1.77-2.12-2.51s-1.78-1.77-2.69-2.62a53.69,53.69,0,0,0-20.72-12.13,55.82,55.82,0,0,0-33.69.3,59.44,59.44,0,0,0-34.36,29.8c-4.38,8.71-6.57,18.39-9,27.82-2.5,9.76-4.77,19.57-7.26,29.33-1.2,4.7-2.51,9.37-3.58,14.09-.54,2.4-1.91-.5-2.32-1.17a5.61,5.61,0,0,0-2.88-2.06c-6.87-2.78-14.52-2.06-21.6-.57-2.87.61-6,1.42-8.92,2.11-1.8.42-6.51.63-6.55,3.3-.06,3.45,6.31,7.12,8.53,9q4.17,3.42,8.24,7c.3.26,7.09,6.15,7.54,5,2.06-5.25,4-16.67,3.88-17a10.4,10.4,0,0,1,3.45-1.38c2.41-.11,4.84.31,7.23-.05a6.38,6.38,0,0,1,1.57-.15c1.26.12,2.19.73,3.37-.09.49-.34.67-2.8.77-3.47.22-1.48.3-3,.54-4.46.51-3.05,1.25-6.05,2-9.05q2.19-8.85,4.44-17.67c.48-1.89,1-3.78,1.49-5.66s.62-4.3,1.85-6c.67-.91,2.28-1.4,2.77-2.31s.08-3,.15-4.15a53.33,53.33,0,0,1,1.19-7.85c.86-4.12,2.74-7.65,6.69-9.46,2.41-1.1,5.32-.94,7.93-1.26A74.42,74.42,0,0,0,89,319.13a38.62,38.62,0,0,0,11.47-4.66c3.73-2.34,6.88-5.66,10.51-8.22,4.61-3.26,9-3,13.46.14,2.28,1.59,4.72,2.95,7.09,4.41,1.5.93,4.58.9,6.31,1a22.46,22.46,0,0,0,6.29-.28,31.59,31.59,0,0,1,13-.11,14.12,14.12,0,0,1,6.43,2.77,14.88,14.88,0,0,1,3.25,4.32,29.65,29.65,0,0,1,3.9,15.13,14,14,0,0,1,6.89,6.11,51.35,51.35,0,0,1,4.4,10.71c1,3.25,2.1,6.51,2.93,9.83a98.37,98.37,0,0,1,2.7,23.32c-7.5-1.25-18.22-2.1-23,5.3-1.8,2.82-2.29,6.28-2.4,9.63-.21,5.94-1.36,12.1-.1,18,2.22.09,4.22-1.25,6-2.56,7.86-5.72,15.23-12.1,22.86-18.13,1.81-1.43,3.77-3,6.1-3.37s4.82.36,7.09-.62C203.81,390,202,389.1,200.22,388.12ZM34.64,393.53h0a9.87,9.87,0,0,0-.05-1.54v0A4.13,4.13,0,0,1,34.64,393.53Z" transform="translate(0.5 -187.67)"/><path class="cls-16" d="M508.57,338.51a1.93,1.93,0,0,1,.08.48,10.33,10.33,0,0,1,0,2.08,1.8,1.8,0,0,1-.23.82,1.61,1.61,0,0,1-.52.45c-2.11,1.29-7.52.35-5.53-3.12.43-.76,1.51-.57,1.78-1.57a6.41,6.41,0,0,1,.16-.76,1.46,1.46,0,0,1,1.95-.55,6.78,6.78,0,0,1,1.74,1.43,2.24,2.24,0,0,1,.49.53A1.8,1.8,0,0,1,508.57,338.51Z" transform="translate(0.5 -187.67)"/><path class="cls-10" d="M542.28,356.47A67.39,67.39,0,0,1,531,359c-11.22,1.59-20.9,2.35-20.9,2.35C489.53,363,485.39,363.12,480,363c-11.5-.26-14.53-1.44-16.34-2.37a63.32,63.32,0,0,0-9.72-4.33c-3.94-1.34-8-2.23-12-3.45.34.11,1.08,1.59,1.35,1.93a19.08,19.08,0,0,0,1.9,2,24.42,24.42,0,0,0,4.09,3.07c5.24,3.11,7.81,4.75,9.42,6.32,2.67,2.6,2.44,3.77,5.29,5.81a18.18,18.18,0,0,0,4.76,2.4c3.33,1.11,6,.93,10.24.6,7.15-.56,10.73-.84,12-1,6.48-.84,12.21-1.93,17-3,4.35-1,1.8-.56,15-4a64.22,64.22,0,0,0,11.84-4,29.38,29.38,0,0,0,5.89-3.52c1.06-.83,3.94-2.56,4.16-3.93C544.29,355.8,543.39,356.12,542.28,356.47Z" transform="translate(0.5 -187.67)"/><path class="cls-11" d="M542,352c-1.85-.18-2.94.41-5,1a40.37,40.37,0,0,1-6,1c-5.2.66-6.27-.08-12.61.44-2.17.18-3.8.4-5.19.61-3.73.56-7.44,1.48-11.3,1.24-1.83-.11-3.53-1.88-5.71-.32,1.19,1.94,2.12,4,1.69,6.44,3.28-.1,6.5-.26,9.77-.64l3.87-.43c6.43-.74,12.88-1.3,19.27-2.33,3.24-.52,6.46-1.17,9.63-2,1.29-.34,3-.56,4.07-1.4.33-.26,1.2-1.05,1.06-1.83C545.35,352.66,543.27,352.13,542,352Z" transform="translate(0.5 -187.67)"/><path class="cls-9" d="M140.65,340.18c-.76,0-1.69-.05-1.82-.45a.49.49,0,0,1,0-.21A14.13,14.13,0,0,0,139,338c.21-1,3-2.06,4.31-3.87A6.47,6.47,0,0,0,144,329c-.75-2.66-3.18-3.76-3-4s4.42,1.49,5,4c.11.46.29,1.81.4,2.84.06.5.08.79.09,1.1a12.46,12.46,0,0,1-.12,2.2c-.1.76-.14,2.3-.68,2.91a1.59,1.59,0,0,1-.44.33,16.76,16.76,0,0,1-3.61,1.7A6.65,6.65,0,0,1,140.65,340.18Z" transform="translate(0.5 -187.67)"/><path class="cls-15" d="M142.19,325.86a2.45,2.45,0,0,0-.69-.83,11.1,11.1,0,0,0-5.8-2,4.63,4.63,0,0,1,2.07,2.53,4.73,4.73,0,0,1,.23.45,5.48,5.48,0,0,1-.29,4.2c.08.31.17.62.25.93,1.24.71,1.48,2.05,1.83,2.92,0,0,1.3-1.55,1.41-1.75a7.88,7.88,0,0,0,.79-2C142.33,329,142.85,327.15,142.19,325.86Z" transform="translate(0.5 -187.67)"/><path class="cls-12" d="M96.1,333.28c.4,1.12.65,2.22-.91,2.61-1.32.33-.89,1.55-1.31,2.34C92.14,335.47,94,334.3,96.1,333.28Z" transform="translate(0.5 -187.67)"/><path class="cls-12" d="M99.4,333l-3.24.15C97.18,331.67,98.25,331.51,99.4,333Z" transform="translate(0.5 -187.67)"/><path class="cls-12" d="M94.21,338.79a1.7,1.7,0,0,1,1.67,1.33C94.78,340.36,94.07,340.1,94.21,338.79Z" transform="translate(0.5 -187.67)"/><path class="cls-9" d="M133.37,341.24a14.22,14.22,0,0,1-5.22-.65,4.77,4.77,0,0,1-3.27-2.89c-.66-1.88,0-3.94.1-5.94a2.3,2.3,0,0,0-.18-1.11,1,1,0,0,0-.92-.56c-.41.06-.65,3.53-.68,4a9.91,9.91,0,0,0,.31,3.7A9.27,9.27,0,0,0,130,344a6.11,6.11,0,0,0,3,0,6.82,6.82,0,0,0,2-1,24.37,24.37,0,0,1,4-2C136.71,341.2,134.78,341.24,133.37,341.24Z" transform="translate(0.5 -187.67)"/><path class="cls-15" d="M132.49,331H134c.34,1.71-1,1.88-2.5,2l-.45-1.89Z" transform="translate(0.5 -187.67)"/><path class="cls-12" d="M137.9,341.41a12,12,0,0,0,1.39-.39,28.37,28.37,0,0,0,2.71-1,5.26,5.26,0,0,0-2,0c-.38.08-.79.21-1,0s-.13-.49-.1-.68a2.47,2.47,0,0,1,.71-1.32c1.67-1.62,3.44-2.56,4.39-4,1.42-2.15.77-5.32-.24-7a7.56,7.56,0,0,0-.76-1,7.38,7.38,0,0,0-3-2,6.84,6.84,0,0,1,2.38,5.15c0,1.94-3.53,5.79-2.53,4.71.58-.61-5.94-9.1-7.45-3.21a.66.66,0,0,0,.06.58.54.54,0,0,0,.63.06,3.64,3.64,0,0,0,.53-.44,2.74,2.74,0,0,1,2.72-.27c1.59.6,1.93,3.17,1.29,4.65-1,2.29-5.15,2.69-6,.09-.41-1.27.17-2.69-.2-4a3.37,3.37,0,0,0-1.77,2.71c-.08,1.36,1.82,4.75,3.54,3.47-1,.78,0,3.3.88,3.65A7.44,7.44,0,0,0,137.9,341.41Z" transform="translate(0.5 -187.67)"/><path class="cls-10" d="M314.27,266.93a5.39,5.39,0,0,0,.48-1.52,2.65,2.65,0,0,1,.16-.63c.29-.61,1.35-.57,1.93-.55a4.08,4.08,0,0,1,2.19.69,2.61,2.61,0,0,1,1,1.47,3.77,3.77,0,0,1,0,1.42,5,5,0,0,1-.67,2,3.24,3.24,0,0,1-3.07,1.39c-1.33-.17-2.27-1.28-3.25-2.08a2.31,2.31,0,0,1,0-.65c0-.31.1-.26.33-.42a2.78,2.78,0,0,0,.68-.73A2.5,2.5,0,0,0,314.27,266.93Z" transform="translate(0.5 -187.67)"/><path class="cls-15" d="M685.42,338.44c.28.48.13.9.05,1.94-.11,1.34,0,1.7,0,2.48-.13,2.53-2.2,5.36-3.48,5.14-.28-.05-.64-.26-1-1a6.73,6.73,0,0,0,.8-4.9c1.3-.67,1-1.91,1-3a1.65,1.65,0,0,1,.81-1.44A1.63,1.63,0,0,1,685.42,338.44Z" transform="translate(0.5 -187.67)"/><path class="cls-18" d="M650.86,340.24a1.25,1.25,0,0,0-.38-.25,10.08,10.08,0,0,0-5.48-1,12.52,12.52,0,0,0-3.17,1,7.28,7.28,0,0,0-2.83,3,8.06,8.06,0,0,0-1,3c-.14,1.19-.28,2.33.42,3.05a11.07,11.07,0,0,0,2.71.85,2.44,2.44,0,0,0,1.31.1c.28-.07,1.37-.61,1.31-1-.56-3.72,2.07-6.12,5.76-5.35a1,1,0,0,0,.67-.05c.57-.27.69-1.14.78-1.75s.29-1.19-.07-1.61Z" transform="translate(0.5 -187.67)"/><path class="cls-10" d="M646.29,349.84a1.19,1.19,0,0,1-.12-.22,12.88,12.88,0,0,1-.58-1.32,1.4,1.4,0,0,1-.11-.49c0-.59.67-1.07,1-1.42a5.26,5.26,0,0,1,1.54-1c.89-.36,1.82.62,1.93,1.45a2.33,2.33,0,0,1-2,3c-.35.07-1.26.34-1.56.09Z" transform="translate(0.5 -187.67)"/><path class="cls-16" d="M675.5,346.36c-.52-.91.86-2.85,1.35-3.56A1.72,1.72,0,0,1,678,342a1.6,1.6,0,0,1,.92.25,2.44,2.44,0,0,1,1.18,2.37c-.19,1.4-1.43,1.89-2.68,1.93l-1.41,0a.66.66,0,0,1-.37-.05A.35.35,0,0,1,675.5,346.36Z" transform="translate(0.5 -187.67)"/><path class="cls-10" d="M136.69,330.67c1.33.62,1.14,2.38,1.08,3.62-.1,1.9-2.6,3.19-4.31,2.82a2,2,0,0,1-.89-.51,3.56,3.56,0,0,1-1.08-1.76c-.12-.5-.18-1.56.25-1.95s1.23-.07,1.57-.8-.05-1.39,1.06-1.7a2.93,2.93,0,0,1,1.18,0A3.71,3.71,0,0,1,136.69,330.67Z" transform="translate(0.5 -187.67)"/><path class="cls-8" d="M512,345" transform="translate(0.5 -187.67)"/><path class="cls-9" d="M327.34,265.14s-.06-.15-.12-.31c-1.18-3.13-3.21-5.86-6.59-6.68-1.41-.34-5.05-.65-6,.61,1.09.17,2.21-.09,3.31,0a9.74,9.74,0,0,1,7,4c2.12,3,3,8.26-.94,9.6l.59-.11c1.76-.29,2,0,2.49-.26C328.4,271.18,328.23,267.73,327.34,265.14Z" transform="translate(0.5 -187.67)"/><path class="cls-12" d="M669.86,345.1a8.89,8.89,0,0,1,3-6.48,5,5,0,0,1,.93-.59,14.79,14.79,0,0,1,4.75-2.07l.06,0a2.52,2.52,0,0,0-.68-.33l-1.68.16c-5.28.49-8.94,6.56-7.71,11.51a9.8,9.8,0,0,0,3.14,5c3.88,3.17,8.75,1.89,9.28,1.74a10.52,10.52,0,0,1-4.66-.67C673.46,352.2,669.8,349.23,669.86,345.1Z" transform="translate(0.5 -187.67)"/><path class="cls-8" d="M464.67,332.64a8.34,8.34,0,0,1,3.61-5.26,8.8,8.8,0,0,1,4-1.08,7.59,7.59,0,0,1,5.24,1.38,6.71,6.71,0,0,1,2.41,5.85c-1.52-.33-2-3.32-3.32-4.39-1.55-1.3-3.54-1.15-5.38-1a4.14,4.14,0,0,0-2.14.64,5.34,5.34,0,0,0-1.16,1.43c-.86,1.38-2,3.41-1.43,5.29a3.85,3.85,0,0,0,2.89,2.47,1.47,1.47,0,0,1,.77,1,4.41,4.41,0,0,1,0,1h0l6.17,2a25.76,25.76,0,0,1-2.51,1.64,11.1,11.1,0,0,1-1.56.81c-2.83.87-6.08-1.63-7.33-4.91A11.66,11.66,0,0,1,464.67,332.64Z" transform="translate(0.5 -187.67)"/><path class="cls-14" d="M463.65,319.35c1.87,1.28,3.69,2.62,5.45,4,1.48,1.21,3.62-.9,2.12-2.12q-2.93-2.38-6.06-4.52c-1.6-1.09-3.1,1.51-1.51,2.59Z" transform="translate(0.5 -187.67)"/><path class="cls-19" d="M259.92,246.77c-.87-.06-1.75-.11-2.63-.19-1.58-.15-3.12-.55-4.69-.77-.88-.12-1-.19-1.11-1a49.59,49.59,0,0,1-.21-6.56c0-3.12.17-6.24.36-9.36a43.45,43.45,0,0,1,1.15-8.18,38.93,38.93,0,0,1,3.19-8.54,34.44,34.44,0,0,1,7.51-9.84,41.77,41.77,0,0,1,10.48-7,57.32,57.32,0,0,1,13.91-4.45c.35-.06.49-.15.44-.48a1.5,1.5,0,0,1,1.06-1.64,10.8,10.8,0,0,1,6.24-.94,3.43,3.43,0,0,1,2.92,2.63c.07.29.28.3.49.35,1.28.29,2.56.61,3.84.87a71.62,71.62,0,0,1,10.23,3,45.29,45.29,0,0,1,6.8,3.07,34.49,34.49,0,0,1,6.11,4.13,26.67,26.67,0,0,1,5.28,6.16,19.56,19.56,0,0,1,2.36,7.52c.56,4.31,1.47,8.59,2.24,12.88.43,2.33.85,4.67,1.28,7a.85.85,0,0,0,.58.77c4.87,2.06,9.73,4.11,14.53,6.31,4,1.83,8,3.7,11.73,5.88a9.81,9.81,0,0,1,4.67,5,4,4,0,0,1-.49,4.34,10.84,10.84,0,0,1-8,3.51,21.74,21.74,0,0,1-10.44-2.18,41,41,0,0,1-10.1-6.78,1.06,1.06,0,0,0-1.16-.28,54.87,54.87,0,0,0-5.73,2.17c-3.29,1.42-6.53,2.92-9.75,4.46s-6.54,3.29-9.92,4.72c-5.17,2.2-10.39,4.18-16.09,4.91a15.21,15.21,0,0,1-5.43-.17,28.76,28.76,0,0,1-7.2-3,48.65,48.65,0,0,1-6.19-4,70.33,70.33,0,0,1-6.89-5.84q-3.74-3.72-7.14-7.72a1.24,1.24,0,0,0-1-.49c-1.08-.06-2.17-.15-3.25-.23Zm75.48-11.58c.19.05.41.23.58.09s0-.4,0-.59c-1.05-3.84-1.61-7.76-2.28-11.66-.55-3.24-1.12-6.47-1.61-9.72-.37-2.45-1.69-4.49-3-6.56-2.58-4.05-6.5-6.63-10.86-8.74a96.41,96.41,0,0,0-21.23-7,7.15,7.15,0,0,0-4,.33,85.88,85.88,0,0,0-10.88,4.56,39.57,39.57,0,0,0-11.63,8.74,16.05,16.05,0,0,0-4,12.74,145.5,145.5,0,0,0,2.68,16.83c.5,2.32,1.09,4.64,1.59,7,.13.61.4.76,1,.7,2.48-.28,4.91-.77,7.35-1.23,6.66-1.27,13.22-3,19.84-4.35A179.24,179.24,0,0,1,320.81,233a21.91,21.91,0,0,1,3.8,0A64.57,64.57,0,0,1,335.4,235.19Zm19.2,9.6c-3.33-1.71-6.71-3.32-10.16-4.8a83.47,83.47,0,0,0-14.59-4.92,33.77,33.77,0,0,0-8.46-.7,118.1,118.1,0,0,0-12.76,1.13q-4.74.66-9.4,1.73c-3.5.81-7,1.73-10.49,2.51-3.71.83-7.43,1.63-11.17,2.35-3.94.75-7.91,1.4-11.92,1.77-.45,0-1.12-.13-1.27.22s.46.68.75,1c2.59,2.86,5.37,5.56,8.24,8.17a76.65,76.65,0,0,0,11.51,8.85,21.39,21.39,0,0,0,4.48,2.19,18,18,0,0,0,5.66.77,30.32,30.32,0,0,0,6.16-.65,37.25,37.25,0,0,0,6.65-2.1c3.36-1.4,6.42-3.31,9.69-4.86,2.84-1.35,5.69-2.68,8.52-4,2-.95,4-1.92,6.07-2.75a71,71,0,0,1,8.25-2.69,51.26,51.26,0,0,1,10.31-1.62,32.74,32.74,0,0,1,5.6.09l1.17.09.06-.17C356.54,245.83,355.58,245.29,354.6,244.79Zm-68.4-52.65a69.78,69.78,0,0,0-8.52,3,52.38,52.38,0,0,0-9.95,5.58,40,40,0,0,0-6.51,5.79,23.64,23.64,0,0,0-3.31,5,42.36,42.36,0,0,0-3.65,10.82,83.72,83.72,0,0,0-1.58,13.58c0,.73-.1,1.46-.13,2.19s.09.78.82.67c4.56-.68,9.12-1.42,13.75-1.67,1.35-.08,1.38-.08,1.09-1.34a115.65,115.65,0,0,1-2.06-12.51,49.5,49.5,0,0,1-.43-10.81,13.73,13.73,0,0,1,2.41-6.23,25.18,25.18,0,0,1,5.32-5.69,53,53,0,0,1,12.22-7.24c1.27-.55,2.55-1.07,3.82-1.61A9.4,9.4,0,0,0,286.2,192.14Zm77.58,65.77a2.45,2.45,0,0,0,.86-3.67,7.16,7.16,0,0,0-3.81-3.25,29,29,0,0,0-8.74-1.26,34.13,34.13,0,0,0-8.45,1,20.31,20.31,0,0,0-2.43.67c-.34.12-.33.27-.12.46.39.35.82.68,1.23,1a37.53,37.53,0,0,0,8.72,5.23,15.42,15.42,0,0,0,4.68,1.33,11.37,11.37,0,0,0,1.44.23A12.34,12.34,0,0,0,363.78,257.91Zm-92.35-4.21a53.38,53.38,0,0,0,8.69,7.8,32.69,32.69,0,0,0,10.68,5.39,17.12,17.12,0,0,0,5.84.29,42.82,42.82,0,0,0,12.83-3.32c3.86-1.61,7.61-3.43,11.39-5.19,2.7-1.25,5.19-2.83,7.94-4a90.48,90.48,0,0,1,12.11-4.26,54.13,54.13,0,0,1,8.1-1.56c4.6-.49,9.16-.42,13.46,1.61a7.37,7.37,0,0,1,3.65,3.67,3.36,3.36,0,0,1-.57,3.7c-.16.21-.54.47-.3.69s.51-.14.71-.3c2.72-2.09,2.26-5-.06-7.2-1.92-1.86-4.46-2.59-7-3.24-5.08-1.29-10.13-.83-15.18.21a65.76,65.76,0,0,0-14.43,5.22c-5,2.36-10,4.74-15,7-2.51,1.16-5,2.37-7.62,3.3a33.28,33.28,0,0,1-14,2.24,16.93,16.93,0,0,1-6.95-2.2,70.15,70.15,0,0,1-9.27-6.28,75.42,75.42,0,0,1-5.72-5c-.15-.15-.26-.38-.65-.3A6.09,6.09,0,0,0,271.43,253.7Zm-12.61-14.94c-1.85.26-3.66.66-5.48,1-.48.1-.77.33-.75.84,0,1.07,0,2.14,0,3.22,0,.37.17.5.58.37a37,37,0,0,1,10.94-1.47,41.64,41.64,0,0,0,4.73-.48c.56-.08.63-.36.51-.82-.23-.92-.43-1.85-.64-2.78-.15-.69-.15-.69-1.13-.71C264.84,238.08,261.82,238.35,258.82,238.76Zm31.45-49.23c-.22.12-.53.24-.48.49s.42.19.65.19a61.6,61.6,0,0,0,6.37-.46c.22,0,.53,0,.56-.29s-.32-.34-.54-.39c-.67-.15-1.35-.25-1.81-.33A8.6,8.6,0,0,0,290.27,189.53ZM365,258.76h0l0,0Z" transform="translate(0.5 -187.67)"/><path class="cls-20" d="M324.61,233.06a64.57,64.57,0,0,1,10.79,2.13c.19.05.41.23.58.09s0-.4,0-.59c-1.05-3.84-1.61-7.76-2.28-11.66-.55-3.24-1.12-6.47-1.61-9.72-.37-2.45-1.69-4.49-3-6.56-2.58-4.05-6.5-6.63-10.86-8.74a96.41,96.41,0,0,0-21.23-7,7.15,7.15,0,0,0-4,.33,85.88,85.88,0,0,0-10.88,4.56,39.57,39.57,0,0,0-11.63,8.74,16.05,16.05,0,0,0-4,12.74,145.5,145.5,0,0,0,2.68,16.83c.5,2.32,1.09,4.64,1.59,7,.13.61.4.76,1,.7,2.48-.28,4.91-.77,7.35-1.23,6.66-1.27,13.22-3,19.84-4.35A179.24,179.24,0,0,1,320.81,233,21.91,21.91,0,0,1,324.61,233.06Z" transform="translate(0.5 -187.67)"/><path class="cls-20" d="M357.5,246.36c-1-.53-1.92-1.07-2.9-1.57-3.33-1.71-6.71-3.32-10.16-4.8a83.47,83.47,0,0,0-14.59-4.92,33.77,33.77,0,0,0-8.46-.7,118.1,118.1,0,0,0-12.76,1.13q-4.74.66-9.4,1.73c-3.5.81-7,1.73-10.49,2.51-3.71.83-7.43,1.63-11.17,2.35-3.94.75-7.91,1.4-11.92,1.77-.45,0-1.12-.13-1.27.22s.46.68.75,1c2.59,2.86,5.37,5.56,8.24,8.17a76.65,76.65,0,0,0,11.51,8.85,21.39,21.39,0,0,0,4.48,2.19,18,18,0,0,0,5.66.77,30.32,30.32,0,0,0,6.16-.65,37.25,37.25,0,0,0,6.65-2.1c3.36-1.4,6.42-3.31,9.69-4.86,2.84-1.35,5.69-2.68,8.52-4,2-.95,4-1.92,6.07-2.75a71,71,0,0,1,8.25-2.69,51.26,51.26,0,0,1,10.31-1.62,32.74,32.74,0,0,1,5.6.09l1.17.09Z" transform="translate(0.5 -187.67)"/><path class="cls-21" d="M289.49,191.59a9.4,9.4,0,0,0-3.29.55,69.78,69.78,0,0,0-8.52,3,52.38,52.38,0,0,0-9.95,5.58,40,40,0,0,0-6.51,5.79,23.64,23.64,0,0,0-3.31,5,42.36,42.36,0,0,0-3.65,10.82,83.72,83.72,0,0,0-1.58,13.58c0,.73-.1,1.46-.13,2.19s.09.78.82.67c4.56-.68,9.12-1.42,13.75-1.67,1.35-.08,1.38-.08,1.09-1.34a115.65,115.65,0,0,1-2.06-12.51,49.5,49.5,0,0,1-.43-10.81,13.73,13.73,0,0,1,2.41-6.23,25.18,25.18,0,0,1,5.32-5.69,53,53,0,0,1,12.22-7.24C286.94,192.65,288.22,192.13,289.49,191.59Z" transform="translate(0.5 -187.67)"/><path class="cls-21" d="M357.16,259.69a12.34,12.34,0,0,0,6.62-1.78,2.45,2.45,0,0,0,.86-3.67,7.16,7.16,0,0,0-3.81-3.25,29,29,0,0,0-8.74-1.26,34.13,34.13,0,0,0-8.45,1,20.31,20.31,0,0,0-2.43.67c-.34.12-.33.27-.12.46.39.35.82.68,1.23,1a37.53,37.53,0,0,0,8.72,5.23,15.42,15.42,0,0,0,4.68,1.33A11.37,11.37,0,0,0,357.16,259.69Z" transform="translate(0.5 -187.67)"/><path class="cls-21" d="M270.1,252.07a6.09,6.09,0,0,0,1.33,1.63,53.38,53.38,0,0,0,8.69,7.8,32.69,32.69,0,0,0,10.68,5.39,17.12,17.12,0,0,0,5.84.29,42.82,42.82,0,0,0,12.83-3.32c3.86-1.61,7.61-3.43,11.39-5.19,2.7-1.25,5.19-2.83,7.94-4a90.48,90.48,0,0,1,12.11-4.26,54.13,54.13,0,0,1,8.1-1.56c4.6-.49,9.16-.42,13.46,1.61a7.37,7.37,0,0,1,3.65,3.67,3.36,3.36,0,0,1-.57,3.7c-.16.21-.54.47-.3.69s.51-.14.71-.3c2.72-2.09,2.26-5-.06-7.2-1.92-1.86-4.46-2.59-7-3.24-5.08-1.29-10.13-.83-15.18.21a65.76,65.76,0,0,0-14.43,5.22c-5,2.36-10,4.74-15,7-2.51,1.16-5,2.37-7.62,3.3a33.28,33.28,0,0,1-14,2.24,16.93,16.93,0,0,1-6.95-2.2,70.15,70.15,0,0,1-9.27-6.28,75.42,75.42,0,0,1-5.72-5C270.6,252.22,270.49,252,270.1,252.07Z" transform="translate(0.5 -187.67)"/><path class="cls-21" d="M267.63,238c-2.79.11-5.81.38-8.81.79-1.85.26-3.66.66-5.48,1-.48.1-.77.33-.75.84,0,1.07,0,2.14,0,3.22,0,.37.17.5.58.37a37,37,0,0,1,10.94-1.47,41.64,41.64,0,0,0,4.73-.48c.56-.08.63-.36.51-.82-.23-.92-.43-1.85-.64-2.78C268.61,238,268.61,238,267.63,238Z" transform="translate(0.5 -187.67)"/><path class="cls-21" d="M295,188.74a8.6,8.6,0,0,0-4.75.79c-.22.12-.53.24-.48.49s.42.19.65.19a61.6,61.6,0,0,0,6.37-.46c.22,0,.53,0,.56-.29s-.32-.34-.54-.39C296.16,188.92,295.48,188.82,295,188.74Z" transform="translate(0.5 -187.67)"/><polygon class="cls-21" points="365.44 71.14 365.46 71.09 365.41 71.09 365.44 71.14"/><image width="3236" height="3908" transform="translate(279.69 6.72) rotate(-6.69) scale(0.01)" xlink:href="E:\OpenServer\OSPanel\domains\travelClub\public\images\LOGO-1.png"/><path class="cls-21" d="M170.74,265.68C150.06,248.75,119,246.44,93.56,253.8c-20.36,5.88-39.39,19.5-46.16,39.53.26-.75,3.21,3.05,3.3,3.73,1.6-3.07,3.92-5.56,6.25-8.29,7.64-8.94,16.29-16.61,26.93-22.14,15.58-8.12,35-10.82,52.41-7.85,18.15,3.11,31,13.09,41.52,27.08,1.19,1.57,5.31,5.55,5.39,7.44.16-2.86-.12-6.12,4.68-4.61C184.38,279.49,178.38,271.94,170.74,265.68Z" transform="translate(0.5 -187.67)"/><path class="cls-20" d="M47.73,334.72c-.19,1.4-.33,2.81-.44,4.22-.23,3-.38,5.94-.55,8.91-.06,1.1-1.32,9.41-.68,9.83-14.65-9.67-5.23-21.72-3.3-33,4.58,2.79,4.14-.94,4.71-3.37.76-3.2-1.81-6.76,1.23-9.7l5.18-.6c-.92.1-.22,5.33-.11,5.75a4.43,4.43,0,0,0-2.2,2.81A65,65,0,0,0,47.73,334.72Z" transform="translate(0.5 -187.67)"/><path class="cls-22" d="M48.7,311.57c-3,2.94-.47,6.5-1.23,9.7-.57,2.43-.13,6.16-4.71,3.37-.48-3.73-.09-7.29-2.73-11-3-4.14-2.38-9.36,2-13.5,1.53-1.46,4.19-2.34,3.87-5.15l1-1.69h0c3,.13,3.53,2.14,3.74,4.43C47.94,302.11,49.33,307,48.7,311.57Z" transform="translate(0.5 -187.67)"/><path class="cls-22" d="M183.2,293.3c.16-2.86-.12-6.12,4.68-4.61-.64,3.37,2.12,4.87,4.19,6.5a9.75,9.75,0,0,1,2.44,13.43c-2.52,3.87-2.45,7.19-2.22,11-.41.35-2.91,2.43-4.51,1.67-1.1-.52-1.22-2.14-1.41-4.57-.21-2.83-.45-5.94-.76-10.05C185.44,302.12,186.1,297.4,183.2,293.3Z" transform="translate(0.5 -187.67)"/><path class="cls-20" d="M195.87,329a39.78,39.78,0,0,0-1.67-6.49c-.59-1.74-1-2.61-1.83-2.88-1.53-.5-3.25,2-4.59.85a2.37,2.37,0,0,1-.6-1,12.59,12.59,0,0,1-.83-6.45c.22-2.17.49-4.42-.74-6.37-.45-.71-5.28-1.19-6.19-1.29,1.25,7.34,5,14.79,7,22.07,2.08,7.73,2.75,16,5.09,23.62a10.51,10.51,0,0,0,4.43-3.15,9,9,0,0,0,1.86-4.2C198.53,339.2,197.21,333.94,195.87,329Z" transform="translate(0.5 -187.67)"/><path class="cls-23" d="M51.17,362l-7.24-1.89a3.8,3.8,0,0,1-2.77-4.7l13.24-46a4,4,0,0,1,4.9-2.69l7.24,1.9a3.79,3.79,0,0,1,2.77,4.69l-13.24,46A4,4,0,0,1,51.17,362Z" transform="translate(0.5 -187.67)"/><path class="cls-23" d="M192.15,354.24,185,356.56a4,4,0,0,1-5-2.4L164.7,309a3.87,3.87,0,0,1,2.56-4.86l7.14-2.32a4,4,0,0,1,5,2.4l15.29,45.17A3.85,3.85,0,0,1,192.15,354.24Z" transform="translate(0.5 -187.67)"/></g><g id="discount"><rect class="cls-17" x="149.5" y="385.33" width="502" height="134" rx="12" ry="12"/><text class="cls-24" transform="translate(208.43 487.62)">скидка</text><circle class="cls-14" cx="205" cy="398.83" r="10.5"/><circle class="cls-14" cx="586" cy="399.83" r="10.5"/><circle class="cls-25" cx="205" cy="354.83" r="10.5"/><circle class="cls-25" cx="586" cy="353.83" r="10.5"/><rect class="cls-20" x="198.5" y="353.33" width="12" height="49" rx="6" ry="6"/><rect class="cls-20" x="580.5" y="353.33" width="12" height="49" rx="6" ry="6"/></g></svg>