<svg xmlns="http://www.w3.org/2000/svg" viewBox="0 0 173.66 261"><defs><style>.cls-1,.cls-2,.cls-5{stroke:#000;}.cls-1,.cls-2{stroke-linecap:round;stroke-linejoin:round;stroke-width:0.5px;}.cls-2,.cls-5{fill:none;}.cls-3{fill:#f7931e;}.cls-4{fill:#ffe458;}</style></defs><title>Ресурс 4</title><g id="Слой_2" data-name="Слой 2"><g id="Слой_4" data-name="Слой 4"><path class="cls-1" d="M98.71,260.56l-24.31.19a1.13,1.13,0,0,1-1.22-1V249.18a5.57,5.57,0,0,1-1.78-1.57,4,4,0,0,1-.52-1.44c0-.39.08-.73.54-.73l30.52-.19c.46,0,.54.29.53.74a4.13,4.13,0,0,1-.44,1.44A5,5,0,0,1,99.92,249v10.56A1.11,1.11,0,0,1,98.71,260.56Z"/><line class="cls-2" x1="71.42" y1="245.44" x2="73.46" y2="213.79"/><line class="cls-2" x1="101.94" y1="245.25" x2="100.03" y2="213.81"/><line class="cls-2" x1="78.81" y1="245.25" x2="78.54" y2="216.41"/><line class="cls-2" x1="94.36" y1="245.25" x2="94.1" y2="216.41"/><path class="cls-3" d="M173.41,86.17a81,81,0,0,1-.86,12,102.14,102.14,0,0,1-12.5,2.94c3.92-28.58-4.24-52.53-18.94-68.95C124.26,13.31,102.48,3.72,91.38.44V.37C137.07,2.72,173.41,40.23,173.41,86.17Z"/><path d="M172.55,98.15c-.21,1.49-.48,2.94-.78,4.36h0a102.49,102.49,0,0,1-12.47,2.87c.2-.95.39-1.91.58-2.87.07-.48.14-1,.19-1.42A102.14,102.14,0,0,0,172.55,98.15Z"/><path d="M160.05,101.09c-.05.47-.12.94-.19,1.42-.19,1-.38,1.92-.58,2.87-5.13.93-11.94,2-20.56,2.88.24-1.36.46-2.76.65-4.18C148,103.15,154.89,102.08,160.05,101.09Z"/><path class="cls-3" d="M171.75,102.51C166,129.89,145.83,144.61,129,162c5.23-5.66,23.86-27.29,30.27-56.6A102.49,102.49,0,0,0,171.75,102.51Z"/><path d="M139.37,104.08c-.19,1.42-.41,2.82-.65,4.18-7.95.83-17.44,1.56-28.6,2,.17-1.39.33-2.76.46-4.09h0C121.8,105.7,131.37,105,139.37,104.08Z"/><path class="cls-3" d="M138.72,108.26c-3.36,18.87-11.49,32.85-20,44.45-21.16,28.89-15.84,45.47-24.88,61.95-2.75-21,12.09-70.52,16.26-104.41C121.28,109.82,130.77,109.09,138.72,108.26Z"/><path d="M110.58,106.15h0c-.13,1.33-.29,2.7-.46,4.09-7.11.28-14.91.44-23.4.44s-16.14-.15-23.19-.43c-.18-1.41-.34-2.81-.47-4.17,7.37.32,15.45.51,24.28.51C95.77,106.6,103.51,106.43,110.58,106.15Z"/><path class="cls-4" d="M93.86,214.66c9-16.48,3.72-33.06,24.88-61.95,8.49-11.6,16.62-25.58,20-44.45,8.62-.91,15.43-2,20.56-2.88-6.41,29.31-25,50.94-30.27,56.6-.78.84-1.26,1.32-1.37,1.44a117.25,117.25,0,0,0-9.49,11.16c-16.63,22.49-9.77,32.12-18.09,39.19l0-.05a36.86,36.86,0,0,1-6.15,1.07Z"/><path class="cls-4" d="M93.86,214.66v.13c-1.8.16-4,.24-7.15.3a55.34,55.34,0,0,1-6.93-.33l0-.1-.15-.28c2.72-21-11.91-70.24-16.13-104.12,7,.28,14.76.43,23.19.43s16.29-.16,23.4-.44C106,144.14,91.11,193.62,93.86,214.66Z"/><path class="cls-4" d="M140.34,88.74C140,23.88,87.88.71,86.84.26h0c1.52,0,3,0,4.55.12V.44c11.1,3.28,32.88,12.87,49.73,31.7,14.7,16.42,22.86,40.37,18.94,69-5.16,1-12,2.06-20.68,3A111.11,111.11,0,0,0,140.34,88.74Z"/><path class="cls-3" d="M86.84.26c1,.45,53.15,23.62,53.5,88.48a111.11,111.11,0,0,1-1,15.34c-8,.87-17.57,1.62-28.79,2.07C115.54,71.56,105.66,33.2,86.84.26Z"/><path class="cls-4" d="M86.84.26c18.82,32.94,28.7,71.3,23.74,105.89-7.07.28-14.81.45-23.24.45-8.83,0-16.91-.19-24.28-.51a1.38,1.38,0,0,0,0-.2C58.09,71.3,68,33.21,86.82.26a0,0,0,0,0,0,0Z"/><path class="cls-3" d="M33.32,88.74C33.67,23.88,85.78.71,86.82.26,68,33.21,58.09,71.3,63,105.89a1.38,1.38,0,0,1,0,.2c-11.21-.48-20.78-1.28-28.79-2.19A108.66,108.66,0,0,1,33.32,88.74Z"/><path class="cls-3" d="M81.38.42h0A109.07,109.07,0,0,0,31.94,32.14C17.32,48.49,9.17,72.27,13,100.67a100.88,100.88,0,0,1-11.9-2.91,81.78,81.78,0,0,1-.8-11.59C.25,40.54,36.1,3.21,81.38.42Z"/><path class="cls-4" d="M81.38.42C83.18.31,85,.25,86.83.25a0,0,0,0,1,0,0c-1,.45-53.15,23.62-53.5,88.48a108.66,108.66,0,0,0,1,15.16c-9-1-16.08-2.19-21.32-3.23-3.78-28.4,4.37-52.18,19-68.53A109.07,109.07,0,0,1,81.38.43Z"/><path class="cls-3" d="M63.53,110.26c4.22,33.88,18.85,83.14,16.13,104.12C70.82,198,76,181.44,54.92,152.71c-8.49-11.6-16.62-25.56-20-44.43C42.89,109.11,52.37,109.83,63.53,110.26Z"/><path class="cls-4" d="M79.79,214.76a53,53,0,0,1-6.33-1.06l0,0c-7.59-7.84-1.6-16.68-18.21-39.16a125.74,125.74,0,0,0-10.42-12.17l.06-.06c-4.43-4.62-24.47-26.62-31.08-57.06,5.2,1,12.2,2.06,21.18,3,3.35,18.87,11.48,32.83,20,44.43,21,28.73,15.9,45.29,24.74,61.67l.15.28Z"/><path class="cls-3" d="M79.79,214.76a55.34,55.34,0,0,0,6.93.33c3.17-.06,5.35-.14,7.15-.3a36.86,36.86,0,0,0,6.15-1.07l0,.05,0,0c-4.59,3.89-22.37,4.28-26.56,0,0,0,0,0,0,0l0,0A53,53,0,0,0,79.79,214.76Z"/><path d="M63.06,106.09c.13,1.36.29,2.76.47,4.17-11.16-.43-20.64-1.15-28.58-2-.26-1.43-.49-2.89-.68-4.38C42.28,104.81,51.85,105.61,63.06,106.09Z"/><path d="M34.27,103.9c.19,1.49.42,2.95.68,4.38-9-.93-16-2-21.18-3-.21-.92-.4-1.84-.57-2.78-.1-.61-.18-1.24-.25-1.84C18.19,101.71,25.24,102.88,34.27,103.9Z"/><path class="cls-3" d="M44.79,162.41C28,144.89,7.71,130.12,1.89,102.52a101.61,101.61,0,0,0,11.88,2.77c6.61,30.44,26.65,52.44,31.08,57.06Z"/><path d="M13.2,102.51c.17.94.36,1.86.57,2.78a101.61,101.61,0,0,1-11.88-2.77h0c-.32-1.55-.6-3.13-.83-4.75A100.88,100.88,0,0,0,13,100.67C13,101.27,13.1,101.9,13.2,102.51Z"/><path class="cls-2" d="M73.46,213.7a53,53,0,0,0,6.33,1.06,55.34,55.34,0,0,0,6.93.33c3.17-.06,5.35-.14,7.15-.3a36.86,36.86,0,0,0,6.15-1.07"/><path class="cls-2" d="M1.89,102.52a101.61,101.61,0,0,0,11.88,2.77c5.2,1,12.2,2.06,21.18,3,7.94.83,17.42,1.55,28.58,2,7,.28,14.76.43,23.19.43s16.29-.16,23.4-.44c11.16-.43,20.65-1.16,28.6-2,8.62-.91,15.43-2,20.56-2.88a102.49,102.49,0,0,0,12.47-2.87"/><path class="cls-2" d="M1.05,97.76A100.88,100.88,0,0,0,13,100.67c5.24,1,12.29,2.21,21.32,3.23,8,.91,17.58,1.71,28.79,2.19,7.37.32,15.45.51,24.28.51,8.43,0,16.17-.17,23.24-.45,11.22-.45,20.79-1.2,28.79-2.07,8.67-.93,15.52-2,20.68-3a102.14,102.14,0,0,0,12.5-2.94"/><path class="cls-2" d="M127.64,163.42a117.25,117.25,0,0,0-9.49,11.16c-16.63,22.49-9.77,32.12-18.09,39.19l0,0c-4.59,3.89-22.37,4.28-26.56,0,0,0,0,0,0,0-7.59-7.84-1.6-16.68-18.21-39.16a125.74,125.74,0,0,0-10.42-12.17C28,144.89,7.71,130.12,1.89,102.52h0c-.32-1.55-.6-3.13-.83-4.75a81.78,81.78,0,0,1-.8-11.59C.25,40.54,36.1,3.21,81.38.42,83.18.31,85,.25,86.83.25c1.52,0,3,0,4.55.12,45.69,2.35,82,39.86,82,85.8a81,81,0,0,1-.86,12c-.21,1.49-.48,2.94-.78,4.36h0C166,129.89,145.83,144.61,129,162"/><path class="cls-2" d="M129,162c-.78.84-1.26,1.32-1.37,1.44"/><line class="cls-5" x1="2.38" y1="102.18" x2="71.42" y2="245.44"/><line class="cls-5" x1="171.52" y1="102.18" x2="101.94" y2="245.25"/><line class="cls-5" x1="86.73" y1="110.7" x2="86.67" y2="245.25"/><line class="cls-5" x1="13.76" y1="105.29" x2="74.65" y2="245.25"/><line class="cls-5" x1="34.95" y1="108.29" x2="78.81" y2="245.25"/><line class="cls-5" x1="63.53" y1="110.27" x2="82.54" y2="245.25"/><line class="cls-5" x1="110.06" y1="110.7" x2="90.86" y2="245.32"/><line class="cls-5" x1="138.66" y1="108.56" x2="94.36" y2="245.25"/><line class="cls-5" x1="159.27" y1="105.37" x2="98.87" y2="245.27"/></g></g></svg>