<svg xmlns="http://www.w3.org/2000/svg" viewBox="0 0 246 249.78"><defs><style>.cls-1{fill:#ceefff;}</style></defs><title>Ресурс 7</title><g id="Слой_2" data-name="Слой 2"><g id="Слой_2-2" data-name="Слой 2"><path class="cls-1" d="M222.88,193.88c2.39,7.76,1.69,19.27-2.57,26.33-9,14.91-30.57,16.68-46.57,8.66-1.46-.73-2.19-1.7-3.56-2.62-7,9.8-19.08,12.34-29.49,8.72a16.85,16.85,0,0,1-3-1.49C132,247.85,117,253.85,103,246.85c-9-5-12-15-11-25.27,0-1.44-.81.09-1.19.62-10,12.68-32.78,8.65-40.78-4.35-4-7-3-15,.28-21.69.17-.33.27-.35,0-.13C43.22,201.8,32,198.85,25,195.85c-16-8-15.06-24.28-5.91-35.58a17.51,17.51,0,0,1,2.45-2.84c.3-.23,0-.25,0-.25-10-2-20.5-9.33-21.5-20.33,0-9,6.19-16.31,14.09-20.59-4-6-5.3-10.1,1.86-18.48-.79-.72-1.56-1.47-2.32-2.25C3.06,84.67-3.33,68.85,6,54.85c6.42-9.91,17.6-13.71,29.35-14,.84,0,1.69,0,2.53,0H39l.66,0c-6.79-8.18,2.5-19.54,10.66-17.09,2-8.27,4.56-14.68,14.33-17.16a17.86,17.86,0,0,1,18.45,5.74,25.59,25.59,0,0,0,2.17,2.55c8.92-6.65,15.05-4.55,18.92.11.7.84,1.74,2.32,1.74,2.32s1,1.42.86,1.11c.31-.85.67-1.6,1.13-2.63C113.35,3.52,127.4-3.59,141,1.85c7.56,3,10.7,7.74,12.74,13.75a14.23,14.23,0,0,1,.77,3C167,9.85,187.3,8.91,193.08,24c2.89,7.53,1.25,11.85,1,15.85.9-.28,1.91-.55,2.93-.77,15.41-3.28,34,3.65,39,19.8,2.8,9.1.6,23.09-6.38,30.91,6,3,8.38,8.09,9.38,15.09.83,6.67-1.11,13.34-5.63,17.37a14.62,14.62,0,0,1-3,2.09c-.72.59-.41.27-.47.34a4.71,4.71,0,0,0,1.81,1.16c7,3.34,14.21,11.54,14.31,18.75.18,12.23-13.38,19.89-15.3,21.36,11.53,8,6.18,27.31-7.82,28Z"/></g></g></svg>