<svg xmlns="http://www.w3.org/2000/svg" viewBox="0 0 161.59 221.1"><defs><style>.cls-1{fill:#f7931e;}.cls-2{fill:#ffe458;}.cls-3,.cls-4,.cls-5,.cls-6,.cls-8{fill:none;}.cls-3,.cls-5,.cls-6{stroke:#fbb03b;}.cls-3,.cls-4,.cls-5,.cls-8{stroke-linecap:round;stroke-linejoin:round;}.cls-3,.cls-4{stroke-width:3px;}.cls-4{stroke:#c55416;}.cls-5{stroke-width:4px;}.cls-6,.cls-7{stroke-miterlimit:10;}.cls-7{fill:#743720;stroke:#743720;}.cls-8{stroke:#f7931e;stroke-width:0.5px;}</style></defs><title>Ресурс 3</title><g id="Слой_2" data-name="Слой 2"><g id="Слой_3" data-name="Слой 3"><path class="cls-1" d="M143.85,85.27C130.7,85.27,127,71.21,127,71.21c-4.74-54-41.33-67.63-45.52-69L81.37,2c41.52.27,75.41,30.7,78,69.13l-.7,0S157.2,85.27,143.85,85.27Z"/><path class="cls-1" d="M159.59,76c0,35.67-68.77,97.81-68.77,97.81h-.09S131.12,118.24,127,71.21c0,0,3.71,14.06,16.86,14.06,13.35,0,14.87-14.08,14.87-14.08l.7,0C159.53,72.74,159.59,74.35,159.59,76Z"/><path class="cls-1" d="M80.79,2S38.49,13.88,33.46,71.21c0,0-3.53,14.06-16.49,14.06-12.14,0-13.8-14.08-13.8-14.08l-1-.07C4.83,32.52,39,2,80.79,2Z"/><path class="cls-1" d="M2,76c0-1.63.06-3.25.17-4.86l1,.07S4.83,85.27,17,85.27c13,0,16.49-14.06,16.49-14.06-4.13,47,37.75,102.58,37.75,102.58h-.06S2,112.76,2,76Z"/><path class="cls-1" d="M96.53,71.21c2.52,47.14-15.45,102.58-15.45,102.58s-19-55.44-16.44-102.58c0,0,3.54,14.06,16.19,14.06C93.24,85.27,96.53,71.21,96.53,71.21Z"/><path class="cls-1" d="M81.47,2.2c1.23,2.3,12.72,25.08,15.06,69,0,0-3.29,14.06-15.7,14.06-12.65,0-16.19-14.06-16.19-14.06C67.12,24.8,80.79,2,80.79,2h.58Z"/><path class="cls-2" d="M127,71.21c4.13,47-36.26,102.58-36.26,102.58H81.08s18-55.44,15.45-102.58c0,0,3.22,14.06,15.46,14.06C123.66,85.27,127,71.21,127,71.21Z"/><path class="cls-2" d="M81.08,173.79H71.21S29.33,118.24,33.46,71.21c0,0,3.44,14.06,15.58,14.06,12.31,0,15.6-14.06,15.6-14.06C62.12,118.35,81.08,173.79,81.08,173.79Z"/><path class="cls-2" d="M127,71.21s-3.33,14.06-15,14.06c-12.24,0-15.46-14.06-15.46-14.06C94.19,27.28,82.7,4.5,81.47,2.2,85.66,3.58,122.25,17.17,127,71.21Z"/><path class="cls-2" d="M80.79,2S67.12,24.8,64.64,71.21c0,0-3.29,14.06-15.6,14.06-12.14,0-15.58-14.06-15.58-14.06C38.49,13.88,80.79,2,80.79,2Z"/><path class="cls-3" d="M81.37,2h0l.1.19c1.23,2.3,12.72,25.08,15.06,69,2.52,47.14-15.45,102.58-15.45,102.58"/><path class="cls-3" d="M80.79,2S67.12,24.8,64.64,71.21c-2.52,47.14,16.44,102.58,16.44,102.58"/><path class="cls-3" d="M81.08,2.07l.39.13c4.19,1.38,40.78,15,45.52,69,4.13,47-36.26,102.58-36.26,102.58"/><path class="cls-3" d="M80.79,2S38.49,13.88,33.46,71.21c-4.13,47,37.75,102.58,37.75,102.58"/><path class="cls-4" d="M3.17,71.19S4.83,85.27,17,85.27c13,0,16.49-14.06,16.49-14.06S36.9,85.27,49,85.27c12.31,0,15.6-14.06,15.6-14.06s3.54,14.06,16.19,14.06c12.41,0,15.7-14.06,15.7-14.06S99.75,85.27,112,85.27c11.67,0,15-14.06,15-14.06s3.71,14.06,16.86,14.06c13.35,0,14.87-14.08,14.87-14.08"/><path class="cls-5" d="M159.42,71.14c.11,1.6.17,3.21.17,4.84,0,35.67-68.77,97.81-68.77,97.81H71.15S2,112.76,2,76c0-1.63.06-3.25.17-4.86C4.83,32.52,39,2,80.79,2h.58C122.89,2.28,156.78,32.71,159.42,71.14Z"/><path class="cls-6" d="M.63,79.34S2,98,8.65,115.54A229.75,229.75,0,0,0,28,156.75c9.64,16.53,30.25,42.52,30.25,42.52"/><path class="cls-6" d="M160.66,79.34s-1.36,18.65-8,36.2a230.48,230.48,0,0,1-19.3,41.21C123.7,173.28,104,199.27,104,199.27"/><path class="cls-6" d="M31.64,132.88s7.74,19.25,15.76,36.7c3.37,7.32,15.26,29.69,15.26,29.69"/><path class="cls-6" d="M129.8,132.88s-7.75,19.25-15.77,36.7c-3.36,7.32-15.25,29.69-15.25,29.69"/><path class="cls-7" d="M81.08,199.27H104c0,9.22-10.33,21.33-22.88,21.33S58.2,208.49,58.2,199.27Z"/><path class="cls-8" d="M58.12,201.17s.49,4.59,4.07,4.59c3.82,0,4.86-4.59,4.86-4.59s1,4.59,4.59,4.59,4.6-4.59,4.6-4.59,1,4.59,4.77,4.59,4.63-4.59,4.63-4.59.94,4.59,4.55,4.59c3.44,0,4.42-4.59,4.42-4.59s1.1,4.59,5,4.59,4.38-4.59,4.38-4.59"/></g></g></svg>